<?xml version="1.0" standalone="no"?>
<!DOCTYPE svg PUBLIC "-//W3C//DTD SVG 20010904//EN"
 "http://www.w3.org/TR/2001/REC-SVG-20010904/DTD/svg10.dtd">
<svg version="1.0" xmlns="http://www.w3.org/2000/svg"
 width="225.000000pt" height="225.000000pt" viewBox="0 0 225.000000 225.000000"
 preserveAspectRatio="xMidYMid meet">

<g transform="translate(0.000000,225.000000) scale(0.100000,-0.100000)"
fill="#000000" stroke="none">
<path d="M1271 1591 c-1 -40 2 -52 10 -44 7 7 8 24 1 54 l-10 44 -1 -54z"/>
<path d="M1230 1580 c25 -48 25 -56 3 -39 -16 13 -17 12 -5 -3 11 -14 10 -17
-5 -21 -15 -4 -15 -5 -2 -6 9 0 22 6 29 14 10 13 10 23 -5 55 -10 22 -22 40
-27 40 -4 0 1 -18 12 -40z"/>
<path d="M1387 1603 c-4 -3 -7 -12 -7 -20 0 -15 26 -18 34 -4 7 11 -18 33 -27
24z"/>
<path d="M1310 1508 c0 -16 69 -78 86 -78 8 0 14 9 14 20 0 14 -7 20 -23 20
-12 0 -34 8 -47 18 l-25 17 40 6 40 6 -42 2 c-27 0 -43 -3 -43 -11z"/>
<path d="M1302 1455 c6 -13 15 -22 19 -19 9 5 -11 44 -23 44 -4 0 -3 -11 4
-25z"/>
<path d="M1240 1461 c0 -6 -16 -37 -35 -70 -19 -32 -35 -63 -35 -68 0 -4 8 6
18 22 57 95 72 125 62 125 -5 0 -10 -4 -10 -9z"/>
</g>
</svg>
