<svg xmlns="http://www.w3.org/2000/svg" xmlns:xlink="http://www.w3.org/1999/xlink" width="636" zoomAndPan="magnify" viewBox="0 0 476.87997 104.999996" height="140" preserveAspectRatio="xMidYMid meet" version="1.0"><defs><g/><clipPath id="266fca9526"><path d="M 175.109375 77.9375 L 390.945312 77.9375 L 390.945312 83.28125 L 175.109375 83.28125 Z M 175.109375 77.9375 " clip-rule="nonzero"/></clipPath><clipPath id="4fac3bed88"><path d="M 174.796875 19.859375 L 390.945312 19.859375 L 390.945312 25.203125 L 174.796875 25.203125 Z M 174.796875 19.859375 " clip-rule="nonzero"/></clipPath><clipPath id="ff78460c16"><path d="M 195.089844 91.167969 L 195.832031 91.167969 L 195.832031 94.546875 L 195.089844 94.546875 Z M 184.84375 91.167969 L 185.585938 91.167969 L 185.585938 94.546875 L 184.84375 94.546875 Z M 188.261719 91.167969 L 189 91.167969 L 189 94.546875 L 188.261719 94.546875 Z M 186.550781 91.167969 L 187.292969 91.167969 L 187.292969 94.546875 L 186.550781 94.546875 Z M 178.015625 91.167969 L 178.753906 91.167969 L 178.753906 94.546875 L 178.015625 94.546875 Z M 183.136719 91.167969 L 183.878906 91.167969 L 183.878906 94.546875 L 183.136719 94.546875 Z M 179.722656 91.167969 L 180.460938 91.167969 L 180.460938 94.546875 L 179.722656 94.546875 Z M 181.429688 91.167969 L 182.167969 91.167969 L 182.167969 94.546875 L 181.429688 94.546875 Z M 191.675781 91.167969 L 192.417969 91.167969 L 192.417969 94.546875 L 191.675781 94.546875 Z M 196.800781 91.167969 L 197.539062 91.167969 L 197.539062 94.546875 L 196.800781 94.546875 Z M 198.507812 91.167969 L 199.246094 91.167969 L 199.246094 94.546875 L 198.507812 94.546875 Z M 200.214844 91.167969 L 200.957031 91.167969 L 200.957031 94.546875 L 200.214844 94.546875 Z M 193.382812 91.167969 L 194.125 91.167969 L 194.125 94.546875 L 193.382812 94.546875 Z M 189.96875 91.167969 L 190.707031 91.167969 L 190.707031 94.546875 L 189.96875 94.546875 Z M 189.96875 91.167969 " clip-rule="nonzero"/></clipPath><clipPath id="f738efe2ec"><path d="M 389.1875 91.167969 L 389.929688 91.167969 L 389.929688 94.546875 L 389.1875 94.546875 Z M 378.941406 91.167969 L 379.679688 91.167969 L 379.679688 94.546875 L 378.941406 94.546875 Z M 382.355469 91.167969 L 383.097656 91.167969 L 383.097656 94.546875 L 382.355469 94.546875 Z M 380.648438 91.167969 L 381.390625 91.167969 L 381.390625 94.546875 L 380.648438 94.546875 Z M 372.109375 91.167969 L 372.851562 91.167969 L 372.851562 94.546875 L 372.109375 94.546875 Z M 377.234375 91.167969 L 377.972656 91.167969 L 377.972656 94.546875 L 377.234375 94.546875 Z M 373.816406 91.167969 L 374.558594 91.167969 L 374.558594 94.546875 L 373.816406 94.546875 Z M 375.527344 91.167969 L 376.265625 91.167969 L 376.265625 94.546875 L 375.527344 94.546875 Z M 385.773438 91.167969 L 386.511719 91.167969 L 386.511719 94.546875 L 385.773438 94.546875 Z M 390.894531 91.167969 L 391.636719 91.167969 L 391.636719 94.546875 L 390.894531 94.546875 Z M 392.601562 91.167969 L 393.34375 91.167969 L 393.34375 94.546875 L 392.601562 94.546875 Z M 394.3125 91.167969 L 395.050781 91.167969 L 395.050781 94.546875 L 394.3125 94.546875 Z M 387.480469 91.167969 L 388.21875 91.167969 L 388.21875 94.546875 L 387.480469 94.546875 Z M 384.0625 91.167969 L 384.804688 91.167969 L 384.804688 94.546875 L 384.0625 94.546875 Z M 384.0625 91.167969 " clip-rule="nonzero"/></clipPath><clipPath id="1d16fc21c9"><path d="M 15 10.683594 L 100 10.683594 L 100 95.414062 L 15 95.414062 Z M 15 10.683594 " clip-rule="nonzero"/></clipPath><clipPath id="fdb3aa75e5"><path d="M 5.164062 51 L 110 51 L 110 55 L 5.164062 55 Z M 5.164062 51 " clip-rule="nonzero"/></clipPath></defs><g fill="#000000" fill-opacity="0.302"><g transform="translate(114.006838, 68.91136)"><g><path d="M 2.625 0 L 2.625 -25.234375 L 19.578125 -25.234375 L 19.578125 -20.921875 L 7.53125 -20.921875 L 7.53125 -14.421875 L 17.546875 -14.421875 L 17.546875 -10.453125 L 7.53125 -10.453125 L 7.53125 0 Z M 2.625 0 "/></g></g></g><g fill="#000000" fill-opacity="0.302"><g transform="translate(134.396622, 68.91136)"><g><path d="M 9.8125 -25.234375 L 14.140625 -25.234375 L 23.734375 0 L 18.6875 0 L 16.34375 -6.28125 L 7.53125 -6.28125 L 5.21875 0 L 0.171875 0 Z M 15.453125 -9.734375 L 11.96875 -19.65625 L 8.34375 -9.734375 Z M 15.453125 -9.734375 "/></g></g></g><g fill="#000000" fill-opacity="0.302"><g transform="translate(158.2676, 68.91136)"><g><path d="M 1.09375 -12.796875 C 1.09375 -14.328125 1.367188 -15.84375 1.921875 -17.34375 C 2.484375 -18.851562 3.296875 -20.203125 4.359375 -21.390625 C 5.429688 -22.578125 6.738281 -23.535156 8.28125 -24.265625 C 9.820312 -25.003906 11.570312 -25.375 13.53125 -25.375 C 15.851562 -25.375 17.859375 -24.863281 19.546875 -23.84375 C 21.242188 -22.820312 22.507812 -21.492188 23.34375 -19.859375 L 19.578125 -17.265625 C 19.242188 -17.972656 18.835938 -18.570312 18.359375 -19.0625 C 17.890625 -19.550781 17.382812 -19.9375 16.84375 -20.21875 C 16.300781 -20.5 15.734375 -20.703125 15.140625 -20.828125 C 14.546875 -20.960938 13.960938 -21.03125 13.390625 -21.03125 C 12.160156 -21.03125 11.085938 -20.78125 10.171875 -20.28125 C 9.265625 -19.789062 8.507812 -19.144531 7.90625 -18.34375 C 7.300781 -17.550781 6.84375 -16.648438 6.53125 -15.640625 C 6.226562 -14.640625 6.078125 -13.644531 6.078125 -12.65625 C 6.078125 -11.539062 6.253906 -10.46875 6.609375 -9.4375 C 6.960938 -8.40625 7.460938 -7.5 8.109375 -6.71875 C 8.765625 -5.9375 9.546875 -5.304688 10.453125 -4.828125 C 11.367188 -4.359375 12.375 -4.125 13.46875 -4.125 C 14.03125 -4.125 14.617188 -4.191406 15.234375 -4.328125 C 15.859375 -4.472656 16.445312 -4.695312 17 -5 C 17.5625 -5.3125 18.078125 -5.707031 18.546875 -6.1875 C 19.023438 -6.675781 19.40625 -7.265625 19.6875 -7.953125 L 23.703125 -5.65625 C 23.296875 -4.707031 22.71875 -3.867188 21.96875 -3.140625 C 21.226562 -2.421875 20.390625 -1.8125 19.453125 -1.3125 C 18.515625 -0.8125 17.515625 -0.429688 16.453125 -0.171875 C 15.390625 0.0859375 14.347656 0.21875 13.328125 0.21875 C 11.523438 0.21875 9.875 -0.160156 8.375 -0.921875 C 6.882812 -1.679688 5.597656 -2.671875 4.515625 -3.890625 C 3.441406 -5.109375 2.601562 -6.492188 2 -8.046875 C 1.394531 -9.597656 1.09375 -11.179688 1.09375 -12.796875 Z M 1.09375 -12.796875 "/></g></g></g><g fill="#000000" fill-opacity="0.302"><g transform="translate(182.635882, 68.91136)"><g><path d="M 20.140625 -4.296875 L 20.140625 0 L 2.625 0 L 2.625 -25.234375 L 19.828125 -25.234375 L 19.828125 -20.921875 L 7.53125 -20.921875 L 7.53125 -14.859375 L 18.15625 -14.859375 L 18.15625 -10.875 L 7.53125 -10.875 L 7.53125 -4.296875 Z M 20.140625 -4.296875 "/></g></g></g><g fill="#000000" fill-opacity="0.302"><g transform="translate(203.984771, 68.91136)"><g/></g></g><g fill="#000000" fill-opacity="0.502"><g transform="translate(113.068329, 66.898721)"><g><path d="M 2.625 0 L 2.625 -25.234375 L 19.578125 -25.234375 L 19.578125 -20.921875 L 7.53125 -20.921875 L 7.53125 -14.421875 L 17.546875 -14.421875 L 17.546875 -10.453125 L 7.53125 -10.453125 L 7.53125 0 Z M 2.625 0 "/></g></g></g><g fill="#000000" fill-opacity="0.502"><g transform="translate(133.458112, 66.898721)"><g><path d="M 9.8125 -25.234375 L 14.140625 -25.234375 L 23.734375 0 L 18.6875 0 L 16.34375 -6.28125 L 7.53125 -6.28125 L 5.21875 0 L 0.171875 0 Z M 15.453125 -9.734375 L 11.96875 -19.65625 L 8.34375 -9.734375 Z M 15.453125 -9.734375 "/></g></g></g><g fill="#000000" fill-opacity="0.502"><g transform="translate(157.32909, 66.898721)"><g><path d="M 1.09375 -12.796875 C 1.09375 -14.328125 1.367188 -15.84375 1.921875 -17.34375 C 2.484375 -18.851562 3.296875 -20.203125 4.359375 -21.390625 C 5.429688 -22.578125 6.738281 -23.535156 8.28125 -24.265625 C 9.820312 -25.003906 11.570312 -25.375 13.53125 -25.375 C 15.851562 -25.375 17.859375 -24.863281 19.546875 -23.84375 C 21.242188 -22.820312 22.507812 -21.492188 23.34375 -19.859375 L 19.578125 -17.265625 C 19.242188 -17.972656 18.835938 -18.570312 18.359375 -19.0625 C 17.890625 -19.550781 17.382812 -19.9375 16.84375 -20.21875 C 16.300781 -20.5 15.734375 -20.703125 15.140625 -20.828125 C 14.546875 -20.960938 13.960938 -21.03125 13.390625 -21.03125 C 12.160156 -21.03125 11.085938 -20.78125 10.171875 -20.28125 C 9.265625 -19.789062 8.507812 -19.144531 7.90625 -18.34375 C 7.300781 -17.550781 6.84375 -16.648438 6.53125 -15.640625 C 6.226562 -14.640625 6.078125 -13.644531 6.078125 -12.65625 C 6.078125 -11.539062 6.253906 -10.46875 6.609375 -9.4375 C 6.960938 -8.40625 7.460938 -7.5 8.109375 -6.71875 C 8.765625 -5.9375 9.546875 -5.304688 10.453125 -4.828125 C 11.367188 -4.359375 12.375 -4.125 13.46875 -4.125 C 14.03125 -4.125 14.617188 -4.191406 15.234375 -4.328125 C 15.859375 -4.472656 16.445312 -4.695312 17 -5 C 17.5625 -5.3125 18.078125 -5.707031 18.546875 -6.1875 C 19.023438 -6.675781 19.40625 -7.265625 19.6875 -7.953125 L 23.703125 -5.65625 C 23.296875 -4.707031 22.71875 -3.867188 21.96875 -3.140625 C 21.226562 -2.421875 20.390625 -1.8125 19.453125 -1.3125 C 18.515625 -0.8125 17.515625 -0.429688 16.453125 -0.171875 C 15.390625 0.0859375 14.347656 0.21875 13.328125 0.21875 C 11.523438 0.21875 9.875 -0.160156 8.375 -0.921875 C 6.882812 -1.679688 5.597656 -2.671875 4.515625 -3.890625 C 3.441406 -5.109375 2.601562 -6.492188 2 -8.046875 C 1.394531 -9.597656 1.09375 -11.179688 1.09375 -12.796875 Z M 1.09375 -12.796875 "/></g></g></g><g fill="#000000" fill-opacity="0.502"><g transform="translate(181.697372, 66.898721)"><g><path d="M 20.140625 -4.296875 L 20.140625 0 L 2.625 0 L 2.625 -25.234375 L 19.828125 -25.234375 L 19.828125 -20.921875 L 7.53125 -20.921875 L 7.53125 -14.859375 L 18.15625 -14.859375 L 18.15625 -10.875 L 7.53125 -10.875 L 7.53125 -4.296875 Z M 20.140625 -4.296875 "/></g></g></g><g fill="#000000" fill-opacity="0.502"><g transform="translate(203.046261, 66.898721)"><g/></g></g><g fill="#cb6ce6" fill-opacity="1"><g transform="translate(112.12982, 64.886082)"><g><path d="M 2.625 0 L 2.625 -25.234375 L 19.578125 -25.234375 L 19.578125 -20.921875 L 7.53125 -20.921875 L 7.53125 -14.421875 L 17.546875 -14.421875 L 17.546875 -10.453125 L 7.53125 -10.453125 L 7.53125 0 Z M 2.625 0 "/></g></g></g><g fill="#cb6ce6" fill-opacity="1"><g transform="translate(132.519603, 64.886082)"><g><path d="M 9.8125 -25.234375 L 14.140625 -25.234375 L 23.734375 0 L 18.6875 0 L 16.34375 -6.28125 L 7.53125 -6.28125 L 5.21875 0 L 0.171875 0 Z M 15.453125 -9.734375 L 11.96875 -19.65625 L 8.34375 -9.734375 Z M 15.453125 -9.734375 "/></g></g></g><g fill="#cb6ce6" fill-opacity="1"><g transform="translate(156.390581, 64.886082)"><g><path d="M 1.09375 -12.796875 C 1.09375 -14.328125 1.367188 -15.84375 1.921875 -17.34375 C 2.484375 -18.851562 3.296875 -20.203125 4.359375 -21.390625 C 5.429688 -22.578125 6.738281 -23.535156 8.28125 -24.265625 C 9.820312 -25.003906 11.570312 -25.375 13.53125 -25.375 C 15.851562 -25.375 17.859375 -24.863281 19.546875 -23.84375 C 21.242188 -22.820312 22.507812 -21.492188 23.34375 -19.859375 L 19.578125 -17.265625 C 19.242188 -17.972656 18.835938 -18.570312 18.359375 -19.0625 C 17.890625 -19.550781 17.382812 -19.9375 16.84375 -20.21875 C 16.300781 -20.5 15.734375 -20.703125 15.140625 -20.828125 C 14.546875 -20.960938 13.960938 -21.03125 13.390625 -21.03125 C 12.160156 -21.03125 11.085938 -20.78125 10.171875 -20.28125 C 9.265625 -19.789062 8.507812 -19.144531 7.90625 -18.34375 C 7.300781 -17.550781 6.84375 -16.648438 6.53125 -15.640625 C 6.226562 -14.640625 6.078125 -13.644531 6.078125 -12.65625 C 6.078125 -11.539062 6.253906 -10.46875 6.609375 -9.4375 C 6.960938 -8.40625 7.460938 -7.5 8.109375 -6.71875 C 8.765625 -5.9375 9.546875 -5.304688 10.453125 -4.828125 C 11.367188 -4.359375 12.375 -4.125 13.46875 -4.125 C 14.03125 -4.125 14.617188 -4.191406 15.234375 -4.328125 C 15.859375 -4.472656 16.445312 -4.695312 17 -5 C 17.5625 -5.3125 18.078125 -5.707031 18.546875 -6.1875 C 19.023438 -6.675781 19.40625 -7.265625 19.6875 -7.953125 L 23.703125 -5.65625 C 23.296875 -4.707031 22.71875 -3.867188 21.96875 -3.140625 C 21.226562 -2.421875 20.390625 -1.8125 19.453125 -1.3125 C 18.515625 -0.8125 17.515625 -0.429688 16.453125 -0.171875 C 15.390625 0.0859375 14.347656 0.21875 13.328125 0.21875 C 11.523438 0.21875 9.875 -0.160156 8.375 -0.921875 C 6.882812 -1.679688 5.597656 -2.671875 4.515625 -3.890625 C 3.441406 -5.109375 2.601562 -6.492188 2 -8.046875 C 1.394531 -9.597656 1.09375 -11.179688 1.09375 -12.796875 Z M 1.09375 -12.796875 "/></g></g></g><g fill="#cb6ce6" fill-opacity="1"><g transform="translate(180.758863, 64.886082)"><g><path d="M 20.140625 -4.296875 L 20.140625 0 L 2.625 0 L 2.625 -25.234375 L 19.828125 -25.234375 L 19.828125 -20.921875 L 7.53125 -20.921875 L 7.53125 -14.859375 L 18.15625 -14.859375 L 18.15625 -10.875 L 7.53125 -10.875 L 7.53125 -4.296875 Z M 20.140625 -4.296875 "/></g></g></g><g fill="#cb6ce6" fill-opacity="1"><g transform="translate(202.107752, 64.886082)"><g/></g></g><g fill="#000000" fill-opacity="0.302"><g transform="translate(212.51329, 68.91136)"><g><path d="M 3.15625 0 L 3.15625 -25.234375 L 13.828125 -25.234375 C 14.910156 -25.234375 15.90625 -25 16.8125 -24.53125 C 17.726562 -24.070312 18.519531 -23.46875 19.1875 -22.71875 C 19.851562 -21.976562 20.367188 -21.132812 20.734375 -20.1875 C 21.097656 -19.238281 21.28125 -18.273438 21.28125 -17.296875 C 21.28125 -16.378906 21.144531 -15.5 20.875 -14.65625 C 20.601562 -13.8125 20.222656 -13.050781 19.734375 -12.375 C 19.253906 -11.707031 18.671875 -11.140625 17.984375 -10.671875 C 17.296875 -10.210938 16.523438 -9.898438 15.671875 -9.734375 L 21.859375 0 L 19.046875 0 L 13.109375 -9.3125 L 5.65625 -9.3125 L 5.65625 0 Z M 5.65625 -11.515625 L 13.890625 -11.515625 C 14.628906 -11.515625 15.300781 -11.671875 15.90625 -11.984375 C 16.507812 -12.304688 17.019531 -12.738281 17.4375 -13.28125 C 17.863281 -13.832031 18.195312 -14.453125 18.4375 -15.140625 C 18.675781 -15.828125 18.796875 -16.546875 18.796875 -17.296875 C 18.796875 -18.054688 18.660156 -18.785156 18.390625 -19.484375 C 18.117188 -20.179688 17.75 -20.789062 17.28125 -21.3125 C 16.820312 -21.832031 16.273438 -22.25 15.640625 -22.5625 C 15.015625 -22.875 14.359375 -23.03125 13.671875 -23.03125 L 5.65625 -23.03125 Z M 5.65625 -11.515625 "/></g></g></g><g fill="#000000" fill-opacity="0.302"><g transform="translate(235.70934, 68.91136)"><g><path d="M 20.109375 -2.203125 L 20.109375 0 L 3.15625 0 L 3.15625 -25.234375 L 19.796875 -25.234375 L 19.796875 -23.03125 L 5.65625 -23.03125 L 5.65625 -13.921875 L 17.984375 -13.921875 L 17.984375 -11.828125 L 5.65625 -11.828125 L 5.65625 -2.203125 Z M 20.109375 -2.203125 "/></g></g></g><g fill="#000000" fill-opacity="0.302"><g transform="translate(257.342406, 68.91136)"><g><path d="M 1.5 -12.796875 C 1.5 -14.304688 1.765625 -15.8125 2.296875 -17.3125 C 2.828125 -18.820312 3.597656 -20.164062 4.609375 -21.34375 C 5.628906 -22.53125 6.882812 -23.5 8.375 -24.25 C 9.875 -25 11.570312 -25.375 13.46875 -25.375 C 15.71875 -25.375 17.640625 -24.863281 19.234375 -23.84375 C 20.835938 -22.820312 22.019531 -21.492188 22.78125 -19.859375 L 20.828125 -18.65625 C 20.421875 -19.476562 19.925781 -20.175781 19.34375 -20.75 C 18.757812 -21.320312 18.132812 -21.785156 17.46875 -22.140625 C 16.8125 -22.492188 16.128906 -22.742188 15.421875 -22.890625 C 14.710938 -23.046875 14.015625 -23.125 13.328125 -23.125 C 11.804688 -23.125 10.460938 -22.816406 9.296875 -22.203125 C 8.140625 -21.585938 7.164062 -20.78125 6.375 -19.78125 C 5.582031 -18.789062 4.984375 -17.671875 4.578125 -16.421875 C 4.179688 -15.179688 3.984375 -13.925781 3.984375 -12.65625 C 3.984375 -11.25 4.222656 -9.90625 4.703125 -8.625 C 5.191406 -7.351562 5.851562 -6.222656 6.6875 -5.234375 C 7.53125 -4.253906 8.523438 -3.472656 9.671875 -2.890625 C 10.828125 -2.316406 12.082031 -2.03125 13.4375 -2.03125 C 14.144531 -2.03125 14.867188 -2.117188 15.609375 -2.296875 C 16.359375 -2.472656 17.082031 -2.753906 17.78125 -3.140625 C 18.476562 -3.535156 19.125 -4.019531 19.71875 -4.59375 C 20.3125 -5.175781 20.8125 -5.882812 21.21875 -6.71875 L 23.265625 -5.65625 C 22.867188 -4.707031 22.300781 -3.867188 21.5625 -3.140625 C 20.832031 -2.421875 20.015625 -1.8125 19.109375 -1.3125 C 18.210938 -0.8125 17.257812 -0.429688 16.25 -0.171875 C 15.25 0.0859375 14.257812 0.21875 13.28125 0.21875 C 11.550781 0.21875 9.960938 -0.160156 8.515625 -0.921875 C 7.078125 -1.679688 5.835938 -2.671875 4.796875 -3.890625 C 3.753906 -5.109375 2.941406 -6.492188 2.359375 -8.046875 C 1.785156 -9.597656 1.5 -11.179688 1.5 -12.796875 Z M 1.5 -12.796875 "/></g></g></g><g fill="#000000" fill-opacity="0.302"><g transform="translate(281.710688, 68.91136)"><g><path d="M 13.328125 0.171875 C 11.566406 0.171875 9.957031 -0.1875 8.5 -0.90625 C 7.050781 -1.625 5.804688 -2.582031 4.765625 -3.78125 C 3.722656 -4.976562 2.914062 -6.347656 2.34375 -7.890625 C 1.78125 -9.429688 1.5 -11.003906 1.5 -12.609375 C 1.5 -14.296875 1.796875 -15.90625 2.390625 -17.4375 C 2.992188 -18.976562 3.828125 -20.34375 4.890625 -21.53125 C 5.960938 -22.71875 7.222656 -23.660156 8.671875 -24.359375 C 10.117188 -25.054688 11.679688 -25.40625 13.359375 -25.40625 C 15.109375 -25.40625 16.710938 -25.03125 18.171875 -24.28125 C 19.628906 -23.539062 20.875 -22.566406 21.90625 -21.359375 C 22.9375 -20.148438 23.734375 -18.78125 24.296875 -17.25 C 24.867188 -15.71875 25.15625 -14.160156 25.15625 -12.578125 C 25.15625 -10.898438 24.851562 -9.289062 24.25 -7.75 C 23.644531 -6.207031 22.816406 -4.847656 21.765625 -3.671875 C 20.710938 -2.503906 19.460938 -1.570312 18.015625 -0.875 C 16.566406 -0.175781 15.003906 0.171875 13.328125 0.171875 Z M 3.984375 -12.609375 C 3.984375 -11.234375 4.207031 -9.910156 4.65625 -8.640625 C 5.101562 -7.378906 5.738281 -6.253906 6.5625 -5.265625 C 7.394531 -4.285156 8.378906 -3.503906 9.515625 -2.921875 C 10.660156 -2.347656 11.929688 -2.0625 13.328125 -2.0625 C 14.742188 -2.0625 16.03125 -2.367188 17.1875 -2.984375 C 18.351562 -3.597656 19.335938 -4.398438 20.140625 -5.390625 C 20.953125 -6.390625 21.578125 -7.515625 22.015625 -8.765625 C 22.453125 -10.023438 22.671875 -11.304688 22.671875 -12.609375 C 22.671875 -13.984375 22.4375 -15.300781 21.96875 -16.5625 C 21.507812 -17.832031 20.863281 -18.953125 20.03125 -19.921875 C 19.207031 -20.898438 18.226562 -21.675781 17.09375 -22.25 C 15.957031 -22.832031 14.703125 -23.125 13.328125 -23.125 C 11.898438 -23.125 10.601562 -22.820312 9.4375 -22.21875 C 8.28125 -21.613281 7.300781 -20.8125 6.5 -19.8125 C 5.695312 -18.820312 5.078125 -17.695312 4.640625 -16.4375 C 4.203125 -15.1875 3.984375 -13.910156 3.984375 -12.609375 Z M 3.984375 -12.609375 "/></g></g></g><g fill="#000000" fill-opacity="0.302"><g transform="translate(308.38792, 68.91136)"><g><path d="M 21.390625 -3.6875 C 19.046875 -1.113281 16.34375 0.171875 13.28125 0.171875 C 11.582031 0.171875 10.015625 -0.191406 8.578125 -0.921875 C 7.148438 -1.660156 5.90625 -2.632812 4.84375 -3.84375 C 3.789062 -5.050781 2.96875 -6.414062 2.375 -7.9375 C 1.789062 -9.46875 1.5 -11.039062 1.5 -12.65625 C 1.5 -14.332031 1.785156 -15.941406 2.359375 -17.484375 C 2.941406 -19.023438 3.753906 -20.378906 4.796875 -21.546875 C 5.835938 -22.722656 7.066406 -23.660156 8.484375 -24.359375 C 9.910156 -25.054688 11.460938 -25.40625 13.140625 -25.40625 C 14.378906 -25.40625 15.503906 -25.269531 16.515625 -25 C 17.535156 -24.726562 18.441406 -24.347656 19.234375 -23.859375 C 20.035156 -23.367188 20.722656 -22.785156 21.296875 -22.109375 C 21.878906 -21.441406 22.375 -20.703125 22.78125 -19.890625 L 20.859375 -18.625 C 20.023438 -20.1875 18.945312 -21.332031 17.625 -22.0625 C 16.300781 -22.800781 14.796875 -23.171875 13.109375 -23.171875 C 11.710938 -23.171875 10.453125 -22.875 9.328125 -22.28125 C 8.203125 -21.6875 7.242188 -20.894531 6.453125 -19.90625 C 5.660156 -18.925781 5.050781 -17.800781 4.625 -16.53125 C 4.195312 -15.269531 3.984375 -13.960938 3.984375 -12.609375 C 3.984375 -11.191406 4.222656 -9.84375 4.703125 -8.5625 C 5.191406 -7.28125 5.863281 -6.160156 6.71875 -5.203125 C 7.570312 -4.242188 8.570312 -3.476562 9.71875 -2.90625 C 10.863281 -2.34375 12.113281 -2.0625 13.46875 -2.0625 C 14.914062 -2.0625 16.296875 -2.398438 17.609375 -3.078125 C 18.921875 -3.753906 20.179688 -4.820312 21.390625 -6.28125 L 21.390625 -10.484375 L 15.78125 -10.484375 L 15.78125 -12.40625 L 23.484375 -12.40625 L 23.484375 0 L 21.390625 0 Z M 21.390625 -3.6875 "/></g></g></g><g fill="#000000" fill-opacity="0.302"><g transform="translate(333.821871, 68.91136)"><g><path d="M 5.65625 -20.609375 L 5.65625 0 L 3.15625 0 L 3.15625 -25.234375 L 5.078125 -25.234375 L 21.78125 -4.234375 L 21.78125 -25.1875 L 24.265625 -25.1875 L 24.265625 0 L 22.09375 0 Z M 5.65625 -20.609375 "/></g></g></g><g fill="#000000" fill-opacity="0.302"><g transform="translate(361.245071, 68.91136)"><g><path d="M 3.15625 0 L 3.15625 -25.234375 L 5.65625 -25.234375 L 5.65625 0 Z M 3.15625 0 "/></g></g></g><g fill="#000000" fill-opacity="0.302"><g transform="translate(370.054598, 68.91136)"><g><path d="M 21.0625 -23.03125 L 12.078125 -23.03125 L 12.078125 0 L 9.59375 0 L 9.59375 -23.03125 L 0.609375 -23.03125 L 0.609375 -25.234375 L 21.0625 -25.234375 Z M 21.0625 -23.03125 "/></g></g></g><g fill="#000000" fill-opacity="0.302"><g transform="translate(391.723188, 68.91136)"><g><path d="M 3.15625 0 L 3.15625 -25.234375 L 5.65625 -25.234375 L 5.65625 0 Z M 3.15625 0 "/></g></g></g><g fill="#000000" fill-opacity="0.302"><g transform="translate(400.532715, 68.91136)"><g><path d="M 13.328125 0.171875 C 11.566406 0.171875 9.957031 -0.1875 8.5 -0.90625 C 7.050781 -1.625 5.804688 -2.582031 4.765625 -3.78125 C 3.722656 -4.976562 2.914062 -6.347656 2.34375 -7.890625 C 1.78125 -9.429688 1.5 -11.003906 1.5 -12.609375 C 1.5 -14.296875 1.796875 -15.90625 2.390625 -17.4375 C 2.992188 -18.976562 3.828125 -20.34375 4.890625 -21.53125 C 5.960938 -22.71875 7.222656 -23.660156 8.671875 -24.359375 C 10.117188 -25.054688 11.679688 -25.40625 13.359375 -25.40625 C 15.109375 -25.40625 16.710938 -25.03125 18.171875 -24.28125 C 19.628906 -23.539062 20.875 -22.566406 21.90625 -21.359375 C 22.9375 -20.148438 23.734375 -18.78125 24.296875 -17.25 C 24.867188 -15.71875 25.15625 -14.160156 25.15625 -12.578125 C 25.15625 -10.898438 24.851562 -9.289062 24.25 -7.75 C 23.644531 -6.207031 22.816406 -4.847656 21.765625 -3.671875 C 20.710938 -2.503906 19.460938 -1.570312 18.015625 -0.875 C 16.566406 -0.175781 15.003906 0.171875 13.328125 0.171875 Z M 3.984375 -12.609375 C 3.984375 -11.234375 4.207031 -9.910156 4.65625 -8.640625 C 5.101562 -7.378906 5.738281 -6.253906 6.5625 -5.265625 C 7.394531 -4.285156 8.378906 -3.503906 9.515625 -2.921875 C 10.660156 -2.347656 11.929688 -2.0625 13.328125 -2.0625 C 14.742188 -2.0625 16.03125 -2.367188 17.1875 -2.984375 C 18.351562 -3.597656 19.335938 -4.398438 20.140625 -5.390625 C 20.953125 -6.390625 21.578125 -7.515625 22.015625 -8.765625 C 22.453125 -10.023438 22.671875 -11.304688 22.671875 -12.609375 C 22.671875 -13.984375 22.4375 -15.300781 21.96875 -16.5625 C 21.507812 -17.832031 20.863281 -18.953125 20.03125 -19.921875 C 19.207031 -20.898438 18.226562 -21.675781 17.09375 -22.25 C 15.957031 -22.832031 14.703125 -23.125 13.328125 -23.125 C 11.898438 -23.125 10.601562 -22.820312 9.4375 -22.21875 C 8.28125 -21.613281 7.300781 -20.8125 6.5 -19.8125 C 5.695312 -18.820312 5.078125 -17.695312 4.640625 -16.4375 C 4.203125 -15.1875 3.984375 -13.910156 3.984375 -12.609375 Z M 3.984375 -12.609375 "/></g></g></g><g fill="#000000" fill-opacity="0.302"><g transform="translate(427.209959, 68.91136)"><g><path d="M 5.65625 -20.609375 L 5.65625 0 L 3.15625 0 L 3.15625 -25.234375 L 5.078125 -25.234375 L 21.78125 -4.234375 L 21.78125 -25.1875 L 24.265625 -25.1875 L 24.265625 0 L 22.09375 0 Z M 5.65625 -20.609375 "/></g></g></g><g fill="#000000" fill-opacity="0.502"><g transform="translate(211.574781, 66.898721)"><g><path d="M 3.15625 0 L 3.15625 -25.234375 L 13.828125 -25.234375 C 14.910156 -25.234375 15.90625 -25 16.8125 -24.53125 C 17.726562 -24.070312 18.519531 -23.46875 19.1875 -22.71875 C 19.851562 -21.976562 20.367188 -21.132812 20.734375 -20.1875 C 21.097656 -19.238281 21.28125 -18.273438 21.28125 -17.296875 C 21.28125 -16.378906 21.144531 -15.5 20.875 -14.65625 C 20.601562 -13.8125 20.222656 -13.050781 19.734375 -12.375 C 19.253906 -11.707031 18.671875 -11.140625 17.984375 -10.671875 C 17.296875 -10.210938 16.523438 -9.898438 15.671875 -9.734375 L 21.859375 0 L 19.046875 0 L 13.109375 -9.3125 L 5.65625 -9.3125 L 5.65625 0 Z M 5.65625 -11.515625 L 13.890625 -11.515625 C 14.628906 -11.515625 15.300781 -11.671875 15.90625 -11.984375 C 16.507812 -12.304688 17.019531 -12.738281 17.4375 -13.28125 C 17.863281 -13.832031 18.195312 -14.453125 18.4375 -15.140625 C 18.675781 -15.828125 18.796875 -16.546875 18.796875 -17.296875 C 18.796875 -18.054688 18.660156 -18.785156 18.390625 -19.484375 C 18.117188 -20.179688 17.75 -20.789062 17.28125 -21.3125 C 16.820312 -21.832031 16.273438 -22.25 15.640625 -22.5625 C 15.015625 -22.875 14.359375 -23.03125 13.671875 -23.03125 L 5.65625 -23.03125 Z M 5.65625 -11.515625 "/></g></g></g><g fill="#000000" fill-opacity="0.502"><g transform="translate(234.77083, 66.898721)"><g><path d="M 20.109375 -2.203125 L 20.109375 0 L 3.15625 0 L 3.15625 -25.234375 L 19.796875 -25.234375 L 19.796875 -23.03125 L 5.65625 -23.03125 L 5.65625 -13.921875 L 17.984375 -13.921875 L 17.984375 -11.828125 L 5.65625 -11.828125 L 5.65625 -2.203125 Z M 20.109375 -2.203125 "/></g></g></g><g fill="#000000" fill-opacity="0.502"><g transform="translate(256.403896, 66.898721)"><g><path d="M 1.5 -12.796875 C 1.5 -14.304688 1.765625 -15.8125 2.296875 -17.3125 C 2.828125 -18.820312 3.597656 -20.164062 4.609375 -21.34375 C 5.628906 -22.53125 6.882812 -23.5 8.375 -24.25 C 9.875 -25 11.570312 -25.375 13.46875 -25.375 C 15.71875 -25.375 17.640625 -24.863281 19.234375 -23.84375 C 20.835938 -22.820312 22.019531 -21.492188 22.78125 -19.859375 L 20.828125 -18.65625 C 20.421875 -19.476562 19.925781 -20.175781 19.34375 -20.75 C 18.757812 -21.320312 18.132812 -21.785156 17.46875 -22.140625 C 16.8125 -22.492188 16.128906 -22.742188 15.421875 -22.890625 C 14.710938 -23.046875 14.015625 -23.125 13.328125 -23.125 C 11.804688 -23.125 10.460938 -22.816406 9.296875 -22.203125 C 8.140625 -21.585938 7.164062 -20.78125 6.375 -19.78125 C 5.582031 -18.789062 4.984375 -17.671875 4.578125 -16.421875 C 4.179688 -15.179688 3.984375 -13.925781 3.984375 -12.65625 C 3.984375 -11.25 4.222656 -9.90625 4.703125 -8.625 C 5.191406 -7.351562 5.851562 -6.222656 6.6875 -5.234375 C 7.53125 -4.253906 8.523438 -3.472656 9.671875 -2.890625 C 10.828125 -2.316406 12.082031 -2.03125 13.4375 -2.03125 C 14.144531 -2.03125 14.867188 -2.117188 15.609375 -2.296875 C 16.359375 -2.472656 17.082031 -2.753906 17.78125 -3.140625 C 18.476562 -3.535156 19.125 -4.019531 19.71875 -4.59375 C 20.3125 -5.175781 20.8125 -5.882812 21.21875 -6.71875 L 23.265625 -5.65625 C 22.867188 -4.707031 22.300781 -3.867188 21.5625 -3.140625 C 20.832031 -2.421875 20.015625 -1.8125 19.109375 -1.3125 C 18.210938 -0.8125 17.257812 -0.429688 16.25 -0.171875 C 15.25 0.0859375 14.257812 0.21875 13.28125 0.21875 C 11.550781 0.21875 9.960938 -0.160156 8.515625 -0.921875 C 7.078125 -1.679688 5.835938 -2.671875 4.796875 -3.890625 C 3.753906 -5.109375 2.941406 -6.492188 2.359375 -8.046875 C 1.785156 -9.597656 1.5 -11.179688 1.5 -12.796875 Z M 1.5 -12.796875 "/></g></g></g><g fill="#000000" fill-opacity="0.502"><g transform="translate(280.772178, 66.898721)"><g><path d="M 13.328125 0.171875 C 11.566406 0.171875 9.957031 -0.1875 8.5 -0.90625 C 7.050781 -1.625 5.804688 -2.582031 4.765625 -3.78125 C 3.722656 -4.976562 2.914062 -6.347656 2.34375 -7.890625 C 1.78125 -9.429688 1.5 -11.003906 1.5 -12.609375 C 1.5 -14.296875 1.796875 -15.90625 2.390625 -17.4375 C 2.992188 -18.976562 3.828125 -20.34375 4.890625 -21.53125 C 5.960938 -22.71875 7.222656 -23.660156 8.671875 -24.359375 C 10.117188 -25.054688 11.679688 -25.40625 13.359375 -25.40625 C 15.109375 -25.40625 16.710938 -25.03125 18.171875 -24.28125 C 19.628906 -23.539062 20.875 -22.566406 21.90625 -21.359375 C 22.9375 -20.148438 23.734375 -18.78125 24.296875 -17.25 C 24.867188 -15.71875 25.15625 -14.160156 25.15625 -12.578125 C 25.15625 -10.898438 24.851562 -9.289062 24.25 -7.75 C 23.644531 -6.207031 22.816406 -4.847656 21.765625 -3.671875 C 20.710938 -2.503906 19.460938 -1.570312 18.015625 -0.875 C 16.566406 -0.175781 15.003906 0.171875 13.328125 0.171875 Z M 3.984375 -12.609375 C 3.984375 -11.234375 4.207031 -9.910156 4.65625 -8.640625 C 5.101562 -7.378906 5.738281 -6.253906 6.5625 -5.265625 C 7.394531 -4.285156 8.378906 -3.503906 9.515625 -2.921875 C 10.660156 -2.347656 11.929688 -2.0625 13.328125 -2.0625 C 14.742188 -2.0625 16.03125 -2.367188 17.1875 -2.984375 C 18.351562 -3.597656 19.335938 -4.398438 20.140625 -5.390625 C 20.953125 -6.390625 21.578125 -7.515625 22.015625 -8.765625 C 22.453125 -10.023438 22.671875 -11.304688 22.671875 -12.609375 C 22.671875 -13.984375 22.4375 -15.300781 21.96875 -16.5625 C 21.507812 -17.832031 20.863281 -18.953125 20.03125 -19.921875 C 19.207031 -20.898438 18.226562 -21.675781 17.09375 -22.25 C 15.957031 -22.832031 14.703125 -23.125 13.328125 -23.125 C 11.898438 -23.125 10.601562 -22.820312 9.4375 -22.21875 C 8.28125 -21.613281 7.300781 -20.8125 6.5 -19.8125 C 5.695312 -18.820312 5.078125 -17.695312 4.640625 -16.4375 C 4.203125 -15.1875 3.984375 -13.910156 3.984375 -12.609375 Z M 3.984375 -12.609375 "/></g></g></g><g fill="#000000" fill-opacity="0.502"><g transform="translate(307.449411, 66.898721)"><g><path d="M 21.390625 -3.6875 C 19.046875 -1.113281 16.34375 0.171875 13.28125 0.171875 C 11.582031 0.171875 10.015625 -0.191406 8.578125 -0.921875 C 7.148438 -1.660156 5.90625 -2.632812 4.84375 -3.84375 C 3.789062 -5.050781 2.96875 -6.414062 2.375 -7.9375 C 1.789062 -9.46875 1.5 -11.039062 1.5 -12.65625 C 1.5 -14.332031 1.785156 -15.941406 2.359375 -17.484375 C 2.941406 -19.023438 3.753906 -20.378906 4.796875 -21.546875 C 5.835938 -22.722656 7.066406 -23.660156 8.484375 -24.359375 C 9.910156 -25.054688 11.460938 -25.40625 13.140625 -25.40625 C 14.378906 -25.40625 15.503906 -25.269531 16.515625 -25 C 17.535156 -24.726562 18.441406 -24.347656 19.234375 -23.859375 C 20.035156 -23.367188 20.722656 -22.785156 21.296875 -22.109375 C 21.878906 -21.441406 22.375 -20.703125 22.78125 -19.890625 L 20.859375 -18.625 C 20.023438 -20.1875 18.945312 -21.332031 17.625 -22.0625 C 16.300781 -22.800781 14.796875 -23.171875 13.109375 -23.171875 C 11.710938 -23.171875 10.453125 -22.875 9.328125 -22.28125 C 8.203125 -21.6875 7.242188 -20.894531 6.453125 -19.90625 C 5.660156 -18.925781 5.050781 -17.800781 4.625 -16.53125 C 4.195312 -15.269531 3.984375 -13.960938 3.984375 -12.609375 C 3.984375 -11.191406 4.222656 -9.84375 4.703125 -8.5625 C 5.191406 -7.28125 5.863281 -6.160156 6.71875 -5.203125 C 7.570312 -4.242188 8.570312 -3.476562 9.71875 -2.90625 C 10.863281 -2.34375 12.113281 -2.0625 13.46875 -2.0625 C 14.914062 -2.0625 16.296875 -2.398438 17.609375 -3.078125 C 18.921875 -3.753906 20.179688 -4.820312 21.390625 -6.28125 L 21.390625 -10.484375 L 15.78125 -10.484375 L 15.78125 -12.40625 L 23.484375 -12.40625 L 23.484375 0 L 21.390625 0 Z M 21.390625 -3.6875 "/></g></g></g><g fill="#000000" fill-opacity="0.502"><g transform="translate(332.883362, 66.898721)"><g><path d="M 5.65625 -20.609375 L 5.65625 0 L 3.15625 0 L 3.15625 -25.234375 L 5.078125 -25.234375 L 21.78125 -4.234375 L 21.78125 -25.1875 L 24.265625 -25.1875 L 24.265625 0 L 22.09375 0 Z M 5.65625 -20.609375 "/></g></g></g><g fill="#000000" fill-opacity="0.502"><g transform="translate(360.306561, 66.898721)"><g><path d="M 3.15625 0 L 3.15625 -25.234375 L 5.65625 -25.234375 L 5.65625 0 Z M 3.15625 0 "/></g></g></g><g fill="#000000" fill-opacity="0.502"><g transform="translate(369.116088, 66.898721)"><g><path d="M 21.0625 -23.03125 L 12.078125 -23.03125 L 12.078125 0 L 9.59375 0 L 9.59375 -23.03125 L 0.609375 -23.03125 L 0.609375 -25.234375 L 21.0625 -25.234375 Z M 21.0625 -23.03125 "/></g></g></g><g fill="#000000" fill-opacity="0.502"><g transform="translate(390.784679, 66.898721)"><g><path d="M 3.15625 0 L 3.15625 -25.234375 L 5.65625 -25.234375 L 5.65625 0 Z M 3.15625 0 "/></g></g></g><g fill="#000000" fill-opacity="0.502"><g transform="translate(399.594206, 66.898721)"><g><path d="M 13.328125 0.171875 C 11.566406 0.171875 9.957031 -0.1875 8.5 -0.90625 C 7.050781 -1.625 5.804688 -2.582031 4.765625 -3.78125 C 3.722656 -4.976562 2.914062 -6.347656 2.34375 -7.890625 C 1.78125 -9.429688 1.5 -11.003906 1.5 -12.609375 C 1.5 -14.296875 1.796875 -15.90625 2.390625 -17.4375 C 2.992188 -18.976562 3.828125 -20.34375 4.890625 -21.53125 C 5.960938 -22.71875 7.222656 -23.660156 8.671875 -24.359375 C 10.117188 -25.054688 11.679688 -25.40625 13.359375 -25.40625 C 15.109375 -25.40625 16.710938 -25.03125 18.171875 -24.28125 C 19.628906 -23.539062 20.875 -22.566406 21.90625 -21.359375 C 22.9375 -20.148438 23.734375 -18.78125 24.296875 -17.25 C 24.867188 -15.71875 25.15625 -14.160156 25.15625 -12.578125 C 25.15625 -10.898438 24.851562 -9.289062 24.25 -7.75 C 23.644531 -6.207031 22.816406 -4.847656 21.765625 -3.671875 C 20.710938 -2.503906 19.460938 -1.570312 18.015625 -0.875 C 16.566406 -0.175781 15.003906 0.171875 13.328125 0.171875 Z M 3.984375 -12.609375 C 3.984375 -11.234375 4.207031 -9.910156 4.65625 -8.640625 C 5.101562 -7.378906 5.738281 -6.253906 6.5625 -5.265625 C 7.394531 -4.285156 8.378906 -3.503906 9.515625 -2.921875 C 10.660156 -2.347656 11.929688 -2.0625 13.328125 -2.0625 C 14.742188 -2.0625 16.03125 -2.367188 17.1875 -2.984375 C 18.351562 -3.597656 19.335938 -4.398438 20.140625 -5.390625 C 20.953125 -6.390625 21.578125 -7.515625 22.015625 -8.765625 C 22.453125 -10.023438 22.671875 -11.304688 22.671875 -12.609375 C 22.671875 -13.984375 22.4375 -15.300781 21.96875 -16.5625 C 21.507812 -17.832031 20.863281 -18.953125 20.03125 -19.921875 C 19.207031 -20.898438 18.226562 -21.675781 17.09375 -22.25 C 15.957031 -22.832031 14.703125 -23.125 13.328125 -23.125 C 11.898438 -23.125 10.601562 -22.820312 9.4375 -22.21875 C 8.28125 -21.613281 7.300781 -20.8125 6.5 -19.8125 C 5.695312 -18.820312 5.078125 -17.695312 4.640625 -16.4375 C 4.203125 -15.1875 3.984375 -13.910156 3.984375 -12.609375 Z M 3.984375 -12.609375 "/></g></g></g><g fill="#000000" fill-opacity="0.502"><g transform="translate(426.27145, 66.898721)"><g><path d="M 5.65625 -20.609375 L 5.65625 0 L 3.15625 0 L 3.15625 -25.234375 L 5.078125 -25.234375 L 21.78125 -4.234375 L 21.78125 -25.1875 L 24.265625 -25.1875 L 24.265625 0 L 22.09375 0 Z M 5.65625 -20.609375 "/></g></g></g><g fill="#cb6ce6" fill-opacity="1"><g transform="translate(210.636271, 64.886082)"><g><path d="M 3.15625 0 L 3.15625 -25.234375 L 13.828125 -25.234375 C 14.910156 -25.234375 15.90625 -25 16.8125 -24.53125 C 17.726562 -24.070312 18.519531 -23.46875 19.1875 -22.71875 C 19.851562 -21.976562 20.367188 -21.132812 20.734375 -20.1875 C 21.097656 -19.238281 21.28125 -18.273438 21.28125 -17.296875 C 21.28125 -16.378906 21.144531 -15.5 20.875 -14.65625 C 20.601562 -13.8125 20.222656 -13.050781 19.734375 -12.375 C 19.253906 -11.707031 18.671875 -11.140625 17.984375 -10.671875 C 17.296875 -10.210938 16.523438 -9.898438 15.671875 -9.734375 L 21.859375 0 L 19.046875 0 L 13.109375 -9.3125 L 5.65625 -9.3125 L 5.65625 0 Z M 5.65625 -11.515625 L 13.890625 -11.515625 C 14.628906 -11.515625 15.300781 -11.671875 15.90625 -11.984375 C 16.507812 -12.304688 17.019531 -12.738281 17.4375 -13.28125 C 17.863281 -13.832031 18.195312 -14.453125 18.4375 -15.140625 C 18.675781 -15.828125 18.796875 -16.546875 18.796875 -17.296875 C 18.796875 -18.054688 18.660156 -18.785156 18.390625 -19.484375 C 18.117188 -20.179688 17.75 -20.789062 17.28125 -21.3125 C 16.820312 -21.832031 16.273438 -22.25 15.640625 -22.5625 C 15.015625 -22.875 14.359375 -23.03125 13.671875 -23.03125 L 5.65625 -23.03125 Z M 5.65625 -11.515625 "/></g></g></g><g fill="#cb6ce6" fill-opacity="1"><g transform="translate(233.832321, 64.886082)"><g><path d="M 20.109375 -2.203125 L 20.109375 0 L 3.15625 0 L 3.15625 -25.234375 L 19.796875 -25.234375 L 19.796875 -23.03125 L 5.65625 -23.03125 L 5.65625 -13.921875 L 17.984375 -13.921875 L 17.984375 -11.828125 L 5.65625 -11.828125 L 5.65625 -2.203125 Z M 20.109375 -2.203125 "/></g></g></g><g fill="#cb6ce6" fill-opacity="1"><g transform="translate(255.465387, 64.886082)"><g><path d="M 1.5 -12.796875 C 1.5 -14.304688 1.765625 -15.8125 2.296875 -17.3125 C 2.828125 -18.820312 3.597656 -20.164062 4.609375 -21.34375 C 5.628906 -22.53125 6.882812 -23.5 8.375 -24.25 C 9.875 -25 11.570312 -25.375 13.46875 -25.375 C 15.71875 -25.375 17.640625 -24.863281 19.234375 -23.84375 C 20.835938 -22.820312 22.019531 -21.492188 22.78125 -19.859375 L 20.828125 -18.65625 C 20.421875 -19.476562 19.925781 -20.175781 19.34375 -20.75 C 18.757812 -21.320312 18.132812 -21.785156 17.46875 -22.140625 C 16.8125 -22.492188 16.128906 -22.742188 15.421875 -22.890625 C 14.710938 -23.046875 14.015625 -23.125 13.328125 -23.125 C 11.804688 -23.125 10.460938 -22.816406 9.296875 -22.203125 C 8.140625 -21.585938 7.164062 -20.78125 6.375 -19.78125 C 5.582031 -18.789062 4.984375 -17.671875 4.578125 -16.421875 C 4.179688 -15.179688 3.984375 -13.925781 3.984375 -12.65625 C 3.984375 -11.25 4.222656 -9.90625 4.703125 -8.625 C 5.191406 -7.351562 5.851562 -6.222656 6.6875 -5.234375 C 7.53125 -4.253906 8.523438 -3.472656 9.671875 -2.890625 C 10.828125 -2.316406 12.082031 -2.03125 13.4375 -2.03125 C 14.144531 -2.03125 14.867188 -2.117188 15.609375 -2.296875 C 16.359375 -2.472656 17.082031 -2.753906 17.78125 -3.140625 C 18.476562 -3.535156 19.125 -4.019531 19.71875 -4.59375 C 20.3125 -5.175781 20.8125 -5.882812 21.21875 -6.71875 L 23.265625 -5.65625 C 22.867188 -4.707031 22.300781 -3.867188 21.5625 -3.140625 C 20.832031 -2.421875 20.015625 -1.8125 19.109375 -1.3125 C 18.210938 -0.8125 17.257812 -0.429688 16.25 -0.171875 C 15.25 0.0859375 14.257812 0.21875 13.28125 0.21875 C 11.550781 0.21875 9.960938 -0.160156 8.515625 -0.921875 C 7.078125 -1.679688 5.835938 -2.671875 4.796875 -3.890625 C 3.753906 -5.109375 2.941406 -6.492188 2.359375 -8.046875 C 1.785156 -9.597656 1.5 -11.179688 1.5 -12.796875 Z M 1.5 -12.796875 "/></g></g></g><g fill="#cb6ce6" fill-opacity="1"><g transform="translate(279.833669, 64.886082)"><g><path d="M 13.328125 0.171875 C 11.566406 0.171875 9.957031 -0.1875 8.5 -0.90625 C 7.050781 -1.625 5.804688 -2.582031 4.765625 -3.78125 C 3.722656 -4.976562 2.914062 -6.347656 2.34375 -7.890625 C 1.78125 -9.429688 1.5 -11.003906 1.5 -12.609375 C 1.5 -14.296875 1.796875 -15.90625 2.390625 -17.4375 C 2.992188 -18.976562 3.828125 -20.34375 4.890625 -21.53125 C 5.960938 -22.71875 7.222656 -23.660156 8.671875 -24.359375 C 10.117188 -25.054688 11.679688 -25.40625 13.359375 -25.40625 C 15.109375 -25.40625 16.710938 -25.03125 18.171875 -24.28125 C 19.628906 -23.539062 20.875 -22.566406 21.90625 -21.359375 C 22.9375 -20.148438 23.734375 -18.78125 24.296875 -17.25 C 24.867188 -15.71875 25.15625 -14.160156 25.15625 -12.578125 C 25.15625 -10.898438 24.851562 -9.289062 24.25 -7.75 C 23.644531 -6.207031 22.816406 -4.847656 21.765625 -3.671875 C 20.710938 -2.503906 19.460938 -1.570312 18.015625 -0.875 C 16.566406 -0.175781 15.003906 0.171875 13.328125 0.171875 Z M 3.984375 -12.609375 C 3.984375 -11.234375 4.207031 -9.910156 4.65625 -8.640625 C 5.101562 -7.378906 5.738281 -6.253906 6.5625 -5.265625 C 7.394531 -4.285156 8.378906 -3.503906 9.515625 -2.921875 C 10.660156 -2.347656 11.929688 -2.0625 13.328125 -2.0625 C 14.742188 -2.0625 16.03125 -2.367188 17.1875 -2.984375 C 18.351562 -3.597656 19.335938 -4.398438 20.140625 -5.390625 C 20.953125 -6.390625 21.578125 -7.515625 22.015625 -8.765625 C 22.453125 -10.023438 22.671875 -11.304688 22.671875 -12.609375 C 22.671875 -13.984375 22.4375 -15.300781 21.96875 -16.5625 C 21.507812 -17.832031 20.863281 -18.953125 20.03125 -19.921875 C 19.207031 -20.898438 18.226562 -21.675781 17.09375 -22.25 C 15.957031 -22.832031 14.703125 -23.125 13.328125 -23.125 C 11.898438 -23.125 10.601562 -22.820312 9.4375 -22.21875 C 8.28125 -21.613281 7.300781 -20.8125 6.5 -19.8125 C 5.695312 -18.820312 5.078125 -17.695312 4.640625 -16.4375 C 4.203125 -15.1875 3.984375 -13.910156 3.984375 -12.609375 Z M 3.984375 -12.609375 "/></g></g></g><g fill="#cb6ce6" fill-opacity="1"><g transform="translate(306.510902, 64.886082)"><g><path d="M 21.390625 -3.6875 C 19.046875 -1.113281 16.34375 0.171875 13.28125 0.171875 C 11.582031 0.171875 10.015625 -0.191406 8.578125 -0.921875 C 7.148438 -1.660156 5.90625 -2.632812 4.84375 -3.84375 C 3.789062 -5.050781 2.96875 -6.414062 2.375 -7.9375 C 1.789062 -9.46875 1.5 -11.039062 1.5 -12.65625 C 1.5 -14.332031 1.785156 -15.941406 2.359375 -17.484375 C 2.941406 -19.023438 3.753906 -20.378906 4.796875 -21.546875 C 5.835938 -22.722656 7.066406 -23.660156 8.484375 -24.359375 C 9.910156 -25.054688 11.460938 -25.40625 13.140625 -25.40625 C 14.378906 -25.40625 15.503906 -25.269531 16.515625 -25 C 17.535156 -24.726562 18.441406 -24.347656 19.234375 -23.859375 C 20.035156 -23.367188 20.722656 -22.785156 21.296875 -22.109375 C 21.878906 -21.441406 22.375 -20.703125 22.78125 -19.890625 L 20.859375 -18.625 C 20.023438 -20.1875 18.945312 -21.332031 17.625 -22.0625 C 16.300781 -22.800781 14.796875 -23.171875 13.109375 -23.171875 C 11.710938 -23.171875 10.453125 -22.875 9.328125 -22.28125 C 8.203125 -21.6875 7.242188 -20.894531 6.453125 -19.90625 C 5.660156 -18.925781 5.050781 -17.800781 4.625 -16.53125 C 4.195312 -15.269531 3.984375 -13.960938 3.984375 -12.609375 C 3.984375 -11.191406 4.222656 -9.84375 4.703125 -8.5625 C 5.191406 -7.28125 5.863281 -6.160156 6.71875 -5.203125 C 7.570312 -4.242188 8.570312 -3.476562 9.71875 -2.90625 C 10.863281 -2.34375 12.113281 -2.0625 13.46875 -2.0625 C 14.914062 -2.0625 16.296875 -2.398438 17.609375 -3.078125 C 18.921875 -3.753906 20.179688 -4.820312 21.390625 -6.28125 L 21.390625 -10.484375 L 15.78125 -10.484375 L 15.78125 -12.40625 L 23.484375 -12.40625 L 23.484375 0 L 21.390625 0 Z M 21.390625 -3.6875 "/></g></g></g><g fill="#cb6ce6" fill-opacity="1"><g transform="translate(331.944852, 64.886082)"><g><path d="M 5.65625 -20.609375 L 5.65625 0 L 3.15625 0 L 3.15625 -25.234375 L 5.078125 -25.234375 L 21.78125 -4.234375 L 21.78125 -25.1875 L 24.265625 -25.1875 L 24.265625 0 L 22.09375 0 Z M 5.65625 -20.609375 "/></g></g></g><g fill="#cb6ce6" fill-opacity="1"><g transform="translate(359.368052, 64.886082)"><g><path d="M 3.15625 0 L 3.15625 -25.234375 L 5.65625 -25.234375 L 5.65625 0 Z M 3.15625 0 "/></g></g></g><g fill="#cb6ce6" fill-opacity="1"><g transform="translate(368.177579, 64.886082)"><g><path d="M 21.0625 -23.03125 L 12.078125 -23.03125 L 12.078125 0 L 9.59375 0 L 9.59375 -23.03125 L 0.609375 -23.03125 L 0.609375 -25.234375 L 21.0625 -25.234375 Z M 21.0625 -23.03125 "/></g></g></g><g fill="#cb6ce6" fill-opacity="1"><g transform="translate(389.846169, 64.886082)"><g><path d="M 3.15625 0 L 3.15625 -25.234375 L 5.65625 -25.234375 L 5.65625 0 Z M 3.15625 0 "/></g></g></g><g fill="#cb6ce6" fill-opacity="1"><g transform="translate(398.655696, 64.886082)"><g><path d="M 13.328125 0.171875 C 11.566406 0.171875 9.957031 -0.1875 8.5 -0.90625 C 7.050781 -1.625 5.804688 -2.582031 4.765625 -3.78125 C 3.722656 -4.976562 2.914062 -6.347656 2.34375 -7.890625 C 1.78125 -9.429688 1.5 -11.003906 1.5 -12.609375 C 1.5 -14.296875 1.796875 -15.90625 2.390625 -17.4375 C 2.992188 -18.976562 3.828125 -20.34375 4.890625 -21.53125 C 5.960938 -22.71875 7.222656 -23.660156 8.671875 -24.359375 C 10.117188 -25.054688 11.679688 -25.40625 13.359375 -25.40625 C 15.109375 -25.40625 16.710938 -25.03125 18.171875 -24.28125 C 19.628906 -23.539062 20.875 -22.566406 21.90625 -21.359375 C 22.9375 -20.148438 23.734375 -18.78125 24.296875 -17.25 C 24.867188 -15.71875 25.15625 -14.160156 25.15625 -12.578125 C 25.15625 -10.898438 24.851562 -9.289062 24.25 -7.75 C 23.644531 -6.207031 22.816406 -4.847656 21.765625 -3.671875 C 20.710938 -2.503906 19.460938 -1.570312 18.015625 -0.875 C 16.566406 -0.175781 15.003906 0.171875 13.328125 0.171875 Z M 3.984375 -12.609375 C 3.984375 -11.234375 4.207031 -9.910156 4.65625 -8.640625 C 5.101562 -7.378906 5.738281 -6.253906 6.5625 -5.265625 C 7.394531 -4.285156 8.378906 -3.503906 9.515625 -2.921875 C 10.660156 -2.347656 11.929688 -2.0625 13.328125 -2.0625 C 14.742188 -2.0625 16.03125 -2.367188 17.1875 -2.984375 C 18.351562 -3.597656 19.335938 -4.398438 20.140625 -5.390625 C 20.953125 -6.390625 21.578125 -7.515625 22.015625 -8.765625 C 22.453125 -10.023438 22.671875 -11.304688 22.671875 -12.609375 C 22.671875 -13.984375 22.4375 -15.300781 21.96875 -16.5625 C 21.507812 -17.832031 20.863281 -18.953125 20.03125 -19.921875 C 19.207031 -20.898438 18.226562 -21.675781 17.09375 -22.25 C 15.957031 -22.832031 14.703125 -23.125 13.328125 -23.125 C 11.898438 -23.125 10.601562 -22.820312 9.4375 -22.21875 C 8.28125 -21.613281 7.300781 -20.8125 6.5 -19.8125 C 5.695312 -18.820312 5.078125 -17.695312 4.640625 -16.4375 C 4.203125 -15.1875 3.984375 -13.910156 3.984375 -12.609375 Z M 3.984375 -12.609375 "/></g></g></g><g fill="#cb6ce6" fill-opacity="1"><g transform="translate(425.33294, 64.886082)"><g><path d="M 5.65625 -20.609375 L 5.65625 0 L 3.15625 0 L 3.15625 -25.234375 L 5.078125 -25.234375 L 21.78125 -4.234375 L 21.78125 -25.1875 L 24.265625 -25.1875 L 24.265625 0 L 22.09375 0 Z M 5.65625 -20.609375 "/></g></g></g><g clip-path="url(#266fca9526)"><path fill="#cb6ce6" d="M 175.109375 77.9375 L 390.941406 77.9375 L 390.941406 83.28125 L 175.109375 83.28125 Z M 175.109375 77.9375 " fill-opacity="1" fill-rule="nonzero"/></g><g clip-path="url(#4fac3bed88)"><path fill="#cb6ce6" d="M 174.796875 19.859375 L 390.941406 19.859375 L 390.941406 25.203125 L 174.796875 25.203125 Z M 174.796875 19.859375 " fill-opacity="1" fill-rule="nonzero"/></g><g fill="#000000" fill-opacity="1"><g transform="translate(205.306778, 94.94407)"><g><path d="M 2.5625 -0.25 C 3.21875 -0.25 3.75 -0.425781 4.15625 -0.78125 C 4.5625 -1.144531 4.765625 -1.691406 4.765625 -2.421875 C 4.765625 -3.148438 4.535156 -3.726562 4.078125 -4.15625 C 3.617188 -4.582031 3.054688 -4.796875 2.390625 -4.796875 C 1.960938 -4.796875 1.59375 -4.785156 1.28125 -4.765625 L 1.28125 -0.296875 C 1.582031 -0.265625 2.007812 -0.25 2.5625 -0.25 Z M 2.390625 -5.109375 C 3.171875 -5.109375 3.820312 -4.863281 4.34375 -4.375 C 4.863281 -3.894531 5.125 -3.238281 5.125 -2.40625 C 5.125 -1.988281 5.054688 -1.617188 4.921875 -1.296875 C 4.796875 -0.972656 4.613281 -0.71875 4.375 -0.53125 C 3.882812 -0.132812 3.28125 0.0625 2.5625 0.0625 C 2.082031 0.0625 1.539062 0.0351562 0.9375 -0.015625 L 0.9375 -5.0625 C 1.414062 -5.09375 1.898438 -5.109375 2.390625 -5.109375 Z M 2.390625 -5.109375 "/></g></g></g><g fill="#000000" fill-opacity="1"><g transform="translate(211.067753, 94.94407)"><g><path d="M 0.84375 0 L 0.84375 -4.59375 L 3 -4.59375 L 3 -4.3125 L 1.171875 -4.3125 L 1.171875 -2.640625 L 2.8125 -2.640625 L 2.8125 -2.359375 L 1.171875 -2.359375 L 1.171875 -0.296875 L 3.0625 -0.296875 L 3.0625 0 Z M 0.84375 0 "/></g></g></g><g fill="#000000" fill-opacity="1"><g transform="translate(214.580884, 94.94407)"><g><path d="M 2.34375 -0.96875 L 3.890625 -4.59375 L 4.21875 -4.59375 L 2.25 0.03125 L 2.0625 0.03125 L 0.078125 -4.59375 L 0.4375 -4.59375 L 2.171875 -0.515625 C 2.191406 -0.578125 2.25 -0.726562 2.34375 -0.96875 Z M 2.34375 -0.96875 "/></g></g></g><g fill="#000000" fill-opacity="1"><g transform="translate(218.885708, 94.94407)"><g><path d="M 0.84375 0 L 0.84375 -4.59375 L 3 -4.59375 L 3 -4.3125 L 1.171875 -4.3125 L 1.171875 -2.640625 L 2.8125 -2.640625 L 2.8125 -2.359375 L 1.171875 -2.359375 L 1.171875 -0.296875 L 3.0625 -0.296875 L 3.0625 0 Z M 0.84375 0 "/></g></g></g><g fill="#000000" fill-opacity="1"><g transform="translate(222.398839, 94.94407)"><g><path d="M 0.84375 0 L 0.84375 -4.59375 L 1.171875 -4.59375 L 1.171875 -0.296875 L 3.28125 -0.296875 L 3.28125 0 Z M 0.84375 0 "/></g></g></g><g fill="#000000" fill-opacity="1"><g transform="translate(225.791805, 94.94407)"><g><path d="M 2.875 0.078125 C 2.21875 0.078125 1.664062 -0.148438 1.21875 -0.609375 C 0.78125 -1.066406 0.5625 -1.628906 0.5625 -2.296875 C 0.5625 -2.960938 0.78125 -3.523438 1.21875 -3.984375 C 1.664062 -4.441406 2.21875 -4.671875 2.875 -4.671875 C 3.53125 -4.671875 4.082031 -4.441406 4.53125 -3.984375 C 4.976562 -3.523438 5.203125 -2.960938 5.203125 -2.296875 C 5.203125 -1.628906 4.976562 -1.066406 4.53125 -0.609375 C 4.082031 -0.148438 3.53125 0.078125 2.875 0.078125 Z M 2.875 -4.375 C 2.3125 -4.375 1.84375 -4.171875 1.46875 -3.765625 C 1.09375 -3.367188 0.90625 -2.878906 0.90625 -2.296875 C 0.90625 -1.710938 1.09375 -1.21875 1.46875 -0.8125 C 1.84375 -0.414062 2.3125 -0.21875 2.875 -0.21875 C 3.445312 -0.21875 3.921875 -0.414062 4.296875 -0.8125 C 4.671875 -1.21875 4.859375 -1.710938 4.859375 -2.296875 C 4.859375 -2.878906 4.671875 -3.367188 4.296875 -3.765625 C 3.921875 -4.171875 3.445312 -4.375 2.875 -4.375 Z M 2.875 -4.375 "/></g></g></g><g fill="#000000" fill-opacity="1"><g transform="translate(231.545709, 94.94407)"><g><path d="M 0.84375 0 L 0.84375 -4.5625 C 1.195312 -4.601562 1.570312 -4.625 1.96875 -4.625 C 2.363281 -4.625 2.695312 -4.515625 2.96875 -4.296875 C 3.25 -4.085938 3.390625 -3.769531 3.390625 -3.34375 C 3.390625 -2.925781 3.203125 -2.582031 2.828125 -2.3125 C 2.453125 -2.039062 2.007812 -1.90625 1.5 -1.90625 C 1.476562 -1.90625 1.453125 -1.90625 1.421875 -1.90625 L 1.421875 -2.125 C 1.441406 -2.125 1.457031 -2.125 1.46875 -2.125 C 1.894531 -2.125 2.257812 -2.234375 2.5625 -2.453125 C 2.875 -2.679688 3.03125 -2.972656 3.03125 -3.328125 C 3.03125 -3.679688 2.921875 -3.9375 2.703125 -4.09375 C 2.484375 -4.257812 2.195312 -4.34375 1.84375 -4.34375 C 1.65625 -4.34375 1.429688 -4.332031 1.171875 -4.3125 L 1.171875 0 Z M 0.84375 0 "/></g></g></g><g fill="#000000" fill-opacity="1"><g transform="translate(235.277971, 94.94407)"><g><path d="M 0.84375 0 L 0.84375 -4.59375 L 3 -4.59375 L 3 -4.3125 L 1.171875 -4.3125 L 1.171875 -2.640625 L 2.8125 -2.640625 L 2.8125 -2.359375 L 1.171875 -2.359375 L 1.171875 -0.296875 L 3.0625 -0.296875 L 3.0625 0 Z M 0.84375 0 "/></g></g></g><g fill="#000000" fill-opacity="1"><g transform="translate(238.791102, 94.94407)"><g><path d="M 2.328125 -0.234375 C 2.929688 -0.234375 3.414062 -0.394531 3.78125 -0.71875 C 4.144531 -1.050781 4.328125 -1.546875 4.328125 -2.203125 C 4.328125 -2.859375 4.117188 -3.378906 3.703125 -3.765625 C 3.296875 -4.148438 2.789062 -4.34375 2.1875 -4.34375 C 1.75 -4.34375 1.414062 -4.332031 1.1875 -4.3125 L 1.1875 -0.296875 C 1.46875 -0.253906 1.847656 -0.234375 2.328125 -0.234375 Z M 2.1875 -4.640625 C 2.882812 -4.640625 3.472656 -4.421875 3.953125 -3.984375 C 4.429688 -3.546875 4.671875 -2.953125 4.671875 -2.203125 C 4.671875 -1.453125 4.453125 -0.882812 4.015625 -0.5 C 3.578125 -0.125 3.015625 0.0625 2.328125 0.0625 C 1.847656 0.0625 1.351562 0.0351562 0.84375 -0.015625 L 0.84375 -4.59375 C 1.226562 -4.625 1.675781 -4.640625 2.1875 -4.640625 Z M 2.1875 -4.640625 "/></g></g></g><g fill="#000000" fill-opacity="1"><g transform="translate(244.014855, 94.94407)"><g/></g></g><g fill="#000000" fill-opacity="1"><g transform="translate(246.559581, 94.94407)"><g><path d="M 0.84375 -4.578125 C 1.175781 -4.597656 1.519531 -4.609375 1.875 -4.609375 C 2.226562 -4.609375 2.53125 -4.523438 2.78125 -4.359375 C 3.03125 -4.191406 3.15625 -3.941406 3.15625 -3.609375 C 3.15625 -3.367188 3.085938 -3.144531 2.953125 -2.9375 C 2.828125 -2.726562 2.671875 -2.570312 2.484375 -2.46875 C 2.785156 -2.375 3.035156 -2.210938 3.234375 -1.984375 C 3.441406 -1.753906 3.546875 -1.492188 3.546875 -1.203125 C 3.546875 -0.796875 3.414062 -0.488281 3.15625 -0.28125 C 2.90625 -0.0703125 2.546875 0.03125 2.078125 0.03125 C 1.609375 0.03125 1.195312 0.015625 0.84375 -0.015625 Z M 1.484375 -2.328125 L 1.171875 -2.3125 L 1.171875 -0.28125 C 1.367188 -0.257812 1.695312 -0.25 2.15625 -0.25 C 2.457031 -0.25 2.707031 -0.332031 2.90625 -0.5 C 3.113281 -0.675781 3.21875 -0.894531 3.21875 -1.15625 C 3.21875 -1.425781 3.113281 -1.65625 2.90625 -1.84375 C 2.707031 -2.039062 2.445312 -2.179688 2.125 -2.265625 C 1.957031 -2.304688 1.742188 -2.328125 1.484375 -2.328125 Z M 2.84375 -3.625 C 2.84375 -3.851562 2.742188 -4.03125 2.546875 -4.15625 C 2.359375 -4.28125 2.128906 -4.34375 1.859375 -4.34375 C 1.585938 -4.34375 1.359375 -4.335938 1.171875 -4.328125 L 1.171875 -2.59375 C 1.578125 -2.59375 1.90625 -2.582031 2.15625 -2.5625 C 2.332031 -2.65625 2.488281 -2.796875 2.625 -2.984375 C 2.769531 -3.179688 2.84375 -3.394531 2.84375 -3.625 Z M 2.84375 -3.625 "/></g></g></g><g fill="#000000" fill-opacity="1"><g transform="translate(250.602864, 94.94407)"><g><path d="M 2.140625 0 L 1.8125 0 L 1.8125 -1.640625 L 0.078125 -4.59375 L 0.46875 -4.59375 L 1.8125 -2.3125 C 1.914062 -2.101562 1.972656 -1.992188 1.984375 -1.984375 C 2.015625 -2.046875 2.078125 -2.15625 2.171875 -2.3125 L 3.5 -4.59375 L 3.875 -4.59375 L 2.140625 -1.625 Z M 2.140625 0 "/></g></g></g><g fill="#000000" fill-opacity="1"><g transform="translate(254.554256, 94.94407)"><g/></g></g><g fill="#000000" fill-opacity="1"><g transform="translate(257.098982, 94.94407)"><g><path d="M 3.109375 -4.828125 C 2.492188 -4.828125 1.988281 -4.601562 1.59375 -4.15625 C 1.195312 -3.71875 1 -3.175781 1 -2.53125 C 1 -1.894531 1.21875 -1.347656 1.65625 -0.890625 C 2.101562 -0.441406 2.648438 -0.21875 3.296875 -0.21875 C 3.835938 -0.21875 4.289062 -0.296875 4.65625 -0.453125 L 4.65625 -2.53125 L 5 -2.53125 L 5 -0.296875 C 4.582031 -0.046875 4.003906 0.078125 3.265625 0.078125 C 2.535156 0.078125 1.914062 -0.171875 1.40625 -0.671875 C 0.894531 -1.179688 0.640625 -1.800781 0.640625 -2.53125 C 0.640625 -3.269531 0.867188 -3.890625 1.328125 -4.390625 C 1.796875 -4.890625 2.390625 -5.140625 3.109375 -5.140625 C 3.671875 -5.140625 4.242188 -5.046875 4.828125 -4.859375 L 4.734375 -4.578125 C 4.171875 -4.742188 3.628906 -4.828125 3.109375 -4.828125 Z M 3.109375 -4.828125 "/></g></g></g><g fill="#000000" fill-opacity="1"><g transform="translate(262.909437, 94.94407)"><g><path d="M 2.875 0.078125 C 2.21875 0.078125 1.664062 -0.148438 1.21875 -0.609375 C 0.78125 -1.066406 0.5625 -1.628906 0.5625 -2.296875 C 0.5625 -2.960938 0.78125 -3.523438 1.21875 -3.984375 C 1.664062 -4.441406 2.21875 -4.671875 2.875 -4.671875 C 3.53125 -4.671875 4.082031 -4.441406 4.53125 -3.984375 C 4.976562 -3.523438 5.203125 -2.960938 5.203125 -2.296875 C 5.203125 -1.628906 4.976562 -1.066406 4.53125 -0.609375 C 4.082031 -0.148438 3.53125 0.078125 2.875 0.078125 Z M 2.875 -4.375 C 2.3125 -4.375 1.84375 -4.171875 1.46875 -3.765625 C 1.09375 -3.367188 0.90625 -2.878906 0.90625 -2.296875 C 0.90625 -1.710938 1.09375 -1.21875 1.46875 -0.8125 C 1.84375 -0.414062 2.3125 -0.21875 2.875 -0.21875 C 3.445312 -0.21875 3.921875 -0.414062 4.296875 -0.8125 C 4.671875 -1.21875 4.859375 -1.710938 4.859375 -2.296875 C 4.859375 -2.878906 4.671875 -3.367188 4.296875 -3.765625 C 3.921875 -4.171875 3.445312 -4.375 2.875 -4.375 Z M 2.875 -4.375 "/></g></g></g><g fill="#000000" fill-opacity="1"><g transform="translate(268.66334, 94.94407)"><g><path d="M 2.34375 -0.96875 L 3.890625 -4.59375 L 4.21875 -4.59375 L 2.25 0.03125 L 2.0625 0.03125 L 0.078125 -4.59375 L 0.4375 -4.59375 L 2.171875 -0.515625 C 2.191406 -0.578125 2.25 -0.726562 2.34375 -0.96875 Z M 2.34375 -0.96875 "/></g></g></g><g fill="#000000" fill-opacity="1"><g transform="translate(272.968167, 94.94407)"><g><path d="M 0.84375 0 L 0.84375 -4.59375 L 3 -4.59375 L 3 -4.3125 L 1.171875 -4.3125 L 1.171875 -2.640625 L 2.8125 -2.640625 L 2.8125 -2.359375 L 1.171875 -2.359375 L 1.171875 -0.296875 L 3.0625 -0.296875 L 3.0625 0 Z M 0.84375 0 "/></g></g></g><g fill="#000000" fill-opacity="1"><g transform="translate(276.481299, 94.94407)"><g><path d="M 0.84375 0 L 0.84375 -4.578125 C 1.25 -4.609375 1.59375 -4.625 1.875 -4.625 C 2.3125 -4.625 2.671875 -4.507812 2.953125 -4.28125 C 3.242188 -4.0625 3.390625 -3.742188 3.390625 -3.328125 C 3.390625 -3.046875 3.304688 -2.785156 3.140625 -2.546875 C 2.984375 -2.316406 2.800781 -2.128906 2.59375 -1.984375 C 3.15625 -1.234375 3.503906 -0.785156 3.640625 -0.640625 C 3.910156 -0.359375 4.203125 -0.203125 4.515625 -0.171875 L 4.515625 0.046875 C 4.242188 0.046875 4.023438 0.0078125 3.859375 -0.0625 C 3.691406 -0.132812 3.523438 -0.257812 3.359375 -0.4375 C 3.203125 -0.613281 2.847656 -1.082031 2.296875 -1.84375 C 1.921875 -1.84375 1.546875 -1.851562 1.171875 -1.875 L 1.171875 0 Z M 2.125 -2.109375 C 2.3125 -2.109375 2.507812 -2.234375 2.71875 -2.484375 C 2.925781 -2.734375 3.03125 -3.019531 3.03125 -3.34375 C 3.03125 -3.664062 2.921875 -3.910156 2.703125 -4.078125 C 2.484375 -4.253906 2.195312 -4.34375 1.84375 -4.34375 C 1.65625 -4.34375 1.429688 -4.332031 1.171875 -4.3125 L 1.171875 -2.15625 C 1.515625 -2.125 1.832031 -2.109375 2.125 -2.109375 Z M 2.125 -2.109375 "/></g></g></g><g fill="#000000" fill-opacity="1"><g transform="translate(280.779055, 94.94407)"><g><path d="M 0.84375 0 L 0.84375 -4.625 L 1 -4.625 L 4.015625 -1.15625 C 4.128906 -1.03125 4.226562 -0.90625 4.3125 -0.78125 C 4.40625 -0.664062 4.457031 -0.609375 4.46875 -0.609375 C 4.457031 -0.710938 4.453125 -0.929688 4.453125 -1.265625 L 4.453125 -4.59375 L 4.78125 -4.59375 L 4.78125 0.03125 L 4.625 0.03125 L 1.546875 -3.5 L 1.15625 -3.96875 C 1.164062 -3.875 1.171875 -3.65625 1.171875 -3.3125 L 1.171875 0 Z M 0.84375 0 "/></g></g></g><g fill="#000000" fill-opacity="1"><g transform="translate(286.398658, 94.94407)"><g><path d="M 2.984375 -0.234375 L 2.78125 -0.234375 L 1.453125 -3.484375 C 1.390625 -3.617188 1.332031 -3.769531 1.28125 -3.9375 C 1.28125 -3.925781 1.273438 -3.894531 1.265625 -3.84375 C 1.265625 -3.800781 1.257812 -3.738281 1.25 -3.65625 C 1.238281 -3.582031 1.226562 -3.519531 1.21875 -3.46875 L 0.6875 0 L 0.375 0 L 1.125 -4.625 L 1.3125 -4.625 L 2.734375 -1.234375 C 2.847656 -0.953125 2.90625 -0.800781 2.90625 -0.78125 C 2.9375 -0.882812 3 -1.03125 3.09375 -1.21875 L 4.6875 -4.625 L 4.890625 -4.625 L 5.578125 0 L 5.25 0 L 4.75 -3.484375 C 4.707031 -3.722656 4.6875 -3.878906 4.6875 -3.953125 L 4.484375 -3.484375 Z M 2.984375 -0.234375 "/></g></g></g><g fill="#000000" fill-opacity="1"><g transform="translate(292.343414, 94.94407)"><g><path d="M 0.84375 0 L 0.84375 -4.59375 L 3 -4.59375 L 3 -4.3125 L 1.171875 -4.3125 L 1.171875 -2.640625 L 2.8125 -2.640625 L 2.8125 -2.359375 L 1.171875 -2.359375 L 1.171875 -0.296875 L 3.0625 -0.296875 L 3.0625 0 Z M 0.84375 0 "/></g></g></g><g fill="#000000" fill-opacity="1"><g transform="translate(295.856545, 94.94407)"><g><path d="M 0.84375 0 L 0.84375 -4.625 L 1 -4.625 L 4.015625 -1.15625 C 4.128906 -1.03125 4.226562 -0.90625 4.3125 -0.78125 C 4.40625 -0.664062 4.457031 -0.609375 4.46875 -0.609375 C 4.457031 -0.710938 4.453125 -0.929688 4.453125 -1.265625 L 4.453125 -4.59375 L 4.78125 -4.59375 L 4.78125 0.03125 L 4.625 0.03125 L 1.546875 -3.5 L 1.15625 -3.96875 C 1.164062 -3.875 1.171875 -3.65625 1.171875 -3.3125 L 1.171875 0 Z M 0.84375 0 "/></g></g></g><g fill="#000000" fill-opacity="1"><g transform="translate(301.476142, 94.94407)"><g><path d="M 1.671875 -4.296875 L 0.109375 -4.296875 L 0.109375 -4.59375 L 3.546875 -4.59375 L 3.546875 -4.296875 L 1.984375 -4.296875 L 1.984375 0 L 1.671875 0 Z M 1.671875 -4.296875 "/></g></g></g><g fill="#000000" fill-opacity="1"><g transform="translate(305.130651, 94.94407)"><g/></g></g><g fill="#000000" fill-opacity="1"><g transform="translate(307.675377, 94.94407)"><g><path d="M 0.84375 0 L 0.84375 -4.59375 L 1.171875 -4.59375 L 1.171875 0 Z M 0.84375 0 "/></g></g></g><g fill="#000000" fill-opacity="1"><g transform="translate(309.697015, 94.94407)"><g><path d="M 0.84375 0 L 0.84375 -4.625 L 1 -4.625 L 4.015625 -1.15625 C 4.128906 -1.03125 4.226562 -0.90625 4.3125 -0.78125 C 4.40625 -0.664062 4.457031 -0.609375 4.46875 -0.609375 C 4.457031 -0.710938 4.453125 -0.929688 4.453125 -1.265625 L 4.453125 -4.59375 L 4.78125 -4.59375 L 4.78125 0.03125 L 4.625 0.03125 L 1.546875 -3.5 L 1.15625 -3.96875 C 1.164062 -3.875 1.171875 -3.65625 1.171875 -3.3125 L 1.171875 0 Z M 0.84375 0 "/></g></g></g><g fill="#000000" fill-opacity="1"><g transform="translate(315.316618, 94.94407)"><g><path d="M 0.84375 0 L 0.84375 -4.625 L 1 -4.625 L 4.015625 -1.15625 C 4.128906 -1.03125 4.226562 -0.90625 4.3125 -0.78125 C 4.40625 -0.664062 4.457031 -0.609375 4.46875 -0.609375 C 4.457031 -0.710938 4.453125 -0.929688 4.453125 -1.265625 L 4.453125 -4.59375 L 4.78125 -4.59375 L 4.78125 0.03125 L 4.625 0.03125 L 1.546875 -3.5 L 1.15625 -3.96875 C 1.164062 -3.875 1.171875 -3.65625 1.171875 -3.3125 L 1.171875 0 Z M 0.84375 0 "/></g></g></g><g fill="#000000" fill-opacity="1"><g transform="translate(320.936221, 94.94407)"><g><path d="M 2.875 0.078125 C 2.21875 0.078125 1.664062 -0.148438 1.21875 -0.609375 C 0.78125 -1.066406 0.5625 -1.628906 0.5625 -2.296875 C 0.5625 -2.960938 0.78125 -3.523438 1.21875 -3.984375 C 1.664062 -4.441406 2.21875 -4.671875 2.875 -4.671875 C 3.53125 -4.671875 4.082031 -4.441406 4.53125 -3.984375 C 4.976562 -3.523438 5.203125 -2.960938 5.203125 -2.296875 C 5.203125 -1.628906 4.976562 -1.066406 4.53125 -0.609375 C 4.082031 -0.148438 3.53125 0.078125 2.875 0.078125 Z M 2.875 -4.375 C 2.3125 -4.375 1.84375 -4.171875 1.46875 -3.765625 C 1.09375 -3.367188 0.90625 -2.878906 0.90625 -2.296875 C 0.90625 -1.710938 1.09375 -1.21875 1.46875 -0.8125 C 1.84375 -0.414062 2.3125 -0.21875 2.875 -0.21875 C 3.445312 -0.21875 3.921875 -0.414062 4.296875 -0.8125 C 4.671875 -1.21875 4.859375 -1.710938 4.859375 -2.296875 C 4.859375 -2.878906 4.671875 -3.367188 4.296875 -3.765625 C 3.921875 -4.171875 3.445312 -4.375 2.875 -4.375 Z M 2.875 -4.375 "/></g></g></g><g fill="#000000" fill-opacity="1"><g transform="translate(326.690132, 94.94407)"><g><path d="M 2.34375 -0.96875 L 3.890625 -4.59375 L 4.21875 -4.59375 L 2.25 0.03125 L 2.0625 0.03125 L 0.078125 -4.59375 L 0.4375 -4.59375 L 2.171875 -0.515625 C 2.191406 -0.578125 2.25 -0.726562 2.34375 -0.96875 Z M 2.34375 -0.96875 "/></g></g></g><g fill="#000000" fill-opacity="1"><g transform="translate(330.994959, 94.94407)"><g><path d="M 1.078125 -1.59375 L 0.421875 0 L 0.078125 0 L 2.015625 -4.625 L 2.203125 -4.625 L 4.140625 0 L 3.78125 0 L 3.109375 -1.59375 Z M 2.09375 -4.09375 C 2.019531 -3.882812 1.953125 -3.707031 1.890625 -3.5625 L 1.1875 -1.875 L 3 -1.875 L 2.296875 -3.5625 C 2.191406 -3.820312 2.125 -4 2.09375 -4.09375 Z M 2.09375 -4.09375 "/></g></g></g><g fill="#000000" fill-opacity="1"><g transform="translate(335.214966, 94.94407)"><g><path d="M 1.671875 -4.296875 L 0.109375 -4.296875 L 0.109375 -4.59375 L 3.546875 -4.59375 L 3.546875 -4.296875 L 1.984375 -4.296875 L 1.984375 0 L 1.671875 0 Z M 1.671875 -4.296875 "/></g></g></g><g fill="#000000" fill-opacity="1"><g transform="translate(338.869475, 94.94407)"><g><path d="M 0.84375 0 L 0.84375 -4.59375 L 1.171875 -4.59375 L 1.171875 0 Z M 0.84375 0 "/></g></g></g><g fill="#000000" fill-opacity="1"><g transform="translate(340.89112, 94.94407)"><g><path d="M 2.875 0.078125 C 2.21875 0.078125 1.664062 -0.148438 1.21875 -0.609375 C 0.78125 -1.066406 0.5625 -1.628906 0.5625 -2.296875 C 0.5625 -2.960938 0.78125 -3.523438 1.21875 -3.984375 C 1.664062 -4.441406 2.21875 -4.671875 2.875 -4.671875 C 3.53125 -4.671875 4.082031 -4.441406 4.53125 -3.984375 C 4.976562 -3.523438 5.203125 -2.960938 5.203125 -2.296875 C 5.203125 -1.628906 4.976562 -1.066406 4.53125 -0.609375 C 4.082031 -0.148438 3.53125 0.078125 2.875 0.078125 Z M 2.875 -4.375 C 2.3125 -4.375 1.84375 -4.171875 1.46875 -3.765625 C 1.09375 -3.367188 0.90625 -2.878906 0.90625 -2.296875 C 0.90625 -1.710938 1.09375 -1.21875 1.46875 -0.8125 C 1.84375 -0.414062 2.3125 -0.21875 2.875 -0.21875 C 3.445312 -0.21875 3.921875 -0.414062 4.296875 -0.8125 C 4.671875 -1.21875 4.859375 -1.710938 4.859375 -2.296875 C 4.859375 -2.878906 4.671875 -3.367188 4.296875 -3.765625 C 3.921875 -4.171875 3.445312 -4.375 2.875 -4.375 Z M 2.875 -4.375 "/></g></g></g><g fill="#000000" fill-opacity="1"><g transform="translate(346.645017, 94.94407)"><g><path d="M 0.84375 0 L 0.84375 -4.625 L 1 -4.625 L 4.015625 -1.15625 C 4.128906 -1.03125 4.226562 -0.90625 4.3125 -0.78125 C 4.40625 -0.664062 4.457031 -0.609375 4.46875 -0.609375 C 4.457031 -0.710938 4.453125 -0.929688 4.453125 -1.265625 L 4.453125 -4.59375 L 4.78125 -4.59375 L 4.78125 0.03125 L 4.625 0.03125 L 1.546875 -3.5 L 1.15625 -3.96875 C 1.164062 -3.875 1.171875 -3.65625 1.171875 -3.3125 L 1.171875 0 Z M 0.84375 0 "/></g></g></g><g fill="#000000" fill-opacity="1"><g transform="translate(352.26462, 94.94407)"><g/></g></g><g fill="#000000" fill-opacity="1"><g transform="translate(354.809339, 94.94407)"><g><path d="M 0.84375 0 L 0.84375 -4.59375 L 1.171875 -4.59375 L 1.171875 -0.296875 L 3.28125 -0.296875 L 3.28125 0 Z M 0.84375 0 "/></g></g></g><g fill="#000000" fill-opacity="1"><g transform="translate(358.202298, 94.94407)"><g><path d="M 1.078125 -1.59375 L 0.421875 0 L 0.078125 0 L 2.015625 -4.625 L 2.203125 -4.625 L 4.140625 0 L 3.78125 0 L 3.109375 -1.59375 Z M 2.09375 -4.09375 C 2.019531 -3.882812 1.953125 -3.707031 1.890625 -3.5625 L 1.1875 -1.875 L 3 -1.875 L 2.296875 -3.5625 C 2.191406 -3.820312 2.125 -4 2.09375 -4.09375 Z M 2.09375 -4.09375 "/></g></g></g><g fill="#000000" fill-opacity="1"><g transform="translate(362.422305, 94.94407)"><g><path d="M 0.84375 -4.578125 C 1.175781 -4.597656 1.519531 -4.609375 1.875 -4.609375 C 2.226562 -4.609375 2.53125 -4.523438 2.78125 -4.359375 C 3.03125 -4.191406 3.15625 -3.941406 3.15625 -3.609375 C 3.15625 -3.367188 3.085938 -3.144531 2.953125 -2.9375 C 2.828125 -2.726562 2.671875 -2.570312 2.484375 -2.46875 C 2.785156 -2.375 3.035156 -2.210938 3.234375 -1.984375 C 3.441406 -1.753906 3.546875 -1.492188 3.546875 -1.203125 C 3.546875 -0.796875 3.414062 -0.488281 3.15625 -0.28125 C 2.90625 -0.0703125 2.546875 0.03125 2.078125 0.03125 C 1.609375 0.03125 1.195312 0.015625 0.84375 -0.015625 Z M 1.484375 -2.328125 L 1.171875 -2.3125 L 1.171875 -0.28125 C 1.367188 -0.257812 1.695312 -0.25 2.15625 -0.25 C 2.457031 -0.25 2.707031 -0.332031 2.90625 -0.5 C 3.113281 -0.675781 3.21875 -0.894531 3.21875 -1.15625 C 3.21875 -1.425781 3.113281 -1.65625 2.90625 -1.84375 C 2.707031 -2.039062 2.445312 -2.179688 2.125 -2.265625 C 1.957031 -2.304688 1.742188 -2.328125 1.484375 -2.328125 Z M 2.84375 -3.625 C 2.84375 -3.851562 2.742188 -4.03125 2.546875 -4.15625 C 2.359375 -4.28125 2.128906 -4.34375 1.859375 -4.34375 C 1.585938 -4.34375 1.359375 -4.335938 1.171875 -4.328125 L 1.171875 -2.59375 C 1.578125 -2.59375 1.90625 -2.582031 2.15625 -2.5625 C 2.332031 -2.65625 2.488281 -2.796875 2.625 -2.984375 C 2.769531 -3.179688 2.84375 -3.394531 2.84375 -3.625 Z M 2.84375 -3.625 "/></g></g></g><g fill="#000000" fill-opacity="1"><g transform="translate(366.465971, 94.94407)"><g/></g></g><g clip-path="url(#ff78460c16)"><path fill="#000000" d="M 177.046875 91.167969 L 200.957031 91.167969 L 200.957031 94.546875 L 177.046875 94.546875 Z M 177.046875 91.167969 " fill-opacity="1" fill-rule="nonzero"/></g><g clip-path="url(#f738efe2ec)"><path fill="#000000" d="M 371.144531 91.167969 L 395.050781 91.167969 L 395.050781 94.546875 L 371.144531 94.546875 Z M 371.144531 91.167969 " fill-opacity="1" fill-rule="nonzero"/></g><path fill="#cb6ce6" d="M 57.902344 75.671875 L 57.109375 75.671875 C 49.136719 75.671875 42.628906 69.160156 42.628906 61.191406 L 42.628906 52.488281 C 42.628906 48.898438 45.671875 45.367188 49.320312 46.039062 C 62.585938 48.289062 64.046875 41.351562 65.8125 43.785156 C 69.035156 48.167969 72.324219 46.890625 72.324219 48.898438 L 72.324219 61.25 C 72.324219 69.160156 65.871094 75.671875 57.902344 75.671875 Z M 48.46875 48.351562 C 46.523438 48.351562 45.0625 50.601562 45.0625 52.488281 L 45.0625 61.191406 C 45.0625 67.824219 50.476562 73.238281 57.109375 73.238281 L 57.902344 73.238281 C 64.535156 73.238281 69.890625 67.824219 69.890625 61.191406 L 69.890625 49.75 C 67.757812 48.957031 65.996094 47.742188 64.59375 46.160156 C 59.238281 49.566406 53.640625 49.261719 48.894531 48.410156 C 48.773438 48.410156 48.589844 48.351562 48.46875 48.351562 Z M 48.46875 48.351562 " fill-opacity="1" fill-rule="evenodd"/><path fill="#cb6ce6" d="M 75.367188 55.289062 C 74.695312 55.289062 74.148438 54.738281 74.148438 54.070312 L 74.148438 44.761719 C 74.027344 40.074219 70.375 38.734375 67.089844 36.484375 C 63.804688 34.234375 61.371094 32.527344 57.597656 32.527344 C 48.347656 32.527344 40.863281 40.015625 40.863281 49.261719 L 40.863281 54.070312 C 40.863281 55.652344 38.429688 55.652344 38.429688 54.070312 L 38.429688 49.261719 C 38.429688 38.613281 46.949219 30.09375 57.960938 30.09375 C 63.558594 30.09375 67.394531 34.050781 71.714844 36.605469 C 74.636719 38.25 76.339844 41.171875 76.582031 44.699219 L 76.582031 54.070312 C 76.582031 54.738281 76.035156 55.289062 75.367188 55.289062 Z M 75.367188 55.289062 " fill-opacity="1" fill-rule="evenodd"/><path fill="#cb6ce6" d="M 73.601562 62.285156 C 69.035156 62.285156 69.890625 63.257812 69.890625 53.28125 C 69.890625 51.695312 71.957031 52.0625 73.601562 52.0625 C 75.609375 52.0625 77.25 53.707031 77.25 55.773438 L 77.25 58.574219 C 77.25 60.640625 75.609375 62.285156 73.601562 62.285156 Z M 72.324219 59.851562 C 75.183594 59.851562 74.816406 59.730469 74.816406 55.773438 C 74.816406 54.3125 73.234375 54.496094 72.324219 54.496094 Z M 72.324219 59.851562 " fill-opacity="1" fill-rule="evenodd"/><path fill="#cb6ce6" d="M 43.84375 62.285156 L 41.410156 62.285156 C 39.402344 62.285156 37.757812 60.640625 37.757812 58.632812 L 37.757812 55.773438 C 37.757812 53.707031 39.402344 52.0625 41.410156 52.0625 C 45.972656 52.0625 45.0625 51.089844 45.0625 61.066406 C 45.0625 61.738281 44.515625 62.285156 43.84375 62.285156 Z M 41.410156 54.496094 C 39.765625 54.496094 40.195312 56.746094 40.195312 58.574219 C 40.195312 60.035156 41.777344 59.851562 42.628906 59.851562 L 42.628906 54.496094 Z M 41.410156 54.496094 " fill-opacity="1" fill-rule="evenodd"/><g clip-path="url(#1d16fc21c9)"><path fill="#cb6ce6" d="M 87.476562 95.085938 L 73.84375 95.085938 C 72.261719 95.085938 72.261719 92.648438 73.84375 92.648438 L 87.476562 92.648438 C 92.890625 92.648438 97.273438 88.269531 97.273438 82.851562 L 97.273438 69.222656 C 97.273438 67.640625 99.707031 67.640625 99.707031 69.222656 L 99.707031 82.851562 C 99.707031 89.609375 94.230469 95.085938 87.476562 95.085938 Z M 41.105469 95.085938 L 27.535156 95.085938 C 20.78125 95.085938 15.304688 89.609375 15.304688 82.851562 L 15.304688 69.222656 C 15.304688 67.640625 17.738281 67.640625 17.738281 69.222656 L 17.738281 82.851562 C 17.738281 88.269531 22.121094 92.648438 27.535156 92.648438 L 41.105469 92.648438 C 42.75 92.648438 42.75 95.085938 41.105469 95.085938 Z M 98.488281 37.703125 C 97.820312 37.703125 97.273438 37.214844 97.273438 36.484375 L 97.273438 22.914062 C 97.273438 17.5 92.890625 13.117188 87.476562 13.117188 L 73.84375 13.117188 C 72.261719 13.117188 72.261719 10.683594 73.84375 10.683594 L 87.476562 10.683594 C 94.230469 10.683594 99.707031 16.160156 99.707031 22.914062 L 99.707031 36.484375 C 99.707031 37.214844 99.160156 37.703125 98.488281 37.703125 Z M 16.523438 37.703125 C 15.851562 37.703125 15.304688 37.214844 15.304688 36.484375 L 15.304688 22.914062 C 15.304688 16.160156 20.78125 10.683594 27.535156 10.683594 L 41.105469 10.683594 C 42.75 10.683594 42.75 13.117188 41.105469 13.117188 L 27.535156 13.117188 C 22.121094 13.117188 17.738281 17.5 17.738281 22.914062 L 17.738281 36.484375 C 17.738281 37.214844 17.191406 37.703125 16.523438 37.703125 Z M 16.523438 37.703125 " fill-opacity="1" fill-rule="evenodd"/></g><path fill="#cb6ce6" d="M 85.464844 83.15625 L 29.542969 83.15625 C 28.875 83.15625 28.328125 82.609375 28.328125 81.941406 L 28.328125 23.765625 C 28.328125 23.097656 28.875 22.550781 29.542969 22.550781 L 85.464844 22.550781 C 86.136719 22.550781 86.683594 23.097656 86.683594 23.765625 L 86.683594 81.941406 C 86.683594 82.609375 86.136719 83.15625 85.464844 83.15625 Z M 30.761719 80.722656 L 84.25 80.722656 L 84.25 24.984375 L 30.761719 24.984375 Z M 30.761719 80.722656 " fill-opacity="1" fill-rule="evenodd"/><g clip-path="url(#fdb3aa75e5)"><path fill="#cb6ce6" d="M 108.164062 54.070312 L 6.785156 54.070312 C 5.203125 54.070312 5.203125 51.636719 6.785156 51.636719 L 108.164062 51.636719 C 109.808594 51.636719 109.808594 54.070312 108.164062 54.070312 Z M 108.164062 54.070312 " fill-opacity="1" fill-rule="evenodd"/></g></svg>