<svg xmlns="http://www.w3.org/2000/svg" xmlns:xlink="http://www.w3.org/1999/xlink" width="1000" zoomAndPan="magnify" viewBox="0 0 750 149.999998" height="200" preserveAspectRatio="xMidYMid meet" version="1.0"><defs><g/><clipPath id="84f2ac64b3"><path d="M 283.574219 113.664062 L 645.554688 113.664062 L 645.554688 122.628906 L 283.574219 122.628906 Z M 283.574219 113.664062 " clip-rule="nonzero"/></clipPath><clipPath id="f19bd6e65b"><path d="M 283.050781 16.257812 L 645.554688 16.257812 L 645.554688 25.226562 L 283.050781 25.226562 Z M 283.050781 16.257812 " clip-rule="nonzero"/></clipPath><clipPath id="b7535dadc6"><path d="M 319.164062 134.136719 L 320.40625 134.136719 L 320.40625 139.804688 L 319.164062 139.804688 Z M 301.980469 134.136719 L 303.222656 134.136719 L 303.222656 139.804688 L 301.980469 139.804688 Z M 307.707031 134.136719 L 308.949219 134.136719 L 308.949219 139.804688 L 307.707031 139.804688 Z M 304.84375 134.136719 L 306.085938 134.136719 L 306.085938 139.804688 L 304.84375 139.804688 Z M 290.523438 134.136719 L 291.765625 134.136719 L 291.765625 139.804688 L 290.523438 139.804688 Z M 299.117188 134.136719 L 300.355469 134.136719 L 300.355469 139.804688 L 299.117188 139.804688 Z M 293.386719 134.136719 L 294.628906 134.136719 L 294.628906 139.804688 L 293.386719 139.804688 Z M 296.25 134.136719 L 297.492188 134.136719 L 297.492188 139.804688 L 296.25 139.804688 Z M 313.4375 134.136719 L 314.679688 134.136719 L 314.679688 139.804688 L 313.4375 139.804688 Z M 322.027344 134.136719 L 323.269531 134.136719 L 323.269531 139.804688 L 322.027344 139.804688 Z M 324.890625 134.136719 L 326.132812 134.136719 L 326.132812 139.804688 L 324.890625 139.804688 Z M 327.757812 134.136719 L 329 134.136719 L 329 139.804688 L 327.757812 139.804688 Z M 316.300781 134.136719 L 317.542969 134.136719 L 317.542969 139.804688 L 316.300781 139.804688 Z M 310.570312 134.136719 L 311.8125 134.136719 L 311.8125 139.804688 L 310.570312 139.804688 Z M 310.570312 134.136719 " clip-rule="nonzero"/></clipPath><clipPath id="4aeadc7f8d"><path d="M 629.683594 135 L 630.925781 135 L 630.925781 140.667969 L 629.683594 140.667969 Z M 612.5 135 L 613.742188 135 L 613.742188 140.667969 L 612.5 140.667969 Z M 618.226562 135 L 619.46875 135 L 619.46875 140.667969 L 618.226562 140.667969 Z M 615.363281 135 L 616.605469 135 L 616.605469 140.667969 L 615.363281 140.667969 Z M 601.042969 135 L 602.285156 135 L 602.285156 140.667969 L 601.042969 140.667969 Z M 609.636719 135 L 610.878906 135 L 610.878906 140.667969 L 609.636719 140.667969 Z M 603.90625 135 L 605.148438 135 L 605.148438 140.667969 L 603.90625 140.667969 Z M 606.773438 135 L 608.015625 135 L 608.015625 140.667969 L 606.773438 140.667969 Z M 623.957031 135 L 625.199219 135 L 625.199219 140.667969 L 623.957031 140.667969 Z M 632.546875 135 L 633.789062 135 L 633.789062 140.667969 L 632.546875 140.667969 Z M 635.414062 135 L 636.65625 135 L 636.65625 140.667969 L 635.414062 140.667969 Z M 638.277344 135 L 639.519531 135 L 639.519531 140.667969 L 638.277344 140.667969 Z M 626.820312 135 L 628.0625 135 L 628.0625 140.667969 L 626.820312 140.667969 Z M 621.09375 135 L 622.335938 135 L 622.335938 140.667969 L 621.09375 140.667969 Z M 621.09375 135 " clip-rule="nonzero"/></clipPath><clipPath id="40002b7866"><path d="M 16 3.125 L 158 3.125 L 158 144.875 L 16 144.875 Z M 16 3.125 " clip-rule="nonzero"/></clipPath><clipPath id="bb64c5aed0"><path d="M 0 71 L 174.75 71 L 174.75 76 L 0 76 Z M 0 71 " clip-rule="nonzero"/></clipPath></defs><g fill="#000000" fill-opacity="0.302"><g transform="translate(181.789195, 98.527994)"><g><path d="M 4.40625 0 L 4.40625 -42.296875 L 32.828125 -42.296875 L 32.828125 -35.09375 L 12.625 -35.09375 L 12.625 -24.1875 L 29.4375 -24.1875 L 29.4375 -17.515625 L 12.625 -17.515625 L 12.625 0 Z M 4.40625 0 "/></g></g></g><g fill="#000000" fill-opacity="0.302"><g transform="translate(215.985082, 98.527994)"><g><path d="M 16.4375 -42.296875 L 23.71875 -42.296875 L 39.796875 0 L 31.34375 0 L 27.40625 -10.546875 L 12.625 -10.546875 L 8.765625 0 L 0.296875 0 Z M 25.921875 -16.328125 L 20.078125 -32.953125 L 14 -16.328125 Z M 25.921875 -16.328125 "/></g></g></g><g fill="#000000" fill-opacity="0.302"><g transform="translate(256.01931, 98.527994)"><g><path d="M 1.84375 -21.453125 C 1.84375 -24.035156 2.304688 -26.585938 3.234375 -29.109375 C 4.171875 -31.628906 5.535156 -33.878906 7.328125 -35.859375 C 9.117188 -37.847656 11.300781 -39.457031 13.875 -40.6875 C 16.457031 -41.914062 19.398438 -42.53125 22.703125 -42.53125 C 26.585938 -42.53125 29.953125 -41.675781 32.796875 -39.96875 C 35.640625 -38.269531 37.753906 -36.046875 39.140625 -33.296875 L 32.828125 -28.953125 C 32.273438 -30.148438 31.597656 -31.15625 30.796875 -31.96875 C 30.003906 -32.78125 29.148438 -33.421875 28.234375 -33.890625 C 27.328125 -34.367188 26.375 -34.71875 25.375 -34.9375 C 24.382812 -35.15625 23.414062 -35.265625 22.46875 -35.265625 C 20.394531 -35.265625 18.59375 -34.847656 17.0625 -34.015625 C 15.539062 -33.179688 14.269531 -32.097656 13.25 -30.765625 C 12.238281 -29.441406 11.472656 -27.9375 10.953125 -26.25 C 10.441406 -24.5625 10.1875 -22.878906 10.1875 -21.203125 C 10.1875 -19.335938 10.484375 -17.539062 11.078125 -15.8125 C 11.671875 -14.082031 12.515625 -12.5625 13.609375 -11.25 C 14.703125 -9.945312 16.015625 -8.894531 17.546875 -8.09375 C 19.078125 -7.300781 20.753906 -6.90625 22.578125 -6.90625 C 23.535156 -6.90625 24.53125 -7.023438 25.5625 -7.265625 C 26.59375 -7.503906 27.570312 -7.878906 28.5 -8.390625 C 29.4375 -8.910156 30.300781 -9.578125 31.09375 -10.390625 C 31.894531 -11.210938 32.53125 -12.195312 33 -13.34375 L 39.734375 -9.46875 C 39.054688 -7.882812 38.09375 -6.484375 36.84375 -5.265625 C 35.59375 -4.054688 34.179688 -3.035156 32.609375 -2.203125 C 31.046875 -1.367188 29.367188 -0.734375 27.578125 -0.296875 C 25.796875 0.140625 24.050781 0.359375 22.34375 0.359375 C 19.320312 0.359375 16.5625 -0.273438 14.0625 -1.546875 C 11.5625 -2.816406 9.40625 -4.472656 7.59375 -6.515625 C 5.789062 -8.566406 4.378906 -10.890625 3.359375 -13.484375 C 2.347656 -16.085938 1.84375 -18.742188 1.84375 -21.453125 Z M 1.84375 -21.453125 "/></g></g></g><g fill="#000000" fill-opacity="0.302"><g transform="translate(296.887571, 98.527994)"><g><path d="M 33.78125 -7.203125 L 33.78125 0 L 4.40625 0 L 4.40625 -42.296875 L 33.25 -42.296875 L 33.25 -35.09375 L 12.625 -35.09375 L 12.625 -24.90625 L 30.4375 -24.90625 L 30.4375 -18.234375 L 12.625 -18.234375 L 12.625 -7.203125 Z M 33.78125 -7.203125 "/></g></g></g><g fill="#000000" fill-opacity="0.302"><g transform="translate(332.691981, 98.527994)"><g/></g></g><g fill="#000000" fill-opacity="0.502"><g transform="translate(180.21522, 95.152577)"><g><path d="M 4.40625 0 L 4.40625 -42.296875 L 32.828125 -42.296875 L 32.828125 -35.09375 L 12.625 -35.09375 L 12.625 -24.1875 L 29.4375 -24.1875 L 29.4375 -17.515625 L 12.625 -17.515625 L 12.625 0 Z M 4.40625 0 "/></g></g></g><g fill="#000000" fill-opacity="0.502"><g transform="translate(214.411107, 95.152577)"><g><path d="M 16.4375 -42.296875 L 23.71875 -42.296875 L 39.796875 0 L 31.34375 0 L 27.40625 -10.546875 L 12.625 -10.546875 L 8.765625 0 L 0.296875 0 Z M 25.921875 -16.328125 L 20.078125 -32.953125 L 14 -16.328125 Z M 25.921875 -16.328125 "/></g></g></g><g fill="#000000" fill-opacity="0.502"><g transform="translate(254.445335, 95.152577)"><g><path d="M 1.84375 -21.453125 C 1.84375 -24.035156 2.304688 -26.585938 3.234375 -29.109375 C 4.171875 -31.628906 5.535156 -33.878906 7.328125 -35.859375 C 9.117188 -37.847656 11.300781 -39.457031 13.875 -40.6875 C 16.457031 -41.914062 19.398438 -42.53125 22.703125 -42.53125 C 26.585938 -42.53125 29.953125 -41.675781 32.796875 -39.96875 C 35.640625 -38.269531 37.753906 -36.046875 39.140625 -33.296875 L 32.828125 -28.953125 C 32.273438 -30.148438 31.597656 -31.15625 30.796875 -31.96875 C 30.003906 -32.78125 29.148438 -33.421875 28.234375 -33.890625 C 27.328125 -34.367188 26.375 -34.71875 25.375 -34.9375 C 24.382812 -35.15625 23.414062 -35.265625 22.46875 -35.265625 C 20.394531 -35.265625 18.59375 -34.847656 17.0625 -34.015625 C 15.539062 -33.179688 14.269531 -32.097656 13.25 -30.765625 C 12.238281 -29.441406 11.472656 -27.9375 10.953125 -26.25 C 10.441406 -24.5625 10.1875 -22.878906 10.1875 -21.203125 C 10.1875 -19.335938 10.484375 -17.539062 11.078125 -15.8125 C 11.671875 -14.082031 12.515625 -12.5625 13.609375 -11.25 C 14.703125 -9.945312 16.015625 -8.894531 17.546875 -8.09375 C 19.078125 -7.300781 20.753906 -6.90625 22.578125 -6.90625 C 23.535156 -6.90625 24.53125 -7.023438 25.5625 -7.265625 C 26.59375 -7.503906 27.570312 -7.878906 28.5 -8.390625 C 29.4375 -8.910156 30.300781 -9.578125 31.09375 -10.390625 C 31.894531 -11.210938 32.53125 -12.195312 33 -13.34375 L 39.734375 -9.46875 C 39.054688 -7.882812 38.09375 -6.484375 36.84375 -5.265625 C 35.59375 -4.054688 34.179688 -3.035156 32.609375 -2.203125 C 31.046875 -1.367188 29.367188 -0.734375 27.578125 -0.296875 C 25.796875 0.140625 24.050781 0.359375 22.34375 0.359375 C 19.320312 0.359375 16.5625 -0.273438 14.0625 -1.546875 C 11.5625 -2.816406 9.40625 -4.472656 7.59375 -6.515625 C 5.789062 -8.566406 4.378906 -10.890625 3.359375 -13.484375 C 2.347656 -16.085938 1.84375 -18.742188 1.84375 -21.453125 Z M 1.84375 -21.453125 "/></g></g></g><g fill="#000000" fill-opacity="0.502"><g transform="translate(295.313596, 95.152577)"><g><path d="M 33.78125 -7.203125 L 33.78125 0 L 4.40625 0 L 4.40625 -42.296875 L 33.25 -42.296875 L 33.25 -35.09375 L 12.625 -35.09375 L 12.625 -24.90625 L 30.4375 -24.90625 L 30.4375 -18.234375 L 12.625 -18.234375 L 12.625 -7.203125 Z M 33.78125 -7.203125 "/></g></g></g><g fill="#000000" fill-opacity="0.502"><g transform="translate(331.118006, 95.152577)"><g/></g></g><g fill="#cb6ce6" fill-opacity="1"><g transform="translate(178.641231, 91.777163)"><g><path d="M 4.40625 0 L 4.40625 -42.296875 L 32.828125 -42.296875 L 32.828125 -35.09375 L 12.625 -35.09375 L 12.625 -24.1875 L 29.4375 -24.1875 L 29.4375 -17.515625 L 12.625 -17.515625 L 12.625 0 Z M 4.40625 0 "/></g></g></g><g fill="#cb6ce6" fill-opacity="1"><g transform="translate(212.837117, 91.777163)"><g><path d="M 16.4375 -42.296875 L 23.71875 -42.296875 L 39.796875 0 L 31.34375 0 L 27.40625 -10.546875 L 12.625 -10.546875 L 8.765625 0 L 0.296875 0 Z M 25.921875 -16.328125 L 20.078125 -32.953125 L 14 -16.328125 Z M 25.921875 -16.328125 "/></g></g></g><g fill="#cb6ce6" fill-opacity="1"><g transform="translate(252.871345, 91.777163)"><g><path d="M 1.84375 -21.453125 C 1.84375 -24.035156 2.304688 -26.585938 3.234375 -29.109375 C 4.171875 -31.628906 5.535156 -33.878906 7.328125 -35.859375 C 9.117188 -37.847656 11.300781 -39.457031 13.875 -40.6875 C 16.457031 -41.914062 19.398438 -42.53125 22.703125 -42.53125 C 26.585938 -42.53125 29.953125 -41.675781 32.796875 -39.96875 C 35.640625 -38.269531 37.753906 -36.046875 39.140625 -33.296875 L 32.828125 -28.953125 C 32.273438 -30.148438 31.597656 -31.15625 30.796875 -31.96875 C 30.003906 -32.78125 29.148438 -33.421875 28.234375 -33.890625 C 27.328125 -34.367188 26.375 -34.71875 25.375 -34.9375 C 24.382812 -35.15625 23.414062 -35.265625 22.46875 -35.265625 C 20.394531 -35.265625 18.59375 -34.847656 17.0625 -34.015625 C 15.539062 -33.179688 14.269531 -32.097656 13.25 -30.765625 C 12.238281 -29.441406 11.472656 -27.9375 10.953125 -26.25 C 10.441406 -24.5625 10.1875 -22.878906 10.1875 -21.203125 C 10.1875 -19.335938 10.484375 -17.539062 11.078125 -15.8125 C 11.671875 -14.082031 12.515625 -12.5625 13.609375 -11.25 C 14.703125 -9.945312 16.015625 -8.894531 17.546875 -8.09375 C 19.078125 -7.300781 20.753906 -6.90625 22.578125 -6.90625 C 23.535156 -6.90625 24.53125 -7.023438 25.5625 -7.265625 C 26.59375 -7.503906 27.570312 -7.878906 28.5 -8.390625 C 29.4375 -8.910156 30.300781 -9.578125 31.09375 -10.390625 C 31.894531 -11.210938 32.53125 -12.195312 33 -13.34375 L 39.734375 -9.46875 C 39.054688 -7.882812 38.09375 -6.484375 36.84375 -5.265625 C 35.59375 -4.054688 34.179688 -3.035156 32.609375 -2.203125 C 31.046875 -1.367188 29.367188 -0.734375 27.578125 -0.296875 C 25.796875 0.140625 24.050781 0.359375 22.34375 0.359375 C 19.320312 0.359375 16.5625 -0.273438 14.0625 -1.546875 C 11.5625 -2.816406 9.40625 -4.472656 7.59375 -6.515625 C 5.789062 -8.566406 4.378906 -10.890625 3.359375 -13.484375 C 2.347656 -16.085938 1.84375 -18.742188 1.84375 -21.453125 Z M 1.84375 -21.453125 "/></g></g></g><g fill="#cb6ce6" fill-opacity="1"><g transform="translate(293.739606, 91.777163)"><g><path d="M 33.78125 -7.203125 L 33.78125 0 L 4.40625 0 L 4.40625 -42.296875 L 33.25 -42.296875 L 33.25 -35.09375 L 12.625 -35.09375 L 12.625 -24.90625 L 30.4375 -24.90625 L 30.4375 -18.234375 L 12.625 -18.234375 L 12.625 -7.203125 Z M 33.78125 -7.203125 "/></g></g></g><g fill="#cb6ce6" fill-opacity="1"><g transform="translate(329.544017, 91.777163)"><g/></g></g><g fill="#000000" fill-opacity="0.302"><g transform="translate(346.995237, 98.527994)"><g><path d="M 5.296875 0 L 5.296875 -42.296875 L 23.171875 -42.296875 C 25.003906 -42.296875 26.679688 -41.910156 28.203125 -41.140625 C 29.734375 -40.367188 31.054688 -39.351562 32.171875 -38.09375 C 33.285156 -36.84375 34.148438 -35.421875 34.765625 -33.828125 C 35.378906 -32.242188 35.6875 -30.640625 35.6875 -29.015625 C 35.6875 -27.460938 35.457031 -25.984375 35 -24.578125 C 34.539062 -23.171875 33.90625 -21.898438 33.09375 -20.765625 C 32.28125 -19.628906 31.296875 -18.671875 30.140625 -17.890625 C 28.992188 -17.117188 27.707031 -16.597656 26.28125 -16.328125 L 36.640625 0 L 31.9375 0 L 21.984375 -15.609375 L 9.46875 -15.609375 L 9.46875 0 Z M 9.46875 -19.296875 L 23.296875 -19.296875 C 24.523438 -19.296875 25.644531 -19.5625 26.65625 -20.09375 C 27.675781 -20.632812 28.539062 -21.363281 29.25 -22.28125 C 29.96875 -23.195312 30.523438 -24.226562 30.921875 -25.375 C 31.316406 -26.53125 31.515625 -27.742188 31.515625 -29.015625 C 31.515625 -30.285156 31.285156 -31.503906 30.828125 -32.671875 C 30.367188 -33.847656 29.753906 -34.875 28.984375 -35.75 C 28.210938 -36.625 27.300781 -37.316406 26.25 -37.828125 C 25.195312 -38.347656 24.09375 -38.609375 22.9375 -38.609375 L 9.46875 -38.609375 Z M 9.46875 -19.296875 "/></g></g></g><g fill="#000000" fill-opacity="0.302"><g transform="translate(385.897537, 98.527994)"><g><path d="M 33.71875 -3.6875 L 33.71875 0 L 5.296875 0 L 5.296875 -42.296875 L 33.1875 -42.296875 L 33.1875 -38.609375 L 9.46875 -38.609375 L 9.46875 -23.359375 L 30.140625 -23.359375 L 30.140625 -19.84375 L 9.46875 -19.84375 L 9.46875 -3.6875 Z M 33.71875 -3.6875 "/></g></g></g><g fill="#000000" fill-opacity="0.302"><g transform="translate(422.178543, 98.527994)"><g><path d="M 2.5 -21.453125 C 2.5 -23.992188 2.945312 -26.523438 3.84375 -29.046875 C 4.738281 -31.566406 6.039062 -33.816406 7.75 -35.796875 C 9.457031 -37.785156 11.5625 -39.40625 14.0625 -40.65625 C 16.5625 -41.90625 19.398438 -42.53125 22.578125 -42.53125 C 26.347656 -42.53125 29.570312 -41.675781 32.25 -39.96875 C 34.9375 -38.269531 36.914062 -36.046875 38.1875 -33.296875 L 34.90625 -31.28125 C 34.238281 -32.664062 33.414062 -33.832031 32.4375 -34.78125 C 31.46875 -35.738281 30.425781 -36.515625 29.3125 -37.109375 C 28.195312 -37.710938 27.039062 -38.140625 25.84375 -38.390625 C 24.65625 -38.648438 23.488281 -38.78125 22.34375 -38.78125 C 19.800781 -38.78125 17.554688 -38.265625 15.609375 -37.234375 C 13.660156 -36.203125 12.019531 -34.851562 10.6875 -33.1875 C 9.363281 -31.519531 8.363281 -29.640625 7.6875 -27.546875 C 7.007812 -25.460938 6.671875 -23.347656 6.671875 -21.203125 C 6.671875 -18.859375 7.078125 -16.613281 7.890625 -14.46875 C 8.703125 -12.332031 9.8125 -10.4375 11.21875 -8.78125 C 12.632812 -7.132812 14.304688 -5.820312 16.234375 -4.84375 C 18.160156 -3.875 20.253906 -3.390625 22.515625 -3.390625 C 23.710938 -3.390625 24.9375 -3.539062 26.1875 -3.84375 C 27.4375 -4.144531 28.644531 -4.617188 29.8125 -5.265625 C 30.988281 -5.921875 32.070312 -6.734375 33.0625 -7.703125 C 34.0625 -8.679688 34.894531 -9.867188 35.5625 -11.265625 L 39.03125 -9.46875 C 38.351562 -7.882812 37.394531 -6.484375 36.15625 -5.265625 C 34.925781 -4.054688 33.554688 -3.035156 32.046875 -2.203125 C 30.546875 -1.367188 28.945312 -0.734375 27.25 -0.296875 C 25.5625 0.140625 23.90625 0.359375 22.28125 0.359375 C 19.382812 0.359375 16.722656 -0.273438 14.296875 -1.546875 C 11.878906 -2.816406 9.796875 -4.472656 8.046875 -6.515625 C 6.296875 -8.566406 4.929688 -10.890625 3.953125 -13.484375 C 2.984375 -16.085938 2.5 -18.742188 2.5 -21.453125 Z M 2.5 -21.453125 "/></g></g></g><g fill="#000000" fill-opacity="0.302"><g transform="translate(463.046804, 98.527994)"><g><path d="M 22.34375 0.296875 C 19.40625 0.296875 16.710938 -0.304688 14.265625 -1.515625 C 11.828125 -2.734375 9.734375 -4.34375 7.984375 -6.34375 C 6.234375 -8.351562 4.878906 -10.644531 3.921875 -13.21875 C 2.972656 -15.800781 2.5 -18.445312 2.5 -21.15625 C 2.5 -23.96875 3.003906 -26.664062 4.015625 -29.25 C 5.035156 -31.832031 6.4375 -34.113281 8.21875 -36.09375 C 10.007812 -38.082031 12.113281 -39.660156 14.53125 -40.828125 C 16.957031 -42.003906 19.582031 -42.59375 22.40625 -42.59375 C 25.34375 -42.59375 28.03125 -41.96875 30.46875 -40.71875 C 32.914062 -39.46875 35.003906 -37.828125 36.734375 -35.796875 C 38.460938 -33.773438 39.800781 -31.484375 40.75 -28.921875 C 41.707031 -26.359375 42.1875 -23.75 42.1875 -21.09375 C 42.1875 -18.269531 41.675781 -15.566406 40.65625 -12.984375 C 39.644531 -10.398438 38.253906 -8.125 36.484375 -6.15625 C 34.722656 -4.195312 32.628906 -2.628906 30.203125 -1.453125 C 27.785156 -0.285156 25.164062 0.296875 22.34375 0.296875 Z M 6.671875 -21.15625 C 6.671875 -18.84375 7.046875 -16.625 7.796875 -14.5 C 8.554688 -12.375 9.628906 -10.488281 11.015625 -8.84375 C 12.410156 -7.195312 14.0625 -5.882812 15.96875 -4.90625 C 17.875 -3.9375 20 -3.453125 22.34375 -3.453125 C 24.726562 -3.453125 26.890625 -3.96875 28.828125 -5 C 30.773438 -6.03125 32.425781 -7.378906 33.78125 -9.046875 C 35.132812 -10.722656 36.175781 -12.613281 36.90625 -14.71875 C 37.644531 -16.820312 38.015625 -18.96875 38.015625 -21.15625 C 38.015625 -23.457031 37.625 -25.671875 36.84375 -27.796875 C 36.070312 -29.921875 34.988281 -31.796875 33.59375 -33.421875 C 32.207031 -35.046875 30.5625 -36.34375 28.65625 -37.3125 C 26.75 -38.289062 24.644531 -38.78125 22.34375 -38.78125 C 19.957031 -38.78125 17.789062 -38.273438 15.84375 -37.265625 C 13.894531 -36.253906 12.242188 -34.914062 10.890625 -33.25 C 9.546875 -31.582031 8.503906 -29.691406 7.765625 -27.578125 C 7.035156 -25.472656 6.671875 -23.332031 6.671875 -21.15625 Z M 6.671875 -21.15625 "/></g></g></g><g fill="#000000" fill-opacity="0.302"><g transform="translate(507.787427, 98.527994)"><g><path d="M 35.859375 -6.203125 C 31.929688 -1.867188 27.40625 0.296875 22.28125 0.296875 C 19.425781 0.296875 16.796875 -0.316406 14.390625 -1.546875 C 11.984375 -2.773438 9.894531 -4.398438 8.125 -6.421875 C 6.363281 -8.453125 4.984375 -10.75 3.984375 -13.3125 C 2.992188 -15.875 2.5 -18.503906 2.5 -21.203125 C 2.5 -24.023438 2.984375 -26.726562 3.953125 -29.3125 C 4.929688 -31.894531 6.296875 -34.164062 8.046875 -36.125 C 9.796875 -38.09375 11.859375 -39.660156 14.234375 -40.828125 C 16.617188 -42.003906 19.222656 -42.59375 22.046875 -42.59375 C 24.109375 -42.59375 25.992188 -42.363281 27.703125 -41.90625 C 29.410156 -41.457031 30.925781 -40.820312 32.25 -40 C 33.582031 -39.1875 34.734375 -38.210938 35.703125 -37.078125 C 36.679688 -35.953125 37.507812 -34.710938 38.1875 -33.359375 L 34.96875 -31.21875 C 33.582031 -33.84375 31.773438 -35.769531 29.546875 -37 C 27.328125 -38.226562 24.804688 -38.84375 21.984375 -38.84375 C 19.640625 -38.84375 17.523438 -38.34375 15.640625 -37.34375 C 13.753906 -36.351562 12.144531 -35.035156 10.8125 -33.390625 C 9.476562 -31.742188 8.453125 -29.859375 7.734375 -27.734375 C 7.023438 -25.609375 6.671875 -23.414062 6.671875 -21.15625 C 6.671875 -18.769531 7.078125 -16.503906 7.890625 -14.359375 C 8.703125 -12.210938 9.820312 -10.332031 11.25 -8.71875 C 12.6875 -7.113281 14.367188 -5.832031 16.296875 -4.875 C 18.222656 -3.925781 20.316406 -3.453125 22.578125 -3.453125 C 25.003906 -3.453125 27.316406 -4.015625 29.515625 -5.140625 C 31.722656 -6.273438 33.835938 -8.078125 35.859375 -10.546875 L 35.859375 -17.578125 L 26.453125 -17.578125 L 26.453125 -20.796875 L 39.375 -20.796875 L 39.375 0 L 35.859375 0 Z M 35.859375 -6.203125 "/></g></g></g><g fill="#000000" fill-opacity="0.302"><g transform="translate(550.44293, 98.527994)"><g><path d="M 9.46875 -34.5625 L 9.46875 0 L 5.296875 0 L 5.296875 -42.296875 L 8.515625 -42.296875 L 36.515625 -7.09375 L 36.515625 -42.234375 L 40.6875 -42.234375 L 40.6875 0 L 37.0625 0 Z M 9.46875 -34.5625 "/></g></g></g><g fill="#000000" fill-opacity="0.302"><g transform="translate(596.434621, 98.527994)"><g><path d="M 5.296875 0 L 5.296875 -42.296875 L 9.46875 -42.296875 L 9.46875 0 Z M 5.296875 0 "/></g></g></g><g fill="#000000" fill-opacity="0.302"><g transform="translate(611.209156, 98.527994)"><g><path d="M 35.328125 -38.609375 L 20.25 -38.609375 L 20.25 0 L 16.09375 0 L 16.09375 -38.609375 L 1.015625 -38.609375 L 1.015625 -42.296875 L 35.328125 -42.296875 Z M 35.328125 -38.609375 "/></g></g></g><g fill="#000000" fill-opacity="0.302"><g transform="translate(647.549741, 98.527994)"><g><path d="M 5.296875 0 L 5.296875 -42.296875 L 9.46875 -42.296875 L 9.46875 0 Z M 5.296875 0 "/></g></g></g><g fill="#000000" fill-opacity="0.302"><g transform="translate(662.324276, 98.527994)"><g><path d="M 22.34375 0.296875 C 19.40625 0.296875 16.710938 -0.304688 14.265625 -1.515625 C 11.828125 -2.734375 9.734375 -4.34375 7.984375 -6.34375 C 6.234375 -8.351562 4.878906 -10.644531 3.921875 -13.21875 C 2.972656 -15.800781 2.5 -18.445312 2.5 -21.15625 C 2.5 -23.96875 3.003906 -26.664062 4.015625 -29.25 C 5.035156 -31.832031 6.4375 -34.113281 8.21875 -36.09375 C 10.007812 -38.082031 12.113281 -39.660156 14.53125 -40.828125 C 16.957031 -42.003906 19.582031 -42.59375 22.40625 -42.59375 C 25.34375 -42.59375 28.03125 -41.96875 30.46875 -40.71875 C 32.914062 -39.46875 35.003906 -37.828125 36.734375 -35.796875 C 38.460938 -33.773438 39.800781 -31.484375 40.75 -28.921875 C 41.707031 -26.359375 42.1875 -23.75 42.1875 -21.09375 C 42.1875 -18.269531 41.675781 -15.566406 40.65625 -12.984375 C 39.644531 -10.398438 38.253906 -8.125 36.484375 -6.15625 C 34.722656 -4.195312 32.628906 -2.628906 30.203125 -1.453125 C 27.785156 -0.285156 25.164062 0.296875 22.34375 0.296875 Z M 6.671875 -21.15625 C 6.671875 -18.84375 7.046875 -16.625 7.796875 -14.5 C 8.554688 -12.375 9.628906 -10.488281 11.015625 -8.84375 C 12.410156 -7.195312 14.0625 -5.882812 15.96875 -4.90625 C 17.875 -3.9375 20 -3.453125 22.34375 -3.453125 C 24.726562 -3.453125 26.890625 -3.96875 28.828125 -5 C 30.773438 -6.03125 32.425781 -7.378906 33.78125 -9.046875 C 35.132812 -10.722656 36.175781 -12.613281 36.90625 -14.71875 C 37.644531 -16.820312 38.015625 -18.96875 38.015625 -21.15625 C 38.015625 -23.457031 37.625 -25.671875 36.84375 -27.796875 C 36.070312 -29.921875 34.988281 -31.796875 33.59375 -33.421875 C 32.207031 -35.046875 30.5625 -36.34375 28.65625 -37.3125 C 26.75 -38.289062 24.644531 -38.78125 22.34375 -38.78125 C 19.957031 -38.78125 17.789062 -38.273438 15.84375 -37.265625 C 13.894531 -36.253906 12.242188 -34.914062 10.890625 -33.25 C 9.546875 -31.582031 8.503906 -29.691406 7.765625 -27.578125 C 7.035156 -25.472656 6.671875 -23.332031 6.671875 -21.15625 Z M 6.671875 -21.15625 "/></g></g></g><g fill="#000000" fill-opacity="0.302"><g transform="translate(707.064918, 98.527994)"><g><path d="M 9.46875 -34.5625 L 9.46875 0 L 5.296875 0 L 5.296875 -42.296875 L 8.515625 -42.296875 L 36.515625 -7.09375 L 36.515625 -42.234375 L 40.6875 -42.234375 L 40.6875 0 L 37.0625 0 Z M 9.46875 -34.5625 "/></g></g></g><g fill="#000000" fill-opacity="0.502"><g transform="translate(345.421262, 95.152577)"><g><path d="M 5.296875 0 L 5.296875 -42.296875 L 23.171875 -42.296875 C 25.003906 -42.296875 26.679688 -41.910156 28.203125 -41.140625 C 29.734375 -40.367188 31.054688 -39.351562 32.171875 -38.09375 C 33.285156 -36.84375 34.148438 -35.421875 34.765625 -33.828125 C 35.378906 -32.242188 35.6875 -30.640625 35.6875 -29.015625 C 35.6875 -27.460938 35.457031 -25.984375 35 -24.578125 C 34.539062 -23.171875 33.90625 -21.898438 33.09375 -20.765625 C 32.28125 -19.628906 31.296875 -18.671875 30.140625 -17.890625 C 28.992188 -17.117188 27.707031 -16.597656 26.28125 -16.328125 L 36.640625 0 L 31.9375 0 L 21.984375 -15.609375 L 9.46875 -15.609375 L 9.46875 0 Z M 9.46875 -19.296875 L 23.296875 -19.296875 C 24.523438 -19.296875 25.644531 -19.5625 26.65625 -20.09375 C 27.675781 -20.632812 28.539062 -21.363281 29.25 -22.28125 C 29.96875 -23.195312 30.523438 -24.226562 30.921875 -25.375 C 31.316406 -26.53125 31.515625 -27.742188 31.515625 -29.015625 C 31.515625 -30.285156 31.285156 -31.503906 30.828125 -32.671875 C 30.367188 -33.847656 29.753906 -34.875 28.984375 -35.75 C 28.210938 -36.625 27.300781 -37.316406 26.25 -37.828125 C 25.195312 -38.347656 24.09375 -38.609375 22.9375 -38.609375 L 9.46875 -38.609375 Z M 9.46875 -19.296875 "/></g></g></g><g fill="#000000" fill-opacity="0.502"><g transform="translate(384.323562, 95.152577)"><g><path d="M 33.71875 -3.6875 L 33.71875 0 L 5.296875 0 L 5.296875 -42.296875 L 33.1875 -42.296875 L 33.1875 -38.609375 L 9.46875 -38.609375 L 9.46875 -23.359375 L 30.140625 -23.359375 L 30.140625 -19.84375 L 9.46875 -19.84375 L 9.46875 -3.6875 Z M 33.71875 -3.6875 "/></g></g></g><g fill="#000000" fill-opacity="0.502"><g transform="translate(420.604567, 95.152577)"><g><path d="M 2.5 -21.453125 C 2.5 -23.992188 2.945312 -26.523438 3.84375 -29.046875 C 4.738281 -31.566406 6.039062 -33.816406 7.75 -35.796875 C 9.457031 -37.785156 11.5625 -39.40625 14.0625 -40.65625 C 16.5625 -41.90625 19.398438 -42.53125 22.578125 -42.53125 C 26.347656 -42.53125 29.570312 -41.675781 32.25 -39.96875 C 34.9375 -38.269531 36.914062 -36.046875 38.1875 -33.296875 L 34.90625 -31.28125 C 34.238281 -32.664062 33.414062 -33.832031 32.4375 -34.78125 C 31.46875 -35.738281 30.425781 -36.515625 29.3125 -37.109375 C 28.195312 -37.710938 27.039062 -38.140625 25.84375 -38.390625 C 24.65625 -38.648438 23.488281 -38.78125 22.34375 -38.78125 C 19.800781 -38.78125 17.554688 -38.265625 15.609375 -37.234375 C 13.660156 -36.203125 12.019531 -34.851562 10.6875 -33.1875 C 9.363281 -31.519531 8.363281 -29.640625 7.6875 -27.546875 C 7.007812 -25.460938 6.671875 -23.347656 6.671875 -21.203125 C 6.671875 -18.859375 7.078125 -16.613281 7.890625 -14.46875 C 8.703125 -12.332031 9.8125 -10.4375 11.21875 -8.78125 C 12.632812 -7.132812 14.304688 -5.820312 16.234375 -4.84375 C 18.160156 -3.875 20.253906 -3.390625 22.515625 -3.390625 C 23.710938 -3.390625 24.9375 -3.539062 26.1875 -3.84375 C 27.4375 -4.144531 28.644531 -4.617188 29.8125 -5.265625 C 30.988281 -5.921875 32.070312 -6.734375 33.0625 -7.703125 C 34.0625 -8.679688 34.894531 -9.867188 35.5625 -11.265625 L 39.03125 -9.46875 C 38.351562 -7.882812 37.394531 -6.484375 36.15625 -5.265625 C 34.925781 -4.054688 33.554688 -3.035156 32.046875 -2.203125 C 30.546875 -1.367188 28.945312 -0.734375 27.25 -0.296875 C 25.5625 0.140625 23.90625 0.359375 22.28125 0.359375 C 19.382812 0.359375 16.722656 -0.273438 14.296875 -1.546875 C 11.878906 -2.816406 9.796875 -4.472656 8.046875 -6.515625 C 6.296875 -8.566406 4.929688 -10.890625 3.953125 -13.484375 C 2.984375 -16.085938 2.5 -18.742188 2.5 -21.453125 Z M 2.5 -21.453125 "/></g></g></g><g fill="#000000" fill-opacity="0.502"><g transform="translate(461.472829, 95.152577)"><g><path d="M 22.34375 0.296875 C 19.40625 0.296875 16.710938 -0.304688 14.265625 -1.515625 C 11.828125 -2.734375 9.734375 -4.34375 7.984375 -6.34375 C 6.234375 -8.351562 4.878906 -10.644531 3.921875 -13.21875 C 2.972656 -15.800781 2.5 -18.445312 2.5 -21.15625 C 2.5 -23.96875 3.003906 -26.664062 4.015625 -29.25 C 5.035156 -31.832031 6.4375 -34.113281 8.21875 -36.09375 C 10.007812 -38.082031 12.113281 -39.660156 14.53125 -40.828125 C 16.957031 -42.003906 19.582031 -42.59375 22.40625 -42.59375 C 25.34375 -42.59375 28.03125 -41.96875 30.46875 -40.71875 C 32.914062 -39.46875 35.003906 -37.828125 36.734375 -35.796875 C 38.460938 -33.773438 39.800781 -31.484375 40.75 -28.921875 C 41.707031 -26.359375 42.1875 -23.75 42.1875 -21.09375 C 42.1875 -18.269531 41.675781 -15.566406 40.65625 -12.984375 C 39.644531 -10.398438 38.253906 -8.125 36.484375 -6.15625 C 34.722656 -4.195312 32.628906 -2.628906 30.203125 -1.453125 C 27.785156 -0.285156 25.164062 0.296875 22.34375 0.296875 Z M 6.671875 -21.15625 C 6.671875 -18.84375 7.046875 -16.625 7.796875 -14.5 C 8.554688 -12.375 9.628906 -10.488281 11.015625 -8.84375 C 12.410156 -7.195312 14.0625 -5.882812 15.96875 -4.90625 C 17.875 -3.9375 20 -3.453125 22.34375 -3.453125 C 24.726562 -3.453125 26.890625 -3.96875 28.828125 -5 C 30.773438 -6.03125 32.425781 -7.378906 33.78125 -9.046875 C 35.132812 -10.722656 36.175781 -12.613281 36.90625 -14.71875 C 37.644531 -16.820312 38.015625 -18.96875 38.015625 -21.15625 C 38.015625 -23.457031 37.625 -25.671875 36.84375 -27.796875 C 36.070312 -29.921875 34.988281 -31.796875 33.59375 -33.421875 C 32.207031 -35.046875 30.5625 -36.34375 28.65625 -37.3125 C 26.75 -38.289062 24.644531 -38.78125 22.34375 -38.78125 C 19.957031 -38.78125 17.789062 -38.273438 15.84375 -37.265625 C 13.894531 -36.253906 12.242188 -34.914062 10.890625 -33.25 C 9.546875 -31.582031 8.503906 -29.691406 7.765625 -27.578125 C 7.035156 -25.472656 6.671875 -23.332031 6.671875 -21.15625 Z M 6.671875 -21.15625 "/></g></g></g><g fill="#000000" fill-opacity="0.502"><g transform="translate(506.213452, 95.152577)"><g><path d="M 35.859375 -6.203125 C 31.929688 -1.867188 27.40625 0.296875 22.28125 0.296875 C 19.425781 0.296875 16.796875 -0.316406 14.390625 -1.546875 C 11.984375 -2.773438 9.894531 -4.398438 8.125 -6.421875 C 6.363281 -8.453125 4.984375 -10.75 3.984375 -13.3125 C 2.992188 -15.875 2.5 -18.503906 2.5 -21.203125 C 2.5 -24.023438 2.984375 -26.726562 3.953125 -29.3125 C 4.929688 -31.894531 6.296875 -34.164062 8.046875 -36.125 C 9.796875 -38.09375 11.859375 -39.660156 14.234375 -40.828125 C 16.617188 -42.003906 19.222656 -42.59375 22.046875 -42.59375 C 24.109375 -42.59375 25.992188 -42.363281 27.703125 -41.90625 C 29.410156 -41.457031 30.925781 -40.820312 32.25 -40 C 33.582031 -39.1875 34.734375 -38.210938 35.703125 -37.078125 C 36.679688 -35.953125 37.507812 -34.710938 38.1875 -33.359375 L 34.96875 -31.21875 C 33.582031 -33.84375 31.773438 -35.769531 29.546875 -37 C 27.328125 -38.226562 24.804688 -38.84375 21.984375 -38.84375 C 19.640625 -38.84375 17.523438 -38.34375 15.640625 -37.34375 C 13.753906 -36.351562 12.144531 -35.035156 10.8125 -33.390625 C 9.476562 -31.742188 8.453125 -29.859375 7.734375 -27.734375 C 7.023438 -25.609375 6.671875 -23.414062 6.671875 -21.15625 C 6.671875 -18.769531 7.078125 -16.503906 7.890625 -14.359375 C 8.703125 -12.210938 9.820312 -10.332031 11.25 -8.71875 C 12.6875 -7.113281 14.367188 -5.832031 16.296875 -4.875 C 18.222656 -3.925781 20.316406 -3.453125 22.578125 -3.453125 C 25.003906 -3.453125 27.316406 -4.015625 29.515625 -5.140625 C 31.722656 -6.273438 33.835938 -8.078125 35.859375 -10.546875 L 35.859375 -17.578125 L 26.453125 -17.578125 L 26.453125 -20.796875 L 39.375 -20.796875 L 39.375 0 L 35.859375 0 Z M 35.859375 -6.203125 "/></g></g></g><g fill="#000000" fill-opacity="0.502"><g transform="translate(548.868955, 95.152577)"><g><path d="M 9.46875 -34.5625 L 9.46875 0 L 5.296875 0 L 5.296875 -42.296875 L 8.515625 -42.296875 L 36.515625 -7.09375 L 36.515625 -42.234375 L 40.6875 -42.234375 L 40.6875 0 L 37.0625 0 Z M 9.46875 -34.5625 "/></g></g></g><g fill="#000000" fill-opacity="0.502"><g transform="translate(594.860645, 95.152577)"><g><path d="M 5.296875 0 L 5.296875 -42.296875 L 9.46875 -42.296875 L 9.46875 0 Z M 5.296875 0 "/></g></g></g><g fill="#000000" fill-opacity="0.502"><g transform="translate(609.635181, 95.152577)"><g><path d="M 35.328125 -38.609375 L 20.25 -38.609375 L 20.25 0 L 16.09375 0 L 16.09375 -38.609375 L 1.015625 -38.609375 L 1.015625 -42.296875 L 35.328125 -42.296875 Z M 35.328125 -38.609375 "/></g></g></g><g fill="#000000" fill-opacity="0.502"><g transform="translate(645.975765, 95.152577)"><g><path d="M 5.296875 0 L 5.296875 -42.296875 L 9.46875 -42.296875 L 9.46875 0 Z M 5.296875 0 "/></g></g></g><g fill="#000000" fill-opacity="0.502"><g transform="translate(660.750301, 95.152577)"><g><path d="M 22.34375 0.296875 C 19.40625 0.296875 16.710938 -0.304688 14.265625 -1.515625 C 11.828125 -2.734375 9.734375 -4.34375 7.984375 -6.34375 C 6.234375 -8.351562 4.878906 -10.644531 3.921875 -13.21875 C 2.972656 -15.800781 2.5 -18.445312 2.5 -21.15625 C 2.5 -23.96875 3.003906 -26.664062 4.015625 -29.25 C 5.035156 -31.832031 6.4375 -34.113281 8.21875 -36.09375 C 10.007812 -38.082031 12.113281 -39.660156 14.53125 -40.828125 C 16.957031 -42.003906 19.582031 -42.59375 22.40625 -42.59375 C 25.34375 -42.59375 28.03125 -41.96875 30.46875 -40.71875 C 32.914062 -39.46875 35.003906 -37.828125 36.734375 -35.796875 C 38.460938 -33.773438 39.800781 -31.484375 40.75 -28.921875 C 41.707031 -26.359375 42.1875 -23.75 42.1875 -21.09375 C 42.1875 -18.269531 41.675781 -15.566406 40.65625 -12.984375 C 39.644531 -10.398438 38.253906 -8.125 36.484375 -6.15625 C 34.722656 -4.195312 32.628906 -2.628906 30.203125 -1.453125 C 27.785156 -0.285156 25.164062 0.296875 22.34375 0.296875 Z M 6.671875 -21.15625 C 6.671875 -18.84375 7.046875 -16.625 7.796875 -14.5 C 8.554688 -12.375 9.628906 -10.488281 11.015625 -8.84375 C 12.410156 -7.195312 14.0625 -5.882812 15.96875 -4.90625 C 17.875 -3.9375 20 -3.453125 22.34375 -3.453125 C 24.726562 -3.453125 26.890625 -3.96875 28.828125 -5 C 30.773438 -6.03125 32.425781 -7.378906 33.78125 -9.046875 C 35.132812 -10.722656 36.175781 -12.613281 36.90625 -14.71875 C 37.644531 -16.820312 38.015625 -18.96875 38.015625 -21.15625 C 38.015625 -23.457031 37.625 -25.671875 36.84375 -27.796875 C 36.070312 -29.921875 34.988281 -31.796875 33.59375 -33.421875 C 32.207031 -35.046875 30.5625 -36.34375 28.65625 -37.3125 C 26.75 -38.289062 24.644531 -38.78125 22.34375 -38.78125 C 19.957031 -38.78125 17.789062 -38.273438 15.84375 -37.265625 C 13.894531 -36.253906 12.242188 -34.914062 10.890625 -33.25 C 9.546875 -31.582031 8.503906 -29.691406 7.765625 -27.578125 C 7.035156 -25.472656 6.671875 -23.332031 6.671875 -21.15625 Z M 6.671875 -21.15625 "/></g></g></g><g fill="#000000" fill-opacity="0.502"><g transform="translate(705.490943, 95.152577)"><g><path d="M 9.46875 -34.5625 L 9.46875 0 L 5.296875 0 L 5.296875 -42.296875 L 8.515625 -42.296875 L 36.515625 -7.09375 L 36.515625 -42.234375 L 40.6875 -42.234375 L 40.6875 0 L 37.0625 0 Z M 9.46875 -34.5625 "/></g></g></g><g fill="#cb6ce6" fill-opacity="1"><g transform="translate(343.847272, 91.777163)"><g><path d="M 5.296875 0 L 5.296875 -42.296875 L 23.171875 -42.296875 C 25.003906 -42.296875 26.679688 -41.910156 28.203125 -41.140625 C 29.734375 -40.367188 31.054688 -39.351562 32.171875 -38.09375 C 33.285156 -36.84375 34.148438 -35.421875 34.765625 -33.828125 C 35.378906 -32.242188 35.6875 -30.640625 35.6875 -29.015625 C 35.6875 -27.460938 35.457031 -25.984375 35 -24.578125 C 34.539062 -23.171875 33.90625 -21.898438 33.09375 -20.765625 C 32.28125 -19.628906 31.296875 -18.671875 30.140625 -17.890625 C 28.992188 -17.117188 27.707031 -16.597656 26.28125 -16.328125 L 36.640625 0 L 31.9375 0 L 21.984375 -15.609375 L 9.46875 -15.609375 L 9.46875 0 Z M 9.46875 -19.296875 L 23.296875 -19.296875 C 24.523438 -19.296875 25.644531 -19.5625 26.65625 -20.09375 C 27.675781 -20.632812 28.539062 -21.363281 29.25 -22.28125 C 29.96875 -23.195312 30.523438 -24.226562 30.921875 -25.375 C 31.316406 -26.53125 31.515625 -27.742188 31.515625 -29.015625 C 31.515625 -30.285156 31.285156 -31.503906 30.828125 -32.671875 C 30.367188 -33.847656 29.753906 -34.875 28.984375 -35.75 C 28.210938 -36.625 27.300781 -37.316406 26.25 -37.828125 C 25.195312 -38.347656 24.09375 -38.609375 22.9375 -38.609375 L 9.46875 -38.609375 Z M 9.46875 -19.296875 "/></g></g></g><g fill="#cb6ce6" fill-opacity="1"><g transform="translate(382.749572, 91.777163)"><g><path d="M 33.71875 -3.6875 L 33.71875 0 L 5.296875 0 L 5.296875 -42.296875 L 33.1875 -42.296875 L 33.1875 -38.609375 L 9.46875 -38.609375 L 9.46875 -23.359375 L 30.140625 -23.359375 L 30.140625 -19.84375 L 9.46875 -19.84375 L 9.46875 -3.6875 Z M 33.71875 -3.6875 "/></g></g></g><g fill="#cb6ce6" fill-opacity="1"><g transform="translate(419.030578, 91.777163)"><g><path d="M 2.5 -21.453125 C 2.5 -23.992188 2.945312 -26.523438 3.84375 -29.046875 C 4.738281 -31.566406 6.039062 -33.816406 7.75 -35.796875 C 9.457031 -37.785156 11.5625 -39.40625 14.0625 -40.65625 C 16.5625 -41.90625 19.398438 -42.53125 22.578125 -42.53125 C 26.347656 -42.53125 29.570312 -41.675781 32.25 -39.96875 C 34.9375 -38.269531 36.914062 -36.046875 38.1875 -33.296875 L 34.90625 -31.28125 C 34.238281 -32.664062 33.414062 -33.832031 32.4375 -34.78125 C 31.46875 -35.738281 30.425781 -36.515625 29.3125 -37.109375 C 28.195312 -37.710938 27.039062 -38.140625 25.84375 -38.390625 C 24.65625 -38.648438 23.488281 -38.78125 22.34375 -38.78125 C 19.800781 -38.78125 17.554688 -38.265625 15.609375 -37.234375 C 13.660156 -36.203125 12.019531 -34.851562 10.6875 -33.1875 C 9.363281 -31.519531 8.363281 -29.640625 7.6875 -27.546875 C 7.007812 -25.460938 6.671875 -23.347656 6.671875 -21.203125 C 6.671875 -18.859375 7.078125 -16.613281 7.890625 -14.46875 C 8.703125 -12.332031 9.8125 -10.4375 11.21875 -8.78125 C 12.632812 -7.132812 14.304688 -5.820312 16.234375 -4.84375 C 18.160156 -3.875 20.253906 -3.390625 22.515625 -3.390625 C 23.710938 -3.390625 24.9375 -3.539062 26.1875 -3.84375 C 27.4375 -4.144531 28.644531 -4.617188 29.8125 -5.265625 C 30.988281 -5.921875 32.070312 -6.734375 33.0625 -7.703125 C 34.0625 -8.679688 34.894531 -9.867188 35.5625 -11.265625 L 39.03125 -9.46875 C 38.351562 -7.882812 37.394531 -6.484375 36.15625 -5.265625 C 34.925781 -4.054688 33.554688 -3.035156 32.046875 -2.203125 C 30.546875 -1.367188 28.945312 -0.734375 27.25 -0.296875 C 25.5625 0.140625 23.90625 0.359375 22.28125 0.359375 C 19.382812 0.359375 16.722656 -0.273438 14.296875 -1.546875 C 11.878906 -2.816406 9.796875 -4.472656 8.046875 -6.515625 C 6.296875 -8.566406 4.929688 -10.890625 3.953125 -13.484375 C 2.984375 -16.085938 2.5 -18.742188 2.5 -21.453125 Z M 2.5 -21.453125 "/></g></g></g><g fill="#cb6ce6" fill-opacity="1"><g transform="translate(459.898839, 91.777163)"><g><path d="M 22.34375 0.296875 C 19.40625 0.296875 16.710938 -0.304688 14.265625 -1.515625 C 11.828125 -2.734375 9.734375 -4.34375 7.984375 -6.34375 C 6.234375 -8.351562 4.878906 -10.644531 3.921875 -13.21875 C 2.972656 -15.800781 2.5 -18.445312 2.5 -21.15625 C 2.5 -23.96875 3.003906 -26.664062 4.015625 -29.25 C 5.035156 -31.832031 6.4375 -34.113281 8.21875 -36.09375 C 10.007812 -38.082031 12.113281 -39.660156 14.53125 -40.828125 C 16.957031 -42.003906 19.582031 -42.59375 22.40625 -42.59375 C 25.34375 -42.59375 28.03125 -41.96875 30.46875 -40.71875 C 32.914062 -39.46875 35.003906 -37.828125 36.734375 -35.796875 C 38.460938 -33.773438 39.800781 -31.484375 40.75 -28.921875 C 41.707031 -26.359375 42.1875 -23.75 42.1875 -21.09375 C 42.1875 -18.269531 41.675781 -15.566406 40.65625 -12.984375 C 39.644531 -10.398438 38.253906 -8.125 36.484375 -6.15625 C 34.722656 -4.195312 32.628906 -2.628906 30.203125 -1.453125 C 27.785156 -0.285156 25.164062 0.296875 22.34375 0.296875 Z M 6.671875 -21.15625 C 6.671875 -18.84375 7.046875 -16.625 7.796875 -14.5 C 8.554688 -12.375 9.628906 -10.488281 11.015625 -8.84375 C 12.410156 -7.195312 14.0625 -5.882812 15.96875 -4.90625 C 17.875 -3.9375 20 -3.453125 22.34375 -3.453125 C 24.726562 -3.453125 26.890625 -3.96875 28.828125 -5 C 30.773438 -6.03125 32.425781 -7.378906 33.78125 -9.046875 C 35.132812 -10.722656 36.175781 -12.613281 36.90625 -14.71875 C 37.644531 -16.820312 38.015625 -18.96875 38.015625 -21.15625 C 38.015625 -23.457031 37.625 -25.671875 36.84375 -27.796875 C 36.070312 -29.921875 34.988281 -31.796875 33.59375 -33.421875 C 32.207031 -35.046875 30.5625 -36.34375 28.65625 -37.3125 C 26.75 -38.289062 24.644531 -38.78125 22.34375 -38.78125 C 19.957031 -38.78125 17.789062 -38.273438 15.84375 -37.265625 C 13.894531 -36.253906 12.242188 -34.914062 10.890625 -33.25 C 9.546875 -31.582031 8.503906 -29.691406 7.765625 -27.578125 C 7.035156 -25.472656 6.671875 -23.332031 6.671875 -21.15625 Z M 6.671875 -21.15625 "/></g></g></g><g fill="#cb6ce6" fill-opacity="1"><g transform="translate(504.639462, 91.777163)"><g><path d="M 35.859375 -6.203125 C 31.929688 -1.867188 27.40625 0.296875 22.28125 0.296875 C 19.425781 0.296875 16.796875 -0.316406 14.390625 -1.546875 C 11.984375 -2.773438 9.894531 -4.398438 8.125 -6.421875 C 6.363281 -8.453125 4.984375 -10.75 3.984375 -13.3125 C 2.992188 -15.875 2.5 -18.503906 2.5 -21.203125 C 2.5 -24.023438 2.984375 -26.726562 3.953125 -29.3125 C 4.929688 -31.894531 6.296875 -34.164062 8.046875 -36.125 C 9.796875 -38.09375 11.859375 -39.660156 14.234375 -40.828125 C 16.617188 -42.003906 19.222656 -42.59375 22.046875 -42.59375 C 24.109375 -42.59375 25.992188 -42.363281 27.703125 -41.90625 C 29.410156 -41.457031 30.925781 -40.820312 32.25 -40 C 33.582031 -39.1875 34.734375 -38.210938 35.703125 -37.078125 C 36.679688 -35.953125 37.507812 -34.710938 38.1875 -33.359375 L 34.96875 -31.21875 C 33.582031 -33.84375 31.773438 -35.769531 29.546875 -37 C 27.328125 -38.226562 24.804688 -38.84375 21.984375 -38.84375 C 19.640625 -38.84375 17.523438 -38.34375 15.640625 -37.34375 C 13.753906 -36.351562 12.144531 -35.035156 10.8125 -33.390625 C 9.476562 -31.742188 8.453125 -29.859375 7.734375 -27.734375 C 7.023438 -25.609375 6.671875 -23.414062 6.671875 -21.15625 C 6.671875 -18.769531 7.078125 -16.503906 7.890625 -14.359375 C 8.703125 -12.210938 9.820312 -10.332031 11.25 -8.71875 C 12.6875 -7.113281 14.367188 -5.832031 16.296875 -4.875 C 18.222656 -3.925781 20.316406 -3.453125 22.578125 -3.453125 C 25.003906 -3.453125 27.316406 -4.015625 29.515625 -5.140625 C 31.722656 -6.273438 33.835938 -8.078125 35.859375 -10.546875 L 35.859375 -17.578125 L 26.453125 -17.578125 L 26.453125 -20.796875 L 39.375 -20.796875 L 39.375 0 L 35.859375 0 Z M 35.859375 -6.203125 "/></g></g></g><g fill="#cb6ce6" fill-opacity="1"><g transform="translate(547.294965, 91.777163)"><g><path d="M 9.46875 -34.5625 L 9.46875 0 L 5.296875 0 L 5.296875 -42.296875 L 8.515625 -42.296875 L 36.515625 -7.09375 L 36.515625 -42.234375 L 40.6875 -42.234375 L 40.6875 0 L 37.0625 0 Z M 9.46875 -34.5625 "/></g></g></g><g fill="#cb6ce6" fill-opacity="1"><g transform="translate(593.286656, 91.777163)"><g><path d="M 5.296875 0 L 5.296875 -42.296875 L 9.46875 -42.296875 L 9.46875 0 Z M 5.296875 0 "/></g></g></g><g fill="#cb6ce6" fill-opacity="1"><g transform="translate(608.061191, 91.777163)"><g><path d="M 35.328125 -38.609375 L 20.25 -38.609375 L 20.25 0 L 16.09375 0 L 16.09375 -38.609375 L 1.015625 -38.609375 L 1.015625 -42.296875 L 35.328125 -42.296875 Z M 35.328125 -38.609375 "/></g></g></g><g fill="#cb6ce6" fill-opacity="1"><g transform="translate(644.401776, 91.777163)"><g><path d="M 5.296875 0 L 5.296875 -42.296875 L 9.46875 -42.296875 L 9.46875 0 Z M 5.296875 0 "/></g></g></g><g fill="#cb6ce6" fill-opacity="1"><g transform="translate(659.176311, 91.777163)"><g><path d="M 22.34375 0.296875 C 19.40625 0.296875 16.710938 -0.304688 14.265625 -1.515625 C 11.828125 -2.734375 9.734375 -4.34375 7.984375 -6.34375 C 6.234375 -8.351562 4.878906 -10.644531 3.921875 -13.21875 C 2.972656 -15.800781 2.5 -18.445312 2.5 -21.15625 C 2.5 -23.96875 3.003906 -26.664062 4.015625 -29.25 C 5.035156 -31.832031 6.4375 -34.113281 8.21875 -36.09375 C 10.007812 -38.082031 12.113281 -39.660156 14.53125 -40.828125 C 16.957031 -42.003906 19.582031 -42.59375 22.40625 -42.59375 C 25.34375 -42.59375 28.03125 -41.96875 30.46875 -40.71875 C 32.914062 -39.46875 35.003906 -37.828125 36.734375 -35.796875 C 38.460938 -33.773438 39.800781 -31.484375 40.75 -28.921875 C 41.707031 -26.359375 42.1875 -23.75 42.1875 -21.09375 C 42.1875 -18.269531 41.675781 -15.566406 40.65625 -12.984375 C 39.644531 -10.398438 38.253906 -8.125 36.484375 -6.15625 C 34.722656 -4.195312 32.628906 -2.628906 30.203125 -1.453125 C 27.785156 -0.285156 25.164062 0.296875 22.34375 0.296875 Z M 6.671875 -21.15625 C 6.671875 -18.84375 7.046875 -16.625 7.796875 -14.5 C 8.554688 -12.375 9.628906 -10.488281 11.015625 -8.84375 C 12.410156 -7.195312 14.0625 -5.882812 15.96875 -4.90625 C 17.875 -3.9375 20 -3.453125 22.34375 -3.453125 C 24.726562 -3.453125 26.890625 -3.96875 28.828125 -5 C 30.773438 -6.03125 32.425781 -7.378906 33.78125 -9.046875 C 35.132812 -10.722656 36.175781 -12.613281 36.90625 -14.71875 C 37.644531 -16.820312 38.015625 -18.96875 38.015625 -21.15625 C 38.015625 -23.457031 37.625 -25.671875 36.84375 -27.796875 C 36.070312 -29.921875 34.988281 -31.796875 33.59375 -33.421875 C 32.207031 -35.046875 30.5625 -36.34375 28.65625 -37.3125 C 26.75 -38.289062 24.644531 -38.78125 22.34375 -38.78125 C 19.957031 -38.78125 17.789062 -38.273438 15.84375 -37.265625 C 13.894531 -36.253906 12.242188 -34.914062 10.890625 -33.25 C 9.546875 -31.582031 8.503906 -29.691406 7.765625 -27.578125 C 7.035156 -25.472656 6.671875 -23.332031 6.671875 -21.15625 Z M 6.671875 -21.15625 "/></g></g></g><g fill="#cb6ce6" fill-opacity="1"><g transform="translate(703.916953, 91.777163)"><g><path d="M 9.46875 -34.5625 L 9.46875 0 L 5.296875 0 L 5.296875 -42.296875 L 8.515625 -42.296875 L 36.515625 -7.09375 L 36.515625 -42.234375 L 40.6875 -42.234375 L 40.6875 0 L 37.0625 0 Z M 9.46875 -34.5625 "/></g></g></g><g clip-path="url(#84f2ac64b3)"><path fill="#cb6ce6" d="M 283.574219 113.664062 L 645.546875 113.664062 L 645.546875 122.628906 L 283.574219 122.628906 Z M 283.574219 113.664062 " fill-opacity="1" fill-rule="nonzero"/></g><g clip-path="url(#f19bd6e65b)"><path fill="#cb6ce6" d="M 283.050781 16.257812 L 645.546875 16.257812 L 645.546875 25.226562 L 283.050781 25.226562 Z M 283.050781 16.257812 " fill-opacity="1" fill-rule="nonzero"/></g><g fill="#000000" fill-opacity="1"><g transform="translate(341.067596, 141.805019)"><g><path d="M 0.578125 -13.109375 L 4.203125 -13.109375 C 5.140625 -13.109375 5.835938 -12.847656 6.296875 -12.328125 C 6.765625 -11.816406 7.003906 -11.050781 7.015625 -10.03125 L 7.046875 -3.890625 C 7.054688 -2.597656 6.832031 -1.625 6.375 -0.96875 C 5.914062 -0.320312 5.160156 0 4.109375 0 L 0.578125 0 Z M 3.671875 -2.328125 C 4.148438 -2.328125 4.390625 -2.554688 4.390625 -3.015625 L 4.390625 -9.78125 C 4.390625 -10.082031 4.367188 -10.304688 4.328125 -10.453125 C 4.285156 -10.597656 4.203125 -10.695312 4.078125 -10.75 C 3.953125 -10.800781 3.765625 -10.828125 3.515625 -10.828125 L 3.21875 -10.828125 L 3.21875 -2.328125 Z M 3.671875 -2.328125 "/></g></g></g><g fill="#000000" fill-opacity="1"><g transform="translate(348.588718, 141.805019)"><g><path d="M 3.65625 0.125 C 2.507812 0.125 1.6875 -0.1875 1.1875 -0.8125 C 0.6875 -1.445312 0.4375 -2.394531 0.4375 -3.65625 L 0.4375 -8.140625 C 0.4375 -9.160156 0.734375 -9.941406 1.328125 -10.484375 C 1.921875 -11.023438 2.742188 -11.296875 3.796875 -11.296875 C 5.941406 -11.296875 7.015625 -10.242188 7.015625 -8.140625 L 7.015625 -7.328125 C 7.015625 -6.515625 7.003906 -5.851562 6.984375 -5.34375 L 3.109375 -5.34375 L 3.109375 -3.171875 C 3.109375 -2.785156 3.148438 -2.484375 3.234375 -2.265625 C 3.316406 -2.046875 3.488281 -1.9375 3.75 -1.9375 C 3.957031 -1.9375 4.101562 -2 4.1875 -2.125 C 4.269531 -2.25 4.316406 -2.390625 4.328125 -2.546875 C 4.347656 -2.703125 4.359375 -2.929688 4.359375 -3.234375 L 4.359375 -4.3125 L 7.015625 -4.3125 L 7.015625 -3.671875 C 7.015625 -2.367188 6.765625 -1.410156 6.265625 -0.796875 C 5.765625 -0.179688 4.894531 0.125 3.65625 0.125 Z M 4.359375 -6.671875 L 4.359375 -8.109375 C 4.359375 -8.910156 4.160156 -9.3125 3.765625 -9.3125 C 3.316406 -9.3125 3.09375 -8.910156 3.09375 -8.109375 L 3.09375 -6.671875 Z M 4.359375 -6.671875 "/></g></g></g><g fill="#000000" fill-opacity="1"><g transform="translate(356.033566, 141.805019)"><g><path d="M 1.953125 0 L 0.171875 -11.171875 L 2.84375 -11.171875 L 3.390625 -5.53125 L 3.484375 -3.703125 L 3.59375 -5.546875 L 4.203125 -11.171875 L 6.875 -11.171875 L 5.046875 0 Z M 1.953125 0 "/></g></g></g><g fill="#000000" fill-opacity="1"><g transform="translate(363.066494, 141.805019)"><g><path d="M 3.65625 0.125 C 2.507812 0.125 1.6875 -0.1875 1.1875 -0.8125 C 0.6875 -1.445312 0.4375 -2.394531 0.4375 -3.65625 L 0.4375 -8.140625 C 0.4375 -9.160156 0.734375 -9.941406 1.328125 -10.484375 C 1.921875 -11.023438 2.742188 -11.296875 3.796875 -11.296875 C 5.941406 -11.296875 7.015625 -10.242188 7.015625 -8.140625 L 7.015625 -7.328125 C 7.015625 -6.515625 7.003906 -5.851562 6.984375 -5.34375 L 3.109375 -5.34375 L 3.109375 -3.171875 C 3.109375 -2.785156 3.148438 -2.484375 3.234375 -2.265625 C 3.316406 -2.046875 3.488281 -1.9375 3.75 -1.9375 C 3.957031 -1.9375 4.101562 -2 4.1875 -2.125 C 4.269531 -2.25 4.316406 -2.390625 4.328125 -2.546875 C 4.347656 -2.703125 4.359375 -2.929688 4.359375 -3.234375 L 4.359375 -4.3125 L 7.015625 -4.3125 L 7.015625 -3.671875 C 7.015625 -2.367188 6.765625 -1.410156 6.265625 -0.796875 C 5.765625 -0.179688 4.894531 0.125 3.65625 0.125 Z M 4.359375 -6.671875 L 4.359375 -8.109375 C 4.359375 -8.910156 4.160156 -9.3125 3.765625 -9.3125 C 3.316406 -9.3125 3.09375 -8.910156 3.09375 -8.109375 L 3.09375 -6.671875 Z M 4.359375 -6.671875 "/></g></g></g><g fill="#000000" fill-opacity="1"><g transform="translate(370.511341, 141.805019)"><g><path d="M 0.53125 0 L 0.53125 -13.1875 L 3.25 -13.1875 L 3.25 0 Z M 0.53125 0 "/></g></g></g><g fill="#000000" fill-opacity="1"><g transform="translate(374.294788, 141.805019)"><g><path d="M 3.78125 0.125 C 1.550781 0.125 0.4375 -1.03125 0.4375 -3.34375 L 0.4375 -7.828125 C 0.4375 -8.890625 0.734375 -9.734375 1.328125 -10.359375 C 1.929688 -10.984375 2.75 -11.296875 3.78125 -11.296875 C 4.820312 -11.296875 5.640625 -10.984375 6.234375 -10.359375 C 6.828125 -9.734375 7.125 -8.890625 7.125 -7.828125 L 7.125 -3.34375 C 7.125 -1.03125 6.007812 0.125 3.78125 0.125 Z M 3.78125 -1.9375 C 4 -1.9375 4.15625 -2.007812 4.25 -2.15625 C 4.351562 -2.3125 4.40625 -2.523438 4.40625 -2.796875 L 4.40625 -8.265625 C 4.40625 -8.910156 4.195312 -9.234375 3.78125 -9.234375 C 3.363281 -9.234375 3.15625 -8.910156 3.15625 -8.265625 L 3.15625 -2.796875 C 3.15625 -2.523438 3.207031 -2.3125 3.3125 -2.15625 C 3.414062 -2.007812 3.570312 -1.9375 3.78125 -1.9375 Z M 3.78125 -1.9375 "/></g></g></g><g fill="#000000" fill-opacity="1"><g transform="translate(381.876932, 141.805019)"><g><path d="M 0.53125 -11.171875 L 3.25 -11.171875 L 3.25 -10.578125 C 3.632812 -11.054688 4.171875 -11.296875 4.859375 -11.296875 C 5.722656 -11.296875 6.320312 -11.003906 6.65625 -10.421875 C 7 -9.847656 7.171875 -9.046875 7.171875 -8.015625 L 7.171875 -3.875 C 7.171875 -3 7.117188 -2.285156 7.015625 -1.734375 C 6.921875 -1.179688 6.695312 -0.734375 6.34375 -0.390625 C 6 -0.046875 5.476562 0.125 4.78125 0.125 C 4.101562 0.125 3.59375 -0.0625 3.25 -0.4375 L 3.25 2.234375 L 0.53125 2.234375 Z M 3.890625 -1.953125 C 4.140625 -1.953125 4.296875 -2.0625 4.359375 -2.28125 C 4.429688 -2.507812 4.46875 -2.835938 4.46875 -3.265625 L 4.46875 -8.015625 C 4.46875 -8.398438 4.429688 -8.691406 4.359375 -8.890625 C 4.296875 -9.097656 4.132812 -9.203125 3.875 -9.203125 C 3.457031 -9.203125 3.25 -8.816406 3.25 -8.046875 L 3.25 -3.140625 C 3.25 -2.765625 3.289062 -2.472656 3.375 -2.265625 C 3.46875 -2.054688 3.640625 -1.953125 3.890625 -1.953125 Z M 3.890625 -1.953125 "/></g></g></g><g fill="#000000" fill-opacity="1"><g transform="translate(389.504847, 141.805019)"><g><path d="M 3.65625 0.125 C 2.507812 0.125 1.6875 -0.1875 1.1875 -0.8125 C 0.6875 -1.445312 0.4375 -2.394531 0.4375 -3.65625 L 0.4375 -8.140625 C 0.4375 -9.160156 0.734375 -9.941406 1.328125 -10.484375 C 1.921875 -11.023438 2.742188 -11.296875 3.796875 -11.296875 C 5.941406 -11.296875 7.015625 -10.242188 7.015625 -8.140625 L 7.015625 -7.328125 C 7.015625 -6.515625 7.003906 -5.851562 6.984375 -5.34375 L 3.109375 -5.34375 L 3.109375 -3.171875 C 3.109375 -2.785156 3.148438 -2.484375 3.234375 -2.265625 C 3.316406 -2.046875 3.488281 -1.9375 3.75 -1.9375 C 3.957031 -1.9375 4.101562 -2 4.1875 -2.125 C 4.269531 -2.25 4.316406 -2.390625 4.328125 -2.546875 C 4.347656 -2.703125 4.359375 -2.929688 4.359375 -3.234375 L 4.359375 -4.3125 L 7.015625 -4.3125 L 7.015625 -3.671875 C 7.015625 -2.367188 6.765625 -1.410156 6.265625 -0.796875 C 5.765625 -0.179688 4.894531 0.125 3.65625 0.125 Z M 4.359375 -6.671875 L 4.359375 -8.109375 C 4.359375 -8.910156 4.160156 -9.3125 3.765625 -9.3125 C 3.316406 -9.3125 3.09375 -8.910156 3.09375 -8.109375 L 3.09375 -6.671875 Z M 4.359375 -6.671875 "/></g></g></g><g fill="#000000" fill-opacity="1"><g transform="translate(396.949694, 141.805019)"><g><path d="M 2.734375 0.125 C 2.078125 0.125 1.582031 -0.03125 1.25 -0.34375 C 0.925781 -0.65625 0.707031 -1.066406 0.59375 -1.578125 C 0.488281 -2.085938 0.4375 -2.75 0.4375 -3.5625 L 0.46875 -8.59375 C 0.46875 -9.382812 0.664062 -10.03125 1.0625 -10.53125 C 1.46875 -11.039062 2.039062 -11.296875 2.78125 -11.296875 C 3.5 -11.296875 4.035156 -11.054688 4.390625 -10.578125 L 4.390625 -13.1875 L 7.0625 -13.1875 L 7.0625 0 L 4.390625 0 L 4.390625 -1.1875 C 4.242188 -0.75 4.039062 -0.421875 3.78125 -0.203125 C 3.519531 0.015625 3.171875 0.125 2.734375 0.125 Z M 3.75 -1.96875 C 4.019531 -1.96875 4.191406 -2.097656 4.265625 -2.359375 C 4.347656 -2.617188 4.390625 -2.96875 4.390625 -3.40625 L 4.390625 -8.078125 C 4.390625 -8.398438 4.34375 -8.671875 4.25 -8.890625 C 4.164062 -9.117188 4.003906 -9.234375 3.765625 -9.234375 C 3.503906 -9.234375 3.328125 -9.128906 3.234375 -8.921875 C 3.148438 -8.710938 3.109375 -8.429688 3.109375 -8.078125 L 3.109375 -3.375 C 3.109375 -2.4375 3.320312 -1.96875 3.75 -1.96875 Z M 3.75 -1.96875 "/></g></g></g><g fill="#000000" fill-opacity="1"><g transform="translate(404.54709, 141.805019)"><g/></g></g><g fill="#000000" fill-opacity="1"><g transform="translate(408.116951, 141.805019)"><g><path d="M 4.859375 0.125 C 4.117188 0.125 3.59375 -0.3125 3.28125 -1.1875 L 3.28125 0 L 0.53125 0 L 0.53125 -13.1875 L 3.28125 -13.1875 L 3.28125 -10.640625 C 3.707031 -11.078125 4.207031 -11.296875 4.78125 -11.296875 C 5.644531 -11.296875 6.265625 -11.035156 6.640625 -10.515625 C 7.015625 -10.003906 7.203125 -9.265625 7.203125 -8.296875 L 7.203125 -2.921875 C 7.203125 -2.003906 7.007812 -1.265625 6.625 -0.703125 C 6.238281 -0.148438 5.648438 0.125 4.859375 0.125 Z M 3.953125 -1.953125 C 4.140625 -1.953125 4.269531 -2.007812 4.34375 -2.125 C 4.414062 -2.25 4.457031 -2.398438 4.46875 -2.578125 C 4.488281 -2.753906 4.5 -3.03125 4.5 -3.40625 L 4.5 -8.0625 C 4.5 -8.457031 4.460938 -8.75 4.390625 -8.9375 C 4.328125 -9.132812 4.175781 -9.234375 3.9375 -9.234375 C 3.6875 -9.234375 3.515625 -9.132812 3.421875 -8.9375 C 3.328125 -8.75 3.28125 -8.46875 3.28125 -8.09375 L 3.28125 -3.40625 C 3.28125 -2.914062 3.320312 -2.550781 3.40625 -2.3125 C 3.488281 -2.070312 3.671875 -1.953125 3.953125 -1.953125 Z M 3.953125 -1.953125 "/></g></g></g><g fill="#000000" fill-opacity="1"><g transform="translate(415.760117, 141.805019)"><g><path d="M 0.328125 0.171875 L 1.609375 0.171875 C 1.785156 0.171875 1.875 0.09375 1.875 -0.0625 C 1.875 -0.132812 1.867188 -0.191406 1.859375 -0.234375 L 0.125 -11.171875 L 2.671875 -11.171875 L 3.171875 -5.71875 L 3.421875 -2.953125 L 3.703125 -5.71875 L 4.3125 -11.171875 L 6.875 -11.171875 L 4.796875 0.578125 C 4.722656 1.015625 4.578125 1.335938 4.359375 1.546875 C 4.140625 1.753906 3.796875 1.859375 3.328125 1.859375 L 0.328125 1.859375 Z M 0.328125 0.171875 "/></g></g></g><g fill="#000000" fill-opacity="1"><g transform="translate(422.793046, 141.805019)"><g/></g></g><g fill="#000000" fill-opacity="1"><g transform="translate(426.362906, 141.805019)"><g><path d="M 3.28125 0.125 C 2.332031 0.125 1.625 -0.207031 1.15625 -0.875 C 0.695312 -1.539062 0.46875 -2.550781 0.46875 -3.90625 L 0.46875 -9.5625 C 0.46875 -10.769531 0.738281 -11.679688 1.28125 -12.296875 C 1.820312 -12.921875 2.625 -13.234375 3.6875 -13.234375 C 4.550781 -13.234375 5.222656 -13.0625 5.703125 -12.71875 C 6.179688 -12.375 6.507812 -11.867188 6.6875 -11.203125 C 6.875 -10.546875 6.96875 -9.695312 6.96875 -8.65625 L 4.40625 -8.65625 L 4.40625 -9.828125 C 4.40625 -10.140625 4.363281 -10.382812 4.28125 -10.5625 C 4.195312 -10.738281 4.039062 -10.828125 3.8125 -10.828125 C 3.3125 -10.828125 3.0625 -10.5 3.0625 -9.84375 L 3.0625 -3.5 C 3.0625 -3.101562 3.113281 -2.800781 3.21875 -2.59375 C 3.320312 -2.394531 3.5 -2.296875 3.75 -2.296875 C 4.007812 -2.296875 4.1875 -2.394531 4.28125 -2.59375 C 4.382812 -2.800781 4.4375 -3.101562 4.4375 -3.5 L 4.4375 -5.375 L 3.734375 -5.375 L 3.734375 -7.640625 L 6.953125 -7.640625 L 6.953125 0 L 5.890625 0 L 5.453125 -1.09375 C 4.984375 -0.28125 4.257812 0.125 3.28125 0.125 Z M 3.28125 0.125 "/></g></g></g><g fill="#000000" fill-opacity="1"><g transform="translate(433.761983, 141.805019)"><g><path d="M 3.78125 0.125 C 1.550781 0.125 0.4375 -1.03125 0.4375 -3.34375 L 0.4375 -7.828125 C 0.4375 -8.890625 0.734375 -9.734375 1.328125 -10.359375 C 1.929688 -10.984375 2.75 -11.296875 3.78125 -11.296875 C 4.820312 -11.296875 5.640625 -10.984375 6.234375 -10.359375 C 6.828125 -9.734375 7.125 -8.890625 7.125 -7.828125 L 7.125 -3.34375 C 7.125 -1.03125 6.007812 0.125 3.78125 0.125 Z M 3.78125 -1.9375 C 4 -1.9375 4.15625 -2.007812 4.25 -2.15625 C 4.351562 -2.3125 4.40625 -2.523438 4.40625 -2.796875 L 4.40625 -8.265625 C 4.40625 -8.910156 4.195312 -9.234375 3.78125 -9.234375 C 3.363281 -9.234375 3.15625 -8.910156 3.15625 -8.265625 L 3.15625 -2.796875 C 3.15625 -2.523438 3.207031 -2.3125 3.3125 -2.15625 C 3.414062 -2.007812 3.570312 -1.9375 3.78125 -1.9375 Z M 3.78125 -1.9375 "/></g></g></g><g fill="#000000" fill-opacity="1"><g transform="translate(441.344128, 141.805019)"><g><path d="M 1.953125 0 L 0.171875 -11.171875 L 2.84375 -11.171875 L 3.390625 -5.53125 L 3.484375 -3.703125 L 3.59375 -5.546875 L 4.203125 -11.171875 L 6.875 -11.171875 L 5.046875 0 Z M 1.953125 0 "/></g></g></g><g fill="#000000" fill-opacity="1"><g transform="translate(448.377056, 141.805019)"><g><path d="M 3.65625 0.125 C 2.507812 0.125 1.6875 -0.1875 1.1875 -0.8125 C 0.6875 -1.445312 0.4375 -2.394531 0.4375 -3.65625 L 0.4375 -8.140625 C 0.4375 -9.160156 0.734375 -9.941406 1.328125 -10.484375 C 1.921875 -11.023438 2.742188 -11.296875 3.796875 -11.296875 C 5.941406 -11.296875 7.015625 -10.242188 7.015625 -8.140625 L 7.015625 -7.328125 C 7.015625 -6.515625 7.003906 -5.851562 6.984375 -5.34375 L 3.109375 -5.34375 L 3.109375 -3.171875 C 3.109375 -2.785156 3.148438 -2.484375 3.234375 -2.265625 C 3.316406 -2.046875 3.488281 -1.9375 3.75 -1.9375 C 3.957031 -1.9375 4.101562 -2 4.1875 -2.125 C 4.269531 -2.25 4.316406 -2.390625 4.328125 -2.546875 C 4.347656 -2.703125 4.359375 -2.929688 4.359375 -3.234375 L 4.359375 -4.3125 L 7.015625 -4.3125 L 7.015625 -3.671875 C 7.015625 -2.367188 6.765625 -1.410156 6.265625 -0.796875 C 5.765625 -0.179688 4.894531 0.125 3.65625 0.125 Z M 4.359375 -6.671875 L 4.359375 -8.109375 C 4.359375 -8.910156 4.160156 -9.3125 3.765625 -9.3125 C 3.316406 -9.3125 3.09375 -8.910156 3.09375 -8.109375 L 3.09375 -6.671875 Z M 4.359375 -6.671875 "/></g></g></g><g fill="#000000" fill-opacity="1"><g transform="translate(455.821903, 141.805019)"><g><path d="M 0.53125 -11.171875 L 3.203125 -11.171875 L 3.203125 -9.9375 C 3.335938 -10.375 3.566406 -10.710938 3.890625 -10.953125 C 4.222656 -11.191406 4.632812 -11.3125 5.125 -11.3125 L 5.125 -9.078125 C 4.75 -9.078125 4.332031 -9.023438 3.875 -8.921875 C 3.425781 -8.816406 3.203125 -8.691406 3.203125 -8.546875 L 3.203125 0 L 0.53125 0 Z M 0.53125 -11.171875 "/></g></g></g><g fill="#000000" fill-opacity="1"><g transform="translate(461.069901, 141.805019)"><g><path d="M 0.53125 -11.171875 L 3.203125 -11.171875 L 3.203125 -9.75 C 3.316406 -10.207031 3.507812 -10.578125 3.78125 -10.859375 C 4.0625 -11.148438 4.429688 -11.296875 4.890625 -11.296875 C 5.640625 -11.296875 6.191406 -11.0625 6.546875 -10.59375 C 6.910156 -10.132812 7.09375 -9.476562 7.09375 -8.625 L 7.09375 0 L 4.46875 0 L 4.46875 -8.34375 C 4.46875 -8.59375 4.421875 -8.800781 4.328125 -8.96875 C 4.234375 -9.144531 4.082031 -9.234375 3.875 -9.234375 C 3.601562 -9.234375 3.421875 -9.109375 3.328125 -8.859375 C 3.242188 -8.609375 3.203125 -8.273438 3.203125 -7.859375 L 3.203125 0 L 0.53125 0 Z M 0.53125 -11.171875 "/></g></g></g><g fill="#000000" fill-opacity="1"><g transform="translate(468.682564, 141.805019)"><g><path d="M 0.53125 -11.171875 L 3.140625 -11.171875 L 3.140625 -9.875 C 3.265625 -10.351562 3.472656 -10.707031 3.765625 -10.9375 C 4.066406 -11.175781 4.484375 -11.296875 5.015625 -11.296875 C 5.453125 -11.296875 5.832031 -11.195312 6.15625 -11 C 6.476562 -10.800781 6.707031 -10.53125 6.84375 -10.1875 C 7.0625 -10.570312 7.304688 -10.851562 7.578125 -11.03125 C 7.859375 -11.207031 8.242188 -11.296875 8.734375 -11.296875 C 9.609375 -11.296875 10.210938 -11.023438 10.546875 -10.484375 C 10.890625 -9.953125 11.0625 -9.179688 11.0625 -8.171875 L 11.03125 0 L 8.34375 0 L 8.34375 -8.21875 C 8.34375 -8.9375 8.160156 -9.296875 7.796875 -9.296875 C 7.546875 -9.296875 7.363281 -9.171875 7.25 -8.921875 C 7.132812 -8.671875 7.078125 -8.375 7.078125 -8.03125 L 7.078125 0 L 4.40625 0 L 4.40625 -8.21875 C 4.40625 -8.53125 4.375 -8.78125 4.3125 -8.96875 C 4.25 -9.164062 4.109375 -9.265625 3.890625 -9.265625 C 3.617188 -9.265625 3.425781 -9.128906 3.3125 -8.859375 C 3.195312 -8.585938 3.140625 -8.265625 3.140625 -7.890625 L 3.140625 0 L 0.53125 0 Z M 0.53125 -11.171875 "/></g></g></g><g fill="#000000" fill-opacity="1"><g transform="translate(480.246473, 141.805019)"><g><path d="M 3.65625 0.125 C 2.507812 0.125 1.6875 -0.1875 1.1875 -0.8125 C 0.6875 -1.445312 0.4375 -2.394531 0.4375 -3.65625 L 0.4375 -8.140625 C 0.4375 -9.160156 0.734375 -9.941406 1.328125 -10.484375 C 1.921875 -11.023438 2.742188 -11.296875 3.796875 -11.296875 C 5.941406 -11.296875 7.015625 -10.242188 7.015625 -8.140625 L 7.015625 -7.328125 C 7.015625 -6.515625 7.003906 -5.851562 6.984375 -5.34375 L 3.109375 -5.34375 L 3.109375 -3.171875 C 3.109375 -2.785156 3.148438 -2.484375 3.234375 -2.265625 C 3.316406 -2.046875 3.488281 -1.9375 3.75 -1.9375 C 3.957031 -1.9375 4.101562 -2 4.1875 -2.125 C 4.269531 -2.25 4.316406 -2.390625 4.328125 -2.546875 C 4.347656 -2.703125 4.359375 -2.929688 4.359375 -3.234375 L 4.359375 -4.3125 L 7.015625 -4.3125 L 7.015625 -3.671875 C 7.015625 -2.367188 6.765625 -1.410156 6.265625 -0.796875 C 5.765625 -0.179688 4.894531 0.125 3.65625 0.125 Z M 4.359375 -6.671875 L 4.359375 -8.109375 C 4.359375 -8.910156 4.160156 -9.3125 3.765625 -9.3125 C 3.316406 -9.3125 3.09375 -8.910156 3.09375 -8.109375 L 3.09375 -6.671875 Z M 4.359375 -6.671875 "/></g></g></g><g fill="#000000" fill-opacity="1"><g transform="translate(487.691321, 141.805019)"><g><path d="M 0.53125 -11.171875 L 3.203125 -11.171875 L 3.203125 -9.75 C 3.316406 -10.207031 3.507812 -10.578125 3.78125 -10.859375 C 4.0625 -11.148438 4.429688 -11.296875 4.890625 -11.296875 C 5.640625 -11.296875 6.191406 -11.0625 6.546875 -10.59375 C 6.910156 -10.132812 7.09375 -9.476562 7.09375 -8.625 L 7.09375 0 L 4.46875 0 L 4.46875 -8.34375 C 4.46875 -8.59375 4.421875 -8.800781 4.328125 -8.96875 C 4.234375 -9.144531 4.082031 -9.234375 3.875 -9.234375 C 3.601562 -9.234375 3.421875 -9.109375 3.328125 -8.859375 C 3.242188 -8.609375 3.203125 -8.273438 3.203125 -7.859375 L 3.203125 0 L 0.53125 0 Z M 0.53125 -11.171875 "/></g></g></g><g fill="#000000" fill-opacity="1"><g transform="translate(495.303984, 141.805019)"><g><path d="M 2.84375 0.125 C 2.132812 0.125 1.648438 -0.0195312 1.390625 -0.3125 C 1.128906 -0.613281 1 -1.085938 1 -1.734375 L 1 -8.71875 L 0.25 -8.71875 L 0.25 -10.75 L 1 -10.75 L 1 -13.109375 L 3.59375 -13.109375 L 3.59375 -10.75 L 4.34375 -10.75 L 4.34375 -8.71875 L 3.59375 -8.71875 L 3.59375 -2.4375 C 3.59375 -2.25 3.601562 -2.109375 3.625 -2.015625 C 3.65625 -1.921875 3.738281 -1.875 3.875 -1.875 C 3.976562 -1.875 4.078125 -1.878906 4.171875 -1.890625 C 4.265625 -1.898438 4.320312 -1.90625 4.34375 -1.90625 L 4.34375 -0.078125 C 4.195312 -0.0351562 3.976562 0.00390625 3.6875 0.046875 C 3.394531 0.0976562 3.113281 0.125 2.84375 0.125 Z M 2.84375 0.125 "/></g></g></g><g fill="#000000" fill-opacity="1"><g transform="translate(499.95701, 141.805019)"><g/></g></g><g fill="#000000" fill-opacity="1"><g transform="translate(503.52687, 141.805019)"><g><path d="M 0.515625 -11.921875 L 0.515625 -13.78125 L 3.1875 -13.78125 L 3.1875 -11.921875 Z M 0.515625 0 L 0.515625 -11.171875 L 3.1875 -11.171875 L 3.1875 0 Z M 0.515625 0 "/></g></g></g><g fill="#000000" fill-opacity="1"><g transform="translate(507.234042, 141.805019)"><g><path d="M 0.53125 -11.171875 L 3.203125 -11.171875 L 3.203125 -9.75 C 3.316406 -10.207031 3.507812 -10.578125 3.78125 -10.859375 C 4.0625 -11.148438 4.429688 -11.296875 4.890625 -11.296875 C 5.640625 -11.296875 6.191406 -11.0625 6.546875 -10.59375 C 6.910156 -10.132812 7.09375 -9.476562 7.09375 -8.625 L 7.09375 0 L 4.46875 0 L 4.46875 -8.34375 C 4.46875 -8.59375 4.421875 -8.800781 4.328125 -8.96875 C 4.234375 -9.144531 4.082031 -9.234375 3.875 -9.234375 C 3.601562 -9.234375 3.421875 -9.109375 3.328125 -8.859375 C 3.242188 -8.609375 3.203125 -8.273438 3.203125 -7.859375 L 3.203125 0 L 0.53125 0 Z M 0.53125 -11.171875 "/></g></g></g><g fill="#000000" fill-opacity="1"><g transform="translate(514.846705, 141.805019)"><g><path d="M 0.53125 -11.171875 L 3.203125 -11.171875 L 3.203125 -9.75 C 3.316406 -10.207031 3.507812 -10.578125 3.78125 -10.859375 C 4.0625 -11.148438 4.429688 -11.296875 4.890625 -11.296875 C 5.640625 -11.296875 6.191406 -11.0625 6.546875 -10.59375 C 6.910156 -10.132812 7.09375 -9.476562 7.09375 -8.625 L 7.09375 0 L 4.46875 0 L 4.46875 -8.34375 C 4.46875 -8.59375 4.421875 -8.800781 4.328125 -8.96875 C 4.234375 -9.144531 4.082031 -9.234375 3.875 -9.234375 C 3.601562 -9.234375 3.421875 -9.109375 3.328125 -8.859375 C 3.242188 -8.609375 3.203125 -8.273438 3.203125 -7.859375 L 3.203125 0 L 0.53125 0 Z M 0.53125 -11.171875 "/></g></g></g><g fill="#000000" fill-opacity="1"><g transform="translate(522.459368, 141.805019)"><g><path d="M 3.78125 0.125 C 1.550781 0.125 0.4375 -1.03125 0.4375 -3.34375 L 0.4375 -7.828125 C 0.4375 -8.890625 0.734375 -9.734375 1.328125 -10.359375 C 1.929688 -10.984375 2.75 -11.296875 3.78125 -11.296875 C 4.820312 -11.296875 5.640625 -10.984375 6.234375 -10.359375 C 6.828125 -9.734375 7.125 -8.890625 7.125 -7.828125 L 7.125 -3.34375 C 7.125 -1.03125 6.007812 0.125 3.78125 0.125 Z M 3.78125 -1.9375 C 4 -1.9375 4.15625 -2.007812 4.25 -2.15625 C 4.351562 -2.3125 4.40625 -2.523438 4.40625 -2.796875 L 4.40625 -8.265625 C 4.40625 -8.910156 4.195312 -9.234375 3.78125 -9.234375 C 3.363281 -9.234375 3.15625 -8.910156 3.15625 -8.265625 L 3.15625 -2.796875 C 3.15625 -2.523438 3.207031 -2.3125 3.3125 -2.15625 C 3.414062 -2.007812 3.570312 -1.9375 3.78125 -1.9375 Z M 3.78125 -1.9375 "/></g></g></g><g fill="#000000" fill-opacity="1"><g transform="translate(530.041512, 141.805019)"><g><path d="M 1.953125 0 L 0.171875 -11.171875 L 2.84375 -11.171875 L 3.390625 -5.53125 L 3.484375 -3.703125 L 3.59375 -5.546875 L 4.203125 -11.171875 L 6.875 -11.171875 L 5.046875 0 Z M 1.953125 0 "/></g></g></g><g fill="#000000" fill-opacity="1"><g transform="translate(537.07444, 141.805019)"><g><path d="M 2.5625 0.125 C 1.695312 0.125 1.101562 -0.160156 0.78125 -0.734375 C 0.46875 -1.316406 0.3125 -2.140625 0.3125 -3.203125 C 0.3125 -4.078125 0.425781 -4.75 0.65625 -5.21875 C 0.882812 -5.6875 1.203125 -6.03125 1.609375 -6.25 C 2.015625 -6.46875 2.632812 -6.707031 3.46875 -6.96875 L 4.203125 -7.21875 L 4.203125 -8.359375 C 4.203125 -8.660156 4.140625 -8.890625 4.015625 -9.046875 C 3.898438 -9.203125 3.765625 -9.28125 3.609375 -9.28125 C 3.460938 -9.28125 3.332031 -9.210938 3.21875 -9.078125 C 3.113281 -8.953125 3.0625 -8.773438 3.0625 -8.546875 L 3.0625 -7.875 L 0.46875 -7.875 L 0.46875 -8.25 C 0.46875 -9.34375 0.722656 -10.125 1.234375 -10.59375 C 1.753906 -11.0625 2.59375 -11.296875 3.75 -11.296875 C 4.675781 -11.296875 5.429688 -11.050781 6.015625 -10.5625 C 6.597656 -10.082031 6.890625 -9.398438 6.890625 -8.515625 L 6.890625 0 L 4.234375 0 L 4.234375 -1.328125 C 4.097656 -0.867188 3.882812 -0.507812 3.59375 -0.25 C 3.300781 0 2.957031 0.125 2.5625 0.125 Z M 3.625 -1.953125 C 3.820312 -1.953125 3.960938 -2.035156 4.046875 -2.203125 C 4.140625 -2.367188 4.1875 -2.578125 4.1875 -2.828125 L 4.1875 -5.9375 C 3.789062 -5.78125 3.492188 -5.582031 3.296875 -5.34375 C 3.109375 -5.113281 3.015625 -4.789062 3.015625 -4.375 L 3.015625 -2.953125 C 3.015625 -2.285156 3.21875 -1.953125 3.625 -1.953125 Z M 3.625 -1.953125 "/></g></g></g><g fill="#000000" fill-opacity="1"><g transform="translate(544.442999, 141.805019)"><g><path d="M 2.84375 0.125 C 2.132812 0.125 1.648438 -0.0195312 1.390625 -0.3125 C 1.128906 -0.613281 1 -1.085938 1 -1.734375 L 1 -8.71875 L 0.25 -8.71875 L 0.25 -10.75 L 1 -10.75 L 1 -13.109375 L 3.59375 -13.109375 L 3.59375 -10.75 L 4.34375 -10.75 L 4.34375 -8.71875 L 3.59375 -8.71875 L 3.59375 -2.4375 C 3.59375 -2.25 3.601562 -2.109375 3.625 -2.015625 C 3.65625 -1.921875 3.738281 -1.875 3.875 -1.875 C 3.976562 -1.875 4.078125 -1.878906 4.171875 -1.890625 C 4.265625 -1.898438 4.320312 -1.90625 4.34375 -1.90625 L 4.34375 -0.078125 C 4.195312 -0.0351562 3.976562 0.00390625 3.6875 0.046875 C 3.394531 0.0976562 3.113281 0.125 2.84375 0.125 Z M 2.84375 0.125 "/></g></g></g><g fill="#000000" fill-opacity="1"><g transform="translate(549.096025, 141.805019)"><g><path d="M 0.515625 -11.921875 L 0.515625 -13.78125 L 3.1875 -13.78125 L 3.1875 -11.921875 Z M 0.515625 0 L 0.515625 -11.171875 L 3.1875 -11.171875 L 3.1875 0 Z M 0.515625 0 "/></g></g></g><g fill="#000000" fill-opacity="1"><g transform="translate(552.803197, 141.805019)"><g><path d="M 3.78125 0.125 C 1.550781 0.125 0.4375 -1.03125 0.4375 -3.34375 L 0.4375 -7.828125 C 0.4375 -8.890625 0.734375 -9.734375 1.328125 -10.359375 C 1.929688 -10.984375 2.75 -11.296875 3.78125 -11.296875 C 4.820312 -11.296875 5.640625 -10.984375 6.234375 -10.359375 C 6.828125 -9.734375 7.125 -8.890625 7.125 -7.828125 L 7.125 -3.34375 C 7.125 -1.03125 6.007812 0.125 3.78125 0.125 Z M 3.78125 -1.9375 C 4 -1.9375 4.15625 -2.007812 4.25 -2.15625 C 4.351562 -2.3125 4.40625 -2.523438 4.40625 -2.796875 L 4.40625 -8.265625 C 4.40625 -8.910156 4.195312 -9.234375 3.78125 -9.234375 C 3.363281 -9.234375 3.15625 -8.910156 3.15625 -8.265625 L 3.15625 -2.796875 C 3.15625 -2.523438 3.207031 -2.3125 3.3125 -2.15625 C 3.414062 -2.007812 3.570312 -1.9375 3.78125 -1.9375 Z M 3.78125 -1.9375 "/></g></g></g><g fill="#000000" fill-opacity="1"><g transform="translate(560.385341, 141.805019)"><g><path d="M 0.53125 -11.171875 L 3.203125 -11.171875 L 3.203125 -9.75 C 3.316406 -10.207031 3.507812 -10.578125 3.78125 -10.859375 C 4.0625 -11.148438 4.429688 -11.296875 4.890625 -11.296875 C 5.640625 -11.296875 6.191406 -11.0625 6.546875 -10.59375 C 6.910156 -10.132812 7.09375 -9.476562 7.09375 -8.625 L 7.09375 0 L 4.46875 0 L 4.46875 -8.34375 C 4.46875 -8.59375 4.421875 -8.800781 4.328125 -8.96875 C 4.234375 -9.144531 4.082031 -9.234375 3.875 -9.234375 C 3.601562 -9.234375 3.421875 -9.109375 3.328125 -8.859375 C 3.242188 -8.609375 3.203125 -8.273438 3.203125 -7.859375 L 3.203125 0 L 0.53125 0 Z M 0.53125 -11.171875 "/></g></g></g><g fill="#000000" fill-opacity="1"><g transform="translate(567.998004, 141.805019)"><g/></g></g><g fill="#000000" fill-opacity="1"><g transform="translate(571.567864, 141.805019)"><g><path d="M 0.53125 0 L 0.53125 -13.1875 L 3.25 -13.1875 L 3.25 0 Z M 0.53125 0 "/></g></g></g><g fill="#000000" fill-opacity="1"><g transform="translate(575.35131, 141.805019)"><g><path d="M 2.5625 0.125 C 1.695312 0.125 1.101562 -0.160156 0.78125 -0.734375 C 0.46875 -1.316406 0.3125 -2.140625 0.3125 -3.203125 C 0.3125 -4.078125 0.425781 -4.75 0.65625 -5.21875 C 0.882812 -5.6875 1.203125 -6.03125 1.609375 -6.25 C 2.015625 -6.46875 2.632812 -6.707031 3.46875 -6.96875 L 4.203125 -7.21875 L 4.203125 -8.359375 C 4.203125 -8.660156 4.140625 -8.890625 4.015625 -9.046875 C 3.898438 -9.203125 3.765625 -9.28125 3.609375 -9.28125 C 3.460938 -9.28125 3.332031 -9.210938 3.21875 -9.078125 C 3.113281 -8.953125 3.0625 -8.773438 3.0625 -8.546875 L 3.0625 -7.875 L 0.46875 -7.875 L 0.46875 -8.25 C 0.46875 -9.34375 0.722656 -10.125 1.234375 -10.59375 C 1.753906 -11.0625 2.59375 -11.296875 3.75 -11.296875 C 4.675781 -11.296875 5.429688 -11.050781 6.015625 -10.5625 C 6.597656 -10.082031 6.890625 -9.398438 6.890625 -8.515625 L 6.890625 0 L 4.234375 0 L 4.234375 -1.328125 C 4.097656 -0.867188 3.882812 -0.507812 3.59375 -0.25 C 3.300781 0 2.957031 0.125 2.5625 0.125 Z M 3.625 -1.953125 C 3.820312 -1.953125 3.960938 -2.035156 4.046875 -2.203125 C 4.140625 -2.367188 4.1875 -2.578125 4.1875 -2.828125 L 4.1875 -5.9375 C 3.789062 -5.78125 3.492188 -5.582031 3.296875 -5.34375 C 3.109375 -5.113281 3.015625 -4.789062 3.015625 -4.375 L 3.015625 -2.953125 C 3.015625 -2.285156 3.21875 -1.953125 3.625 -1.953125 Z M 3.625 -1.953125 "/></g></g></g><g fill="#000000" fill-opacity="1"><g transform="translate(582.719869, 141.805019)"><g><path d="M 4.859375 0.125 C 4.117188 0.125 3.59375 -0.3125 3.28125 -1.1875 L 3.28125 0 L 0.53125 0 L 0.53125 -13.1875 L 3.28125 -13.1875 L 3.28125 -10.640625 C 3.707031 -11.078125 4.207031 -11.296875 4.78125 -11.296875 C 5.644531 -11.296875 6.265625 -11.035156 6.640625 -10.515625 C 7.015625 -10.003906 7.203125 -9.265625 7.203125 -8.296875 L 7.203125 -2.921875 C 7.203125 -2.003906 7.007812 -1.265625 6.625 -0.703125 C 6.238281 -0.148438 5.648438 0.125 4.859375 0.125 Z M 3.953125 -1.953125 C 4.140625 -1.953125 4.269531 -2.007812 4.34375 -2.125 C 4.414062 -2.25 4.457031 -2.398438 4.46875 -2.578125 C 4.488281 -2.753906 4.5 -3.03125 4.5 -3.40625 L 4.5 -8.0625 C 4.5 -8.457031 4.460938 -8.75 4.390625 -8.9375 C 4.328125 -9.132812 4.175781 -9.234375 3.9375 -9.234375 C 3.6875 -9.234375 3.515625 -9.132812 3.421875 -8.9375 C 3.328125 -8.75 3.28125 -8.46875 3.28125 -8.09375 L 3.28125 -3.40625 C 3.28125 -2.914062 3.320312 -2.550781 3.40625 -2.3125 C 3.488281 -2.070312 3.671875 -1.953125 3.953125 -1.953125 Z M 3.953125 -1.953125 "/></g></g></g><g fill="#000000" fill-opacity="1"><g transform="translate(590.36638, 141.805019)"><g/></g></g><g clip-path="url(#b7535dadc6)"><path fill="#000000" d="M 288.902344 134.136719 L 329 134.136719 L 329 139.804688 L 288.902344 139.804688 Z M 288.902344 134.136719 " fill-opacity="1" fill-rule="nonzero"/></g><g clip-path="url(#4aeadc7f8d)"><path fill="#000000" d="M 599.421875 135 L 639.519531 135 L 639.519531 140.667969 L 599.421875 140.667969 Z M 599.421875 135 " fill-opacity="1" fill-rule="nonzero"/></g><path fill="#cb6ce6" d="M 87.699219 112.117188 L 86.371094 112.117188 C 73.003906 112.117188 62.082031 101.199219 62.082031 87.828125 L 62.082031 73.234375 C 62.082031 67.214844 67.183594 61.296875 73.308594 62.417969 C 95.558594 66.195312 98.007812 54.558594 100.964844 58.640625 C 106.375 65.988281 111.886719 63.847656 111.886719 67.214844 L 111.886719 87.929688 C 111.886719 101.199219 101.066406 112.117188 87.699219 112.117188 Z M 71.878906 66.296875 C 68.613281 66.296875 66.164062 70.070312 66.164062 73.234375 L 66.164062 87.828125 C 66.164062 98.953125 75.246094 108.035156 86.371094 108.035156 L 87.699219 108.035156 C 98.824219 108.035156 107.804688 98.953125 107.804688 87.828125 L 107.804688 68.644531 C 104.230469 67.316406 101.273438 65.273438 98.925781 62.621094 C 89.945312 68.335938 80.554688 67.828125 72.59375 66.398438 C 72.390625 66.398438 72.085938 66.296875 71.878906 66.296875 Z M 71.878906 66.296875 " fill-opacity="1" fill-rule="evenodd"/><path fill="#cb6ce6" d="M 116.988281 77.929688 C 115.867188 77.929688 114.949219 77.011719 114.949219 75.890625 L 114.949219 60.273438 C 114.742188 52.417969 108.621094 50.171875 103.109375 46.394531 C 97.597656 42.617188 93.515625 39.761719 87.1875 39.761719 C 71.675781 39.761719 59.121094 52.3125 59.121094 67.828125 L 59.121094 75.890625 C 59.121094 78.542969 55.039062 78.542969 55.039062 75.890625 L 55.039062 67.828125 C 55.039062 49.96875 69.328125 35.679688 87.800781 35.679688 C 97.191406 35.679688 103.621094 42.3125 110.863281 46.597656 C 115.765625 49.355469 118.621094 54.253906 119.03125 60.171875 L 119.03125 75.890625 C 119.03125 77.011719 118.109375 77.929688 116.988281 77.929688 Z M 116.988281 77.929688 " fill-opacity="1" fill-rule="evenodd"/><path fill="#cb6ce6" d="M 114.027344 89.667969 C 106.375 89.667969 107.804688 91.300781 107.804688 74.5625 C 107.804688 71.910156 111.273438 72.519531 114.027344 72.519531 C 117.398438 72.519531 120.152344 75.277344 120.152344 78.746094 L 120.152344 83.441406 C 120.152344 86.910156 117.398438 89.667969 114.027344 89.667969 Z M 111.886719 85.585938 C 116.683594 85.585938 116.070312 85.378906 116.070312 78.746094 C 116.070312 76.296875 113.417969 76.601562 111.886719 76.601562 Z M 111.886719 85.585938 " fill-opacity="1" fill-rule="evenodd"/><path fill="#cb6ce6" d="M 64.125 89.667969 L 60.042969 89.667969 C 56.671875 89.667969 53.917969 86.910156 53.917969 83.542969 L 53.917969 78.746094 C 53.917969 75.277344 56.671875 72.519531 60.042969 72.519531 C 67.695312 72.519531 66.164062 70.886719 66.164062 87.625 C 66.164062 88.746094 65.246094 89.667969 64.125 89.667969 Z M 60.042969 76.601562 C 57.285156 76.601562 58 80.378906 58 83.441406 C 58 85.890625 60.652344 85.585938 62.082031 85.585938 L 62.082031 76.601562 Z M 60.042969 76.601562 " fill-opacity="1" fill-rule="evenodd"/><g clip-path="url(#40002b7866)"><path fill="#cb6ce6" d="M 137.296875 144.675781 L 114.4375 144.675781 C 111.785156 144.675781 111.785156 140.59375 114.4375 140.59375 L 137.296875 140.59375 C 146.378906 140.59375 153.726562 133.246094 153.726562 124.160156 L 153.726562 101.300781 C 153.726562 98.648438 157.808594 98.648438 157.808594 101.300781 L 157.808594 124.160156 C 157.808594 135.488281 148.625 144.675781 137.296875 144.675781 Z M 59.53125 144.675781 L 36.773438 144.675781 C 25.445312 144.675781 16.261719 135.488281 16.261719 124.160156 L 16.261719 101.300781 C 16.261719 98.648438 20.34375 98.648438 20.34375 101.300781 L 20.34375 124.160156 C 20.34375 133.246094 27.691406 140.59375 36.773438 140.59375 L 59.53125 140.59375 C 62.285156 140.59375 62.285156 144.675781 59.53125 144.675781 Z M 155.769531 48.4375 C 154.648438 48.4375 153.726562 47.621094 153.726562 46.394531 L 153.726562 23.636719 C 153.726562 14.554688 146.378906 7.207031 137.296875 7.207031 L 114.4375 7.207031 C 111.785156 7.207031 111.785156 3.125 114.4375 3.125 L 137.296875 3.125 C 148.625 3.125 157.808594 12.308594 157.808594 23.636719 L 157.808594 46.394531 C 157.808594 47.621094 156.890625 48.4375 155.769531 48.4375 Z M 18.300781 48.4375 C 17.179688 48.4375 16.261719 47.621094 16.261719 46.394531 L 16.261719 23.636719 C 16.261719 12.308594 25.445312 3.125 36.773438 3.125 L 59.53125 3.125 C 62.285156 3.125 62.285156 7.207031 59.53125 7.207031 L 36.773438 7.207031 C 27.691406 7.207031 20.34375 14.554688 20.34375 23.636719 L 20.34375 46.394531 C 20.34375 47.621094 19.421875 48.4375 18.300781 48.4375 Z M 18.300781 48.4375 " fill-opacity="1" fill-rule="evenodd"/></g><path fill="#cb6ce6" d="M 133.929688 124.671875 L 40.140625 124.671875 C 39.019531 124.671875 38.101562 123.753906 38.101562 122.628906 L 38.101562 25.066406 C 38.101562 23.941406 39.019531 23.023438 40.140625 23.023438 L 133.929688 23.023438 C 135.050781 23.023438 135.96875 23.941406 135.96875 25.066406 L 135.96875 122.628906 C 135.96875 123.753906 135.050781 124.671875 133.929688 124.671875 Z M 42.183594 120.589844 L 131.886719 120.589844 L 131.886719 27.105469 L 42.183594 27.105469 Z M 42.183594 120.589844 " fill-opacity="1" fill-rule="evenodd"/><g clip-path="url(#bb64c5aed0)"><path fill="#cb6ce6" d="M 171.996094 75.890625 L 1.972656 75.890625 C -0.679688 75.890625 -0.679688 71.808594 1.972656 71.808594 L 171.996094 71.808594 C 174.75 71.808594 174.75 75.890625 171.996094 75.890625 Z M 171.996094 75.890625 " fill-opacity="1" fill-rule="evenodd"/></g></svg>