<svg xmlns="http://www.w3.org/2000/svg" xmlns:xlink="http://www.w3.org/1999/xlink" width="3000" zoomAndPan="magnify" viewBox="0 0 2250 599.999999" height="800" preserveAspectRatio="xMidYMid meet" version="1.0"><defs><g/><clipPath id="3d3ca6a77d"><path d="M 826.980469 421.621094 L 1931.339844 421.621094 L 1931.339844 448.976562 L 826.980469 448.976562 Z M 826.980469 421.621094 " clip-rule="nonzero"/></clipPath><clipPath id="5dc858bc66"><path d="M 825.371094 124.449219 L 1931.339844 124.449219 L 1931.339844 151.800781 L 825.371094 151.800781 Z M 825.371094 124.449219 " clip-rule="nonzero"/></clipPath><clipPath id="cf99118ae8"><path d="M 935.351562 484.082031 L 939.140625 484.082031 L 939.140625 501.375 L 935.351562 501.375 Z M 882.925781 484.082031 L 886.710938 484.082031 L 886.710938 501.375 L 882.925781 501.375 Z M 900.398438 484.082031 L 904.1875 484.082031 L 904.1875 501.375 L 900.398438 501.375 Z M 891.664062 484.082031 L 895.449219 484.082031 L 895.449219 501.375 L 891.664062 501.375 Z M 847.972656 484.082031 L 851.761719 484.082031 L 851.761719 501.375 L 847.972656 501.375 Z M 874.1875 484.082031 L 877.972656 484.082031 L 877.972656 501.375 L 874.1875 501.375 Z M 856.710938 484.082031 L 860.5 484.082031 L 860.5 501.375 L 856.710938 501.375 Z M 865.449219 484.082031 L 869.238281 484.082031 L 869.238281 501.375 L 865.449219 501.375 Z M 917.875 484.082031 L 921.664062 484.082031 L 921.664062 501.375 L 917.875 501.375 Z M 944.089844 484.082031 L 947.878906 484.082031 L 947.878906 501.375 L 944.089844 501.375 Z M 952.828125 484.082031 L 956.617188 484.082031 L 956.617188 501.375 L 952.828125 501.375 Z M 961.566406 484.082031 L 965.355469 484.082031 L 965.355469 501.375 L 961.566406 501.375 Z M 926.613281 484.082031 L 930.402344 484.082031 L 930.402344 501.375 L 926.613281 501.375 Z M 909.136719 484.082031 L 912.925781 484.082031 L 912.925781 501.375 L 909.136719 501.375 Z M 909.136719 484.082031 " clip-rule="nonzero"/></clipPath><clipPath id="6f98c2ad19"><path d="M 1882.722656 486.714844 L 1886.511719 486.714844 L 1886.511719 504.007812 L 1882.722656 504.007812 Z M 1830.296875 486.714844 L 1834.082031 486.714844 L 1834.082031 504.007812 L 1830.296875 504.007812 Z M 1847.769531 486.714844 L 1851.558594 486.714844 L 1851.558594 504.007812 L 1847.769531 504.007812 Z M 1839.035156 486.714844 L 1842.820312 486.714844 L 1842.820312 504.007812 L 1839.035156 504.007812 Z M 1795.34375 486.714844 L 1799.132812 486.714844 L 1799.132812 504.007812 L 1795.34375 504.007812 Z M 1821.558594 486.714844 L 1825.34375 486.714844 L 1825.34375 504.007812 L 1821.558594 504.007812 Z M 1804.082031 486.714844 L 1807.871094 486.714844 L 1807.871094 504.007812 L 1804.082031 504.007812 Z M 1812.820312 486.714844 L 1816.609375 486.714844 L 1816.609375 504.007812 L 1812.820312 504.007812 Z M 1865.246094 486.714844 L 1869.035156 486.714844 L 1869.035156 504.007812 L 1865.246094 504.007812 Z M 1891.460938 486.714844 L 1895.25 486.714844 L 1895.25 504.007812 L 1891.460938 504.007812 Z M 1900.199219 486.714844 L 1903.988281 486.714844 L 1903.988281 504.007812 L 1900.199219 504.007812 Z M 1908.9375 486.714844 L 1912.726562 486.714844 L 1912.726562 504.007812 L 1908.9375 504.007812 Z M 1873.984375 486.714844 L 1877.773438 486.714844 L 1877.773438 504.007812 L 1873.984375 504.007812 Z M 1856.507812 486.714844 L 1860.296875 486.714844 L 1860.296875 504.007812 L 1856.507812 504.007812 Z M 1856.507812 486.714844 " clip-rule="nonzero"/></clipPath><clipPath id="98bc24839b"><path d="M 11 84.371094 L 444 84.371094 L 444 516.371094 L 11 516.371094 Z M 11 84.371094 " clip-rule="nonzero"/></clipPath></defs><g fill="#000000" fill-opacity="0.302"><g transform="translate(516.4378, 375.44143)"><g><path d="M 13.453125 0 L 13.453125 -129.0625 L 100.15625 -129.0625 L 100.15625 -107.0625 L 38.53125 -107.0625 L 38.53125 -73.796875 L 89.796875 -73.796875 L 89.796875 -53.4375 L 38.53125 -53.4375 L 38.53125 0 Z M 13.453125 0 "/></g></g></g><g fill="#000000" fill-opacity="0.302"><g transform="translate(620.766513, 375.44143)"><g><path d="M 50.171875 -129.0625 L 72.34375 -129.0625 L 121.4375 0 L 95.609375 0 L 83.625 -32.171875 L 38.53125 -32.171875 L 26.71875 0 L 0.90625 0 Z M 79.078125 -49.8125 L 61.265625 -100.53125 L 42.71875 -49.8125 Z M 79.078125 -49.8125 "/></g></g></g><g fill="#000000" fill-opacity="0.302"><g transform="translate(742.907506, 375.44143)"><g><path d="M 5.640625 -65.4375 C 5.640625 -73.3125 7.0625 -81.097656 9.90625 -88.796875 C 12.75 -96.492188 16.898438 -103.367188 22.359375 -109.421875 C 27.816406 -115.484375 34.484375 -120.394531 42.359375 -124.15625 C 50.234375 -127.914062 59.203125 -129.796875 69.265625 -129.796875 C 81.140625 -129.796875 91.40625 -127.1875 100.0625 -121.96875 C 108.726562 -116.757812 115.1875 -109.972656 119.4375 -101.609375 L 100.15625 -88.34375 C 98.457031 -91.976562 96.394531 -95.035156 93.96875 -97.515625 C 91.550781 -100.003906 88.945312 -101.972656 86.15625 -103.421875 C 83.375 -104.878906 80.46875 -105.941406 77.4375 -106.609375 C 74.40625 -107.273438 71.4375 -107.609375 68.53125 -107.609375 C 62.226562 -107.609375 56.742188 -106.335938 52.078125 -103.796875 C 47.410156 -101.253906 43.53125 -97.953125 40.4375 -93.890625 C 37.351562 -89.828125 35.019531 -85.21875 33.4375 -80.0625 C 31.863281 -74.914062 31.078125 -69.800781 31.078125 -64.71875 C 31.078125 -59.019531 31.984375 -53.535156 33.796875 -48.265625 C 35.617188 -42.992188 38.195312 -38.359375 41.53125 -34.359375 C 44.863281 -30.359375 48.863281 -27.144531 53.53125 -24.71875 C 58.195312 -22.300781 63.316406 -21.09375 68.890625 -21.09375 C 71.804688 -21.09375 74.835938 -21.453125 77.984375 -22.171875 C 81.128906 -22.898438 84.125 -24.050781 86.96875 -25.625 C 89.820312 -27.207031 92.460938 -29.238281 94.890625 -31.71875 C 97.316406 -34.207031 99.253906 -37.207031 100.703125 -40.71875 L 121.25 -28.90625 C 119.1875 -24.050781 116.242188 -19.773438 112.421875 -16.078125 C 108.609375 -12.390625 104.304688 -9.269531 99.515625 -6.71875 C 94.734375 -4.175781 89.613281 -2.238281 84.15625 -0.90625 C 78.707031 0.425781 73.378906 1.09375 68.171875 1.09375 C 58.960938 1.09375 50.539062 -0.84375 42.90625 -4.71875 C 35.269531 -8.601562 28.691406 -13.664062 23.171875 -19.90625 C 17.660156 -26.144531 13.359375 -33.234375 10.265625 -41.171875 C 7.179688 -49.109375 5.640625 -57.195312 5.640625 -65.4375 Z M 5.640625 -65.4375 "/></g></g></g><g fill="#000000" fill-opacity="0.302"><g transform="translate(867.593063, 375.44143)"><g><path d="M 103.0625 -22 L 103.0625 0 L 13.453125 0 L 13.453125 -129.0625 L 101.4375 -129.0625 L 101.4375 -107.0625 L 38.53125 -107.0625 L 38.53125 -75.984375 L 92.890625 -75.984375 L 92.890625 -55.625 L 38.53125 -55.625 L 38.53125 -22 Z M 103.0625 -22 "/></g></g></g><g fill="#000000" fill-opacity="0.302"><g transform="translate(976.829245, 375.44143)"><g/></g></g><g fill="#000000" fill-opacity="0.502"><g transform="translate(511.63576, 365.14333)"><g><path d="M 13.453125 0 L 13.453125 -129.0625 L 100.15625 -129.0625 L 100.15625 -107.0625 L 38.53125 -107.0625 L 38.53125 -73.796875 L 89.796875 -73.796875 L 89.796875 -53.4375 L 38.53125 -53.4375 L 38.53125 0 Z M 13.453125 0 "/></g></g></g><g fill="#000000" fill-opacity="0.502"><g transform="translate(615.964473, 365.14333)"><g><path d="M 50.171875 -129.0625 L 72.34375 -129.0625 L 121.4375 0 L 95.609375 0 L 83.625 -32.171875 L 38.53125 -32.171875 L 26.71875 0 L 0.90625 0 Z M 79.078125 -49.8125 L 61.265625 -100.53125 L 42.71875 -49.8125 Z M 79.078125 -49.8125 "/></g></g></g><g fill="#000000" fill-opacity="0.502"><g transform="translate(738.105467, 365.14333)"><g><path d="M 5.640625 -65.4375 C 5.640625 -73.3125 7.0625 -81.097656 9.90625 -88.796875 C 12.75 -96.492188 16.898438 -103.367188 22.359375 -109.421875 C 27.816406 -115.484375 34.484375 -120.394531 42.359375 -124.15625 C 50.234375 -127.914062 59.203125 -129.796875 69.265625 -129.796875 C 81.140625 -129.796875 91.40625 -127.1875 100.0625 -121.96875 C 108.726562 -116.757812 115.1875 -109.972656 119.4375 -101.609375 L 100.15625 -88.34375 C 98.457031 -91.976562 96.394531 -95.035156 93.96875 -97.515625 C 91.550781 -100.003906 88.945312 -101.972656 86.15625 -103.421875 C 83.375 -104.878906 80.46875 -105.941406 77.4375 -106.609375 C 74.40625 -107.273438 71.4375 -107.609375 68.53125 -107.609375 C 62.226562 -107.609375 56.742188 -106.335938 52.078125 -103.796875 C 47.410156 -101.253906 43.53125 -97.953125 40.4375 -93.890625 C 37.351562 -89.828125 35.019531 -85.21875 33.4375 -80.0625 C 31.863281 -74.914062 31.078125 -69.800781 31.078125 -64.71875 C 31.078125 -59.019531 31.984375 -53.535156 33.796875 -48.265625 C 35.617188 -42.992188 38.195312 -38.359375 41.53125 -34.359375 C 44.863281 -30.359375 48.863281 -27.144531 53.53125 -24.71875 C 58.195312 -22.300781 63.316406 -21.09375 68.890625 -21.09375 C 71.804688 -21.09375 74.835938 -21.453125 77.984375 -22.171875 C 81.128906 -22.898438 84.125 -24.050781 86.96875 -25.625 C 89.820312 -27.207031 92.460938 -29.238281 94.890625 -31.71875 C 97.316406 -34.207031 99.253906 -37.207031 100.703125 -40.71875 L 121.25 -28.90625 C 119.1875 -24.050781 116.242188 -19.773438 112.421875 -16.078125 C 108.609375 -12.390625 104.304688 -9.269531 99.515625 -6.71875 C 94.734375 -4.175781 89.613281 -2.238281 84.15625 -0.90625 C 78.707031 0.425781 73.378906 1.09375 68.171875 1.09375 C 58.960938 1.09375 50.539062 -0.84375 42.90625 -4.71875 C 35.269531 -8.601562 28.691406 -13.664062 23.171875 -19.90625 C 17.660156 -26.144531 13.359375 -33.234375 10.265625 -41.171875 C 7.179688 -49.109375 5.640625 -57.195312 5.640625 -65.4375 Z M 5.640625 -65.4375 "/></g></g></g><g fill="#000000" fill-opacity="0.502"><g transform="translate(862.791023, 365.14333)"><g><path d="M 103.0625 -22 L 103.0625 0 L 13.453125 0 L 13.453125 -129.0625 L 101.4375 -129.0625 L 101.4375 -107.0625 L 38.53125 -107.0625 L 38.53125 -75.984375 L 92.890625 -75.984375 L 92.890625 -55.625 L 38.53125 -55.625 L 38.53125 -22 Z M 103.0625 -22 "/></g></g></g><g fill="#000000" fill-opacity="0.502"><g transform="translate(972.027205, 365.14333)"><g/></g></g><g fill="#cb6ce6" fill-opacity="1"><g transform="translate(506.833648, 354.845228)"><g><path d="M 13.453125 0 L 13.453125 -129.0625 L 100.15625 -129.0625 L 100.15625 -107.0625 L 38.53125 -107.0625 L 38.53125 -73.796875 L 89.796875 -73.796875 L 89.796875 -53.4375 L 38.53125 -53.4375 L 38.53125 0 Z M 13.453125 0 "/></g></g></g><g fill="#cb6ce6" fill-opacity="1"><g transform="translate(611.162362, 354.845228)"><g><path d="M 50.171875 -129.0625 L 72.34375 -129.0625 L 121.4375 0 L 95.609375 0 L 83.625 -32.171875 L 38.53125 -32.171875 L 26.71875 0 L 0.90625 0 Z M 79.078125 -49.8125 L 61.265625 -100.53125 L 42.71875 -49.8125 Z M 79.078125 -49.8125 "/></g></g></g><g fill="#cb6ce6" fill-opacity="1"><g transform="translate(733.303355, 354.845228)"><g><path d="M 5.640625 -65.4375 C 5.640625 -73.3125 7.0625 -81.097656 9.90625 -88.796875 C 12.75 -96.492188 16.898438 -103.367188 22.359375 -109.421875 C 27.816406 -115.484375 34.484375 -120.394531 42.359375 -124.15625 C 50.234375 -127.914062 59.203125 -129.796875 69.265625 -129.796875 C 81.140625 -129.796875 91.40625 -127.1875 100.0625 -121.96875 C 108.726562 -116.757812 115.1875 -109.972656 119.4375 -101.609375 L 100.15625 -88.34375 C 98.457031 -91.976562 96.394531 -95.035156 93.96875 -97.515625 C 91.550781 -100.003906 88.945312 -101.972656 86.15625 -103.421875 C 83.375 -104.878906 80.46875 -105.941406 77.4375 -106.609375 C 74.40625 -107.273438 71.4375 -107.609375 68.53125 -107.609375 C 62.226562 -107.609375 56.742188 -106.335938 52.078125 -103.796875 C 47.410156 -101.253906 43.53125 -97.953125 40.4375 -93.890625 C 37.351562 -89.828125 35.019531 -85.21875 33.4375 -80.0625 C 31.863281 -74.914062 31.078125 -69.800781 31.078125 -64.71875 C 31.078125 -59.019531 31.984375 -53.535156 33.796875 -48.265625 C 35.617188 -42.992188 38.195312 -38.359375 41.53125 -34.359375 C 44.863281 -30.359375 48.863281 -27.144531 53.53125 -24.71875 C 58.195312 -22.300781 63.316406 -21.09375 68.890625 -21.09375 C 71.804688 -21.09375 74.835938 -21.453125 77.984375 -22.171875 C 81.128906 -22.898438 84.125 -24.050781 86.96875 -25.625 C 89.820312 -27.207031 92.460938 -29.238281 94.890625 -31.71875 C 97.316406 -34.207031 99.253906 -37.207031 100.703125 -40.71875 L 121.25 -28.90625 C 119.1875 -24.050781 116.242188 -19.773438 112.421875 -16.078125 C 108.609375 -12.390625 104.304688 -9.269531 99.515625 -6.71875 C 94.734375 -4.175781 89.613281 -2.238281 84.15625 -0.90625 C 78.707031 0.425781 73.378906 1.09375 68.171875 1.09375 C 58.960938 1.09375 50.539062 -0.84375 42.90625 -4.71875 C 35.269531 -8.601562 28.691406 -13.664062 23.171875 -19.90625 C 17.660156 -26.144531 13.359375 -33.234375 10.265625 -41.171875 C 7.179688 -49.109375 5.640625 -57.195312 5.640625 -65.4375 Z M 5.640625 -65.4375 "/></g></g></g><g fill="#cb6ce6" fill-opacity="1"><g transform="translate(857.988911, 354.845228)"><g><path d="M 103.0625 -22 L 103.0625 0 L 13.453125 0 L 13.453125 -129.0625 L 101.4375 -129.0625 L 101.4375 -107.0625 L 38.53125 -107.0625 L 38.53125 -75.984375 L 92.890625 -75.984375 L 92.890625 -55.625 L 38.53125 -55.625 L 38.53125 -22 Z M 103.0625 -22 "/></g></g></g><g fill="#cb6ce6" fill-opacity="1"><g transform="translate(967.225093, 354.845228)"><g/></g></g><g fill="#000000" fill-opacity="0.302"><g transform="translate(1020.467249, 375.44143)"><g><path d="M 16.171875 0 L 16.171875 -129.0625 L 70.71875 -129.0625 C 76.289062 -129.0625 81.410156 -127.878906 86.078125 -125.515625 C 90.742188 -123.148438 94.769531 -120.054688 98.15625 -116.234375 C 101.550781 -112.421875 104.1875 -108.09375 106.0625 -103.25 C 107.945312 -98.40625 108.890625 -93.5 108.890625 -88.53125 C 108.890625 -83.800781 108.191406 -79.285156 106.796875 -74.984375 C 105.398438 -70.679688 103.457031 -66.800781 100.96875 -63.34375 C 98.488281 -59.894531 95.488281 -56.988281 91.96875 -54.625 C 88.457031 -52.257812 84.523438 -50.65625 80.171875 -49.8125 L 111.796875 0 L 97.4375 0 L 67.078125 -47.625 L 28.90625 -47.625 L 28.90625 0 Z M 28.90625 -58.890625 L 71.078125 -58.890625 C 74.835938 -58.890625 78.257812 -59.707031 81.34375 -61.34375 C 84.4375 -62.988281 87.070312 -65.203125 89.25 -67.984375 C 91.4375 -70.773438 93.132812 -73.925781 94.34375 -77.4375 C 95.550781 -80.945312 96.15625 -84.644531 96.15625 -88.53125 C 96.15625 -92.40625 95.457031 -96.128906 94.0625 -99.703125 C 92.675781 -103.273438 90.800781 -106.394531 88.4375 -109.0625 C 86.070312 -111.726562 83.28125 -113.847656 80.0625 -115.421875 C 76.851562 -117.003906 73.492188 -117.796875 69.984375 -117.796875 L 28.90625 -117.796875 Z M 28.90625 -58.890625 "/></g></g></g><g fill="#000000" fill-opacity="0.302"><g transform="translate(1139.154827, 375.44143)"><g><path d="M 102.890625 -11.265625 L 102.890625 0 L 16.171875 0 L 16.171875 -129.0625 L 101.25 -129.0625 L 101.25 -117.796875 L 28.90625 -117.796875 L 28.90625 -71.265625 L 91.984375 -71.265625 L 91.984375 -60.53125 L 28.90625 -60.53125 L 28.90625 -11.265625 Z M 102.890625 -11.265625 "/></g></g></g><g fill="#000000" fill-opacity="0.302"><g transform="translate(1249.845061, 375.44143)"><g><path d="M 7.640625 -65.4375 C 7.640625 -73.195312 9 -80.921875 11.71875 -88.609375 C 14.445312 -96.304688 18.414062 -103.1875 23.625 -109.25 C 28.84375 -115.3125 35.269531 -120.25 42.90625 -124.0625 C 50.539062 -127.882812 59.203125 -129.796875 68.890625 -129.796875 C 80.410156 -129.796875 90.257812 -127.1875 98.4375 -121.96875 C 106.613281 -116.757812 112.640625 -109.972656 116.515625 -101.609375 L 106.53125 -95.4375 C 104.46875 -99.675781 101.953125 -103.25 98.984375 -106.15625 C 96.015625 -109.0625 92.832031 -111.421875 89.4375 -113.234375 C 86.039062 -115.054688 82.523438 -116.363281 78.890625 -117.15625 C 75.253906 -117.945312 71.679688 -118.34375 68.171875 -118.34375 C 60.410156 -118.34375 53.5625 -116.765625 47.625 -113.609375 C 41.6875 -110.460938 36.6875 -106.34375 32.625 -101.25 C 28.570312 -96.164062 25.515625 -90.441406 23.453125 -84.078125 C 21.390625 -77.710938 20.359375 -71.257812 20.359375 -64.71875 C 20.359375 -57.5625 21.597656 -50.710938 24.078125 -44.171875 C 26.566406 -37.628906 29.960938 -31.84375 34.265625 -26.8125 C 38.566406 -21.78125 43.65625 -17.78125 49.53125 -14.8125 C 55.414062 -11.84375 61.8125 -10.359375 68.71875 -10.359375 C 72.351562 -10.359375 76.078125 -10.8125 79.890625 -11.71875 C 83.710938 -12.632812 87.410156 -14.09375 90.984375 -16.09375 C 94.554688 -18.09375 97.859375 -20.578125 100.890625 -23.546875 C 103.921875 -26.515625 106.460938 -30.117188 108.515625 -34.359375 L 119.0625 -28.90625 C 117 -24.050781 114.085938 -19.773438 110.328125 -16.078125 C 106.578125 -12.390625 102.398438 -9.269531 97.796875 -6.71875 C 93.191406 -4.175781 88.3125 -2.238281 83.15625 -0.90625 C 78.007812 0.425781 72.953125 1.09375 67.984375 1.09375 C 59.140625 1.09375 51.019531 -0.84375 43.625 -4.71875 C 36.226562 -8.601562 29.863281 -13.664062 24.53125 -19.90625 C 19.207031 -26.144531 15.0625 -33.234375 12.09375 -41.171875 C 9.125 -49.109375 7.640625 -57.195312 7.640625 -65.4375 Z M 7.640625 -65.4375 "/></g></g></g><g fill="#000000" fill-opacity="0.302"><g transform="translate(1374.530617, 375.44143)"><g><path d="M 68.171875 0.90625 C 59.203125 0.90625 50.988281 -0.941406 43.53125 -4.640625 C 36.082031 -8.335938 29.691406 -13.242188 24.359375 -19.359375 C 19.023438 -25.484375 14.90625 -32.484375 12 -40.359375 C 9.09375 -48.234375 7.640625 -56.289062 7.640625 -64.53125 C 7.640625 -73.132812 9.179688 -81.375 12.265625 -89.25 C 15.359375 -97.132812 19.628906 -104.101562 25.078125 -110.15625 C 30.535156 -116.21875 36.957031 -121.035156 44.34375 -124.609375 C 51.738281 -128.179688 59.738281 -129.96875 68.34375 -129.96875 C 77.3125 -129.96875 85.519531 -128.054688 92.96875 -124.234375 C 100.425781 -120.421875 106.789062 -115.425781 112.0625 -109.25 C 117.332031 -103.070312 121.421875 -96.070312 124.328125 -88.25 C 127.242188 -80.4375 128.703125 -72.46875 128.703125 -64.34375 C 128.703125 -55.738281 127.15625 -47.5 124.0625 -39.625 C 120.976562 -31.75 116.738281 -24.8125 111.34375 -18.8125 C 105.945312 -12.8125 99.550781 -8.023438 92.15625 -4.453125 C 84.769531 -0.878906 76.773438 0.90625 68.171875 0.90625 Z M 20.359375 -64.53125 C 20.359375 -57.5 21.507812 -50.738281 23.8125 -44.25 C 26.113281 -37.769531 29.382812 -32.015625 33.625 -26.984375 C 37.863281 -21.960938 42.890625 -17.96875 48.703125 -15 C 54.523438 -12.03125 61.015625 -10.546875 68.171875 -10.546875 C 75.441406 -10.546875 82.046875 -12.117188 87.984375 -15.265625 C 93.921875 -18.421875 98.945312 -22.539062 103.0625 -27.625 C 107.1875 -32.71875 110.367188 -38.472656 112.609375 -44.890625 C 114.847656 -51.316406 115.96875 -57.863281 115.96875 -64.53125 C 115.96875 -71.5625 114.785156 -78.316406 112.421875 -84.796875 C 110.066406 -91.285156 106.765625 -97.015625 102.515625 -101.984375 C 98.273438 -106.953125 93.25 -110.921875 87.4375 -113.890625 C 81.625 -116.859375 75.203125 -118.34375 68.171875 -118.34375 C 60.898438 -118.34375 54.296875 -116.796875 48.359375 -113.703125 C 42.421875 -110.609375 37.390625 -106.515625 33.265625 -101.421875 C 29.140625 -96.335938 25.957031 -90.582031 23.71875 -84.15625 C 21.476562 -77.738281 20.359375 -71.195312 20.359375 -64.53125 Z M 20.359375 -64.53125 "/></g></g></g><g fill="#000000" fill-opacity="0.302"><g transform="translate(1511.030417, 375.44143)"><g><path d="M 109.4375 -18.90625 C 97.4375 -5.695312 83.617188 0.90625 67.984375 0.90625 C 59.253906 0.90625 51.222656 -0.96875 43.890625 -4.71875 C 36.566406 -8.476562 30.207031 -13.445312 24.8125 -19.625 C 19.414062 -25.8125 15.203125 -32.8125 12.171875 -40.625 C 9.148438 -48.445312 7.640625 -56.476562 7.640625 -64.71875 C 7.640625 -73.320312 9.125 -81.5625 12.09375 -89.4375 C 15.0625 -97.3125 19.207031 -104.25 24.53125 -110.25 C 29.863281 -116.25 36.164062 -121.035156 43.4375 -124.609375 C 50.71875 -128.179688 58.660156 -129.96875 67.265625 -129.96875 C 73.566406 -129.96875 79.320312 -129.269531 84.53125 -127.875 C 89.738281 -126.488281 94.375 -124.550781 98.4375 -122.0625 C 102.5 -119.582031 106.015625 -116.613281 108.984375 -113.15625 C 111.953125 -109.707031 114.460938 -105.921875 116.515625 -101.796875 L 106.703125 -95.25 C 102.460938 -103.25 96.945312 -109.125 90.15625 -112.875 C 83.375 -116.632812 75.679688 -118.515625 67.078125 -118.515625 C 59.929688 -118.515625 53.476562 -117 47.71875 -113.96875 C 41.957031 -110.945312 37.046875 -106.921875 32.984375 -101.890625 C 28.929688 -96.859375 25.8125 -91.097656 23.625 -84.609375 C 21.445312 -78.128906 20.359375 -71.4375 20.359375 -64.53125 C 20.359375 -57.257812 21.597656 -50.351562 24.078125 -43.8125 C 26.566406 -37.269531 29.992188 -31.539062 34.359375 -26.625 C 38.722656 -21.71875 43.84375 -17.8125 49.71875 -14.90625 C 55.59375 -12 61.984375 -10.546875 68.890625 -10.546875 C 76.285156 -10.546875 83.34375 -12.269531 90.0625 -15.71875 C 96.789062 -19.175781 103.25 -24.660156 109.4375 -32.171875 L 109.4375 -53.625 L 80.703125 -53.625 L 80.703125 -63.4375 L 120.15625 -63.4375 L 120.15625 0 L 109.4375 0 Z M 109.4375 -18.90625 "/></g></g></g><g fill="#000000" fill-opacity="0.302"><g transform="translate(1641.168695, 375.44143)"><g><path d="M 28.90625 -105.4375 L 28.90625 0 L 16.171875 0 L 16.171875 -129.0625 L 26 -129.0625 L 111.4375 -21.625 L 111.4375 -128.890625 L 124.15625 -128.890625 L 124.15625 0 L 113.0625 0 Z M 28.90625 -105.4375 "/></g></g></g><g fill="#000000" fill-opacity="0.302"><g transform="translate(1781.485395, 375.44143)"><g><path d="M 16.171875 0 L 16.171875 -129.0625 L 28.90625 -129.0625 L 28.90625 0 Z M 16.171875 0 "/></g></g></g><g fill="#000000" fill-opacity="0.302"><g transform="translate(1826.561235, 375.44143)"><g><path d="M 107.796875 -117.796875 L 61.8125 -117.796875 L 61.8125 0 L 49.078125 0 L 49.078125 -117.796875 L 3.09375 -117.796875 L 3.09375 -129.0625 L 107.796875 -129.0625 Z M 107.796875 -117.796875 "/></g></g></g><g fill="#000000" fill-opacity="0.302"><g transform="translate(1937.433238, 375.44143)"><g><path d="M 16.171875 0 L 16.171875 -129.0625 L 28.90625 -129.0625 L 28.90625 0 Z M 16.171875 0 "/></g></g></g><g fill="#000000" fill-opacity="0.302"><g transform="translate(1982.509078, 375.44143)"><g><path d="M 68.171875 0.90625 C 59.203125 0.90625 50.988281 -0.941406 43.53125 -4.640625 C 36.082031 -8.335938 29.691406 -13.242188 24.359375 -19.359375 C 19.023438 -25.484375 14.90625 -32.484375 12 -40.359375 C 9.09375 -48.234375 7.640625 -56.289062 7.640625 -64.53125 C 7.640625 -73.132812 9.179688 -81.375 12.265625 -89.25 C 15.359375 -97.132812 19.628906 -104.101562 25.078125 -110.15625 C 30.535156 -116.21875 36.957031 -121.035156 44.34375 -124.609375 C 51.738281 -128.179688 59.738281 -129.96875 68.34375 -129.96875 C 77.3125 -129.96875 85.519531 -128.054688 92.96875 -124.234375 C 100.425781 -120.421875 106.789062 -115.425781 112.0625 -109.25 C 117.332031 -103.070312 121.421875 -96.070312 124.328125 -88.25 C 127.242188 -80.4375 128.703125 -72.46875 128.703125 -64.34375 C 128.703125 -55.738281 127.15625 -47.5 124.0625 -39.625 C 120.976562 -31.75 116.738281 -24.8125 111.34375 -18.8125 C 105.945312 -12.8125 99.550781 -8.023438 92.15625 -4.453125 C 84.769531 -0.878906 76.773438 0.90625 68.171875 0.90625 Z M 20.359375 -64.53125 C 20.359375 -57.5 21.507812 -50.738281 23.8125 -44.25 C 26.113281 -37.769531 29.382812 -32.015625 33.625 -26.984375 C 37.863281 -21.960938 42.890625 -17.96875 48.703125 -15 C 54.523438 -12.03125 61.015625 -10.546875 68.171875 -10.546875 C 75.441406 -10.546875 82.046875 -12.117188 87.984375 -15.265625 C 93.921875 -18.421875 98.945312 -22.539062 103.0625 -27.625 C 107.1875 -32.71875 110.367188 -38.472656 112.609375 -44.890625 C 114.847656 -51.316406 115.96875 -57.863281 115.96875 -64.53125 C 115.96875 -71.5625 114.785156 -78.316406 112.421875 -84.796875 C 110.066406 -91.285156 106.765625 -97.015625 102.515625 -101.984375 C 98.273438 -106.953125 93.25 -110.921875 87.4375 -113.890625 C 81.625 -116.859375 75.203125 -118.34375 68.171875 -118.34375 C 60.898438 -118.34375 54.296875 -116.796875 48.359375 -113.703125 C 42.421875 -110.609375 37.390625 -106.515625 33.265625 -101.421875 C 29.140625 -96.335938 25.957031 -90.582031 23.71875 -84.15625 C 21.476562 -77.738281 20.359375 -71.195312 20.359375 -64.53125 Z M 20.359375 -64.53125 "/></g></g></g><g fill="#000000" fill-opacity="0.302"><g transform="translate(2119.008935, 375.44143)"><g><path d="M 28.90625 -105.4375 L 28.90625 0 L 16.171875 0 L 16.171875 -129.0625 L 26 -129.0625 L 111.4375 -21.625 L 111.4375 -128.890625 L 124.15625 -128.890625 L 124.15625 0 L 113.0625 0 Z M 28.90625 -105.4375 "/></g></g></g><g fill="#000000" fill-opacity="0.502"><g transform="translate(1015.66521, 365.14333)"><g><path d="M 16.171875 0 L 16.171875 -129.0625 L 70.71875 -129.0625 C 76.289062 -129.0625 81.410156 -127.878906 86.078125 -125.515625 C 90.742188 -123.148438 94.769531 -120.054688 98.15625 -116.234375 C 101.550781 -112.421875 104.1875 -108.09375 106.0625 -103.25 C 107.945312 -98.40625 108.890625 -93.5 108.890625 -88.53125 C 108.890625 -83.800781 108.191406 -79.285156 106.796875 -74.984375 C 105.398438 -70.679688 103.457031 -66.800781 100.96875 -63.34375 C 98.488281 -59.894531 95.488281 -56.988281 91.96875 -54.625 C 88.457031 -52.257812 84.523438 -50.65625 80.171875 -49.8125 L 111.796875 0 L 97.4375 0 L 67.078125 -47.625 L 28.90625 -47.625 L 28.90625 0 Z M 28.90625 -58.890625 L 71.078125 -58.890625 C 74.835938 -58.890625 78.257812 -59.707031 81.34375 -61.34375 C 84.4375 -62.988281 87.070312 -65.203125 89.25 -67.984375 C 91.4375 -70.773438 93.132812 -73.925781 94.34375 -77.4375 C 95.550781 -80.945312 96.15625 -84.644531 96.15625 -88.53125 C 96.15625 -92.40625 95.457031 -96.128906 94.0625 -99.703125 C 92.675781 -103.273438 90.800781 -106.394531 88.4375 -109.0625 C 86.070312 -111.726562 83.28125 -113.847656 80.0625 -115.421875 C 76.851562 -117.003906 73.492188 -117.796875 69.984375 -117.796875 L 28.90625 -117.796875 Z M 28.90625 -58.890625 "/></g></g></g><g fill="#000000" fill-opacity="0.502"><g transform="translate(1134.352787, 365.14333)"><g><path d="M 102.890625 -11.265625 L 102.890625 0 L 16.171875 0 L 16.171875 -129.0625 L 101.25 -129.0625 L 101.25 -117.796875 L 28.90625 -117.796875 L 28.90625 -71.265625 L 91.984375 -71.265625 L 91.984375 -60.53125 L 28.90625 -60.53125 L 28.90625 -11.265625 Z M 102.890625 -11.265625 "/></g></g></g><g fill="#000000" fill-opacity="0.502"><g transform="translate(1245.043021, 365.14333)"><g><path d="M 7.640625 -65.4375 C 7.640625 -73.195312 9 -80.921875 11.71875 -88.609375 C 14.445312 -96.304688 18.414062 -103.1875 23.625 -109.25 C 28.84375 -115.3125 35.269531 -120.25 42.90625 -124.0625 C 50.539062 -127.882812 59.203125 -129.796875 68.890625 -129.796875 C 80.410156 -129.796875 90.257812 -127.1875 98.4375 -121.96875 C 106.613281 -116.757812 112.640625 -109.972656 116.515625 -101.609375 L 106.53125 -95.4375 C 104.46875 -99.675781 101.953125 -103.25 98.984375 -106.15625 C 96.015625 -109.0625 92.832031 -111.421875 89.4375 -113.234375 C 86.039062 -115.054688 82.523438 -116.363281 78.890625 -117.15625 C 75.253906 -117.945312 71.679688 -118.34375 68.171875 -118.34375 C 60.410156 -118.34375 53.5625 -116.765625 47.625 -113.609375 C 41.6875 -110.460938 36.6875 -106.34375 32.625 -101.25 C 28.570312 -96.164062 25.515625 -90.441406 23.453125 -84.078125 C 21.390625 -77.710938 20.359375 -71.257812 20.359375 -64.71875 C 20.359375 -57.5625 21.597656 -50.710938 24.078125 -44.171875 C 26.566406 -37.628906 29.960938 -31.84375 34.265625 -26.8125 C 38.566406 -21.78125 43.65625 -17.78125 49.53125 -14.8125 C 55.414062 -11.84375 61.8125 -10.359375 68.71875 -10.359375 C 72.351562 -10.359375 76.078125 -10.8125 79.890625 -11.71875 C 83.710938 -12.632812 87.410156 -14.09375 90.984375 -16.09375 C 94.554688 -18.09375 97.859375 -20.578125 100.890625 -23.546875 C 103.921875 -26.515625 106.460938 -30.117188 108.515625 -34.359375 L 119.0625 -28.90625 C 117 -24.050781 114.085938 -19.773438 110.328125 -16.078125 C 106.578125 -12.390625 102.398438 -9.269531 97.796875 -6.71875 C 93.191406 -4.175781 88.3125 -2.238281 83.15625 -0.90625 C 78.007812 0.425781 72.953125 1.09375 67.984375 1.09375 C 59.140625 1.09375 51.019531 -0.84375 43.625 -4.71875 C 36.226562 -8.601562 29.863281 -13.664062 24.53125 -19.90625 C 19.207031 -26.144531 15.0625 -33.234375 12.09375 -41.171875 C 9.125 -49.109375 7.640625 -57.195312 7.640625 -65.4375 Z M 7.640625 -65.4375 "/></g></g></g><g fill="#000000" fill-opacity="0.502"><g transform="translate(1369.728578, 365.14333)"><g><path d="M 68.171875 0.90625 C 59.203125 0.90625 50.988281 -0.941406 43.53125 -4.640625 C 36.082031 -8.335938 29.691406 -13.242188 24.359375 -19.359375 C 19.023438 -25.484375 14.90625 -32.484375 12 -40.359375 C 9.09375 -48.234375 7.640625 -56.289062 7.640625 -64.53125 C 7.640625 -73.132812 9.179688 -81.375 12.265625 -89.25 C 15.359375 -97.132812 19.628906 -104.101562 25.078125 -110.15625 C 30.535156 -116.21875 36.957031 -121.035156 44.34375 -124.609375 C 51.738281 -128.179688 59.738281 -129.96875 68.34375 -129.96875 C 77.3125 -129.96875 85.519531 -128.054688 92.96875 -124.234375 C 100.425781 -120.421875 106.789062 -115.425781 112.0625 -109.25 C 117.332031 -103.070312 121.421875 -96.070312 124.328125 -88.25 C 127.242188 -80.4375 128.703125 -72.46875 128.703125 -64.34375 C 128.703125 -55.738281 127.15625 -47.5 124.0625 -39.625 C 120.976562 -31.75 116.738281 -24.8125 111.34375 -18.8125 C 105.945312 -12.8125 99.550781 -8.023438 92.15625 -4.453125 C 84.769531 -0.878906 76.773438 0.90625 68.171875 0.90625 Z M 20.359375 -64.53125 C 20.359375 -57.5 21.507812 -50.738281 23.8125 -44.25 C 26.113281 -37.769531 29.382812 -32.015625 33.625 -26.984375 C 37.863281 -21.960938 42.890625 -17.96875 48.703125 -15 C 54.523438 -12.03125 61.015625 -10.546875 68.171875 -10.546875 C 75.441406 -10.546875 82.046875 -12.117188 87.984375 -15.265625 C 93.921875 -18.421875 98.945312 -22.539062 103.0625 -27.625 C 107.1875 -32.71875 110.367188 -38.472656 112.609375 -44.890625 C 114.847656 -51.316406 115.96875 -57.863281 115.96875 -64.53125 C 115.96875 -71.5625 114.785156 -78.316406 112.421875 -84.796875 C 110.066406 -91.285156 106.765625 -97.015625 102.515625 -101.984375 C 98.273438 -106.953125 93.25 -110.921875 87.4375 -113.890625 C 81.625 -116.859375 75.203125 -118.34375 68.171875 -118.34375 C 60.898438 -118.34375 54.296875 -116.796875 48.359375 -113.703125 C 42.421875 -110.609375 37.390625 -106.515625 33.265625 -101.421875 C 29.140625 -96.335938 25.957031 -90.582031 23.71875 -84.15625 C 21.476562 -77.738281 20.359375 -71.195312 20.359375 -64.53125 Z M 20.359375 -64.53125 "/></g></g></g><g fill="#000000" fill-opacity="0.502"><g transform="translate(1506.228377, 365.14333)"><g><path d="M 109.4375 -18.90625 C 97.4375 -5.695312 83.617188 0.90625 67.984375 0.90625 C 59.253906 0.90625 51.222656 -0.96875 43.890625 -4.71875 C 36.566406 -8.476562 30.207031 -13.445312 24.8125 -19.625 C 19.414062 -25.8125 15.203125 -32.8125 12.171875 -40.625 C 9.148438 -48.445312 7.640625 -56.476562 7.640625 -64.71875 C 7.640625 -73.320312 9.125 -81.5625 12.09375 -89.4375 C 15.0625 -97.3125 19.207031 -104.25 24.53125 -110.25 C 29.863281 -116.25 36.164062 -121.035156 43.4375 -124.609375 C 50.71875 -128.179688 58.660156 -129.96875 67.265625 -129.96875 C 73.566406 -129.96875 79.320312 -129.269531 84.53125 -127.875 C 89.738281 -126.488281 94.375 -124.550781 98.4375 -122.0625 C 102.5 -119.582031 106.015625 -116.613281 108.984375 -113.15625 C 111.953125 -109.707031 114.460938 -105.921875 116.515625 -101.796875 L 106.703125 -95.25 C 102.460938 -103.25 96.945312 -109.125 90.15625 -112.875 C 83.375 -116.632812 75.679688 -118.515625 67.078125 -118.515625 C 59.929688 -118.515625 53.476562 -117 47.71875 -113.96875 C 41.957031 -110.945312 37.046875 -106.921875 32.984375 -101.890625 C 28.929688 -96.859375 25.8125 -91.097656 23.625 -84.609375 C 21.445312 -78.128906 20.359375 -71.4375 20.359375 -64.53125 C 20.359375 -57.257812 21.597656 -50.351562 24.078125 -43.8125 C 26.566406 -37.269531 29.992188 -31.539062 34.359375 -26.625 C 38.722656 -21.71875 43.84375 -17.8125 49.71875 -14.90625 C 55.59375 -12 61.984375 -10.546875 68.890625 -10.546875 C 76.285156 -10.546875 83.34375 -12.269531 90.0625 -15.71875 C 96.789062 -19.175781 103.25 -24.660156 109.4375 -32.171875 L 109.4375 -53.625 L 80.703125 -53.625 L 80.703125 -63.4375 L 120.15625 -63.4375 L 120.15625 0 L 109.4375 0 Z M 109.4375 -18.90625 "/></g></g></g><g fill="#000000" fill-opacity="0.502"><g transform="translate(1636.366656, 365.14333)"><g><path d="M 28.90625 -105.4375 L 28.90625 0 L 16.171875 0 L 16.171875 -129.0625 L 26 -129.0625 L 111.4375 -21.625 L 111.4375 -128.890625 L 124.15625 -128.890625 L 124.15625 0 L 113.0625 0 Z M 28.90625 -105.4375 "/></g></g></g><g fill="#000000" fill-opacity="0.502"><g transform="translate(1776.683356, 365.14333)"><g><path d="M 16.171875 0 L 16.171875 -129.0625 L 28.90625 -129.0625 L 28.90625 0 Z M 16.171875 0 "/></g></g></g><g fill="#000000" fill-opacity="0.502"><g transform="translate(1821.759195, 365.14333)"><g><path d="M 107.796875 -117.796875 L 61.8125 -117.796875 L 61.8125 0 L 49.078125 0 L 49.078125 -117.796875 L 3.09375 -117.796875 L 3.09375 -129.0625 L 107.796875 -129.0625 Z M 107.796875 -117.796875 "/></g></g></g><g fill="#000000" fill-opacity="0.502"><g transform="translate(1932.631199, 365.14333)"><g><path d="M 16.171875 0 L 16.171875 -129.0625 L 28.90625 -129.0625 L 28.90625 0 Z M 16.171875 0 "/></g></g></g><g fill="#000000" fill-opacity="0.502"><g transform="translate(1977.707038, 365.14333)"><g><path d="M 68.171875 0.90625 C 59.203125 0.90625 50.988281 -0.941406 43.53125 -4.640625 C 36.082031 -8.335938 29.691406 -13.242188 24.359375 -19.359375 C 19.023438 -25.484375 14.90625 -32.484375 12 -40.359375 C 9.09375 -48.234375 7.640625 -56.289062 7.640625 -64.53125 C 7.640625 -73.132812 9.179688 -81.375 12.265625 -89.25 C 15.359375 -97.132812 19.628906 -104.101562 25.078125 -110.15625 C 30.535156 -116.21875 36.957031 -121.035156 44.34375 -124.609375 C 51.738281 -128.179688 59.738281 -129.96875 68.34375 -129.96875 C 77.3125 -129.96875 85.519531 -128.054688 92.96875 -124.234375 C 100.425781 -120.421875 106.789062 -115.425781 112.0625 -109.25 C 117.332031 -103.070312 121.421875 -96.070312 124.328125 -88.25 C 127.242188 -80.4375 128.703125 -72.46875 128.703125 -64.34375 C 128.703125 -55.738281 127.15625 -47.5 124.0625 -39.625 C 120.976562 -31.75 116.738281 -24.8125 111.34375 -18.8125 C 105.945312 -12.8125 99.550781 -8.023438 92.15625 -4.453125 C 84.769531 -0.878906 76.773438 0.90625 68.171875 0.90625 Z M 20.359375 -64.53125 C 20.359375 -57.5 21.507812 -50.738281 23.8125 -44.25 C 26.113281 -37.769531 29.382812 -32.015625 33.625 -26.984375 C 37.863281 -21.960938 42.890625 -17.96875 48.703125 -15 C 54.523438 -12.03125 61.015625 -10.546875 68.171875 -10.546875 C 75.441406 -10.546875 82.046875 -12.117188 87.984375 -15.265625 C 93.921875 -18.421875 98.945312 -22.539062 103.0625 -27.625 C 107.1875 -32.71875 110.367188 -38.472656 112.609375 -44.890625 C 114.847656 -51.316406 115.96875 -57.863281 115.96875 -64.53125 C 115.96875 -71.5625 114.785156 -78.316406 112.421875 -84.796875 C 110.066406 -91.285156 106.765625 -97.015625 102.515625 -101.984375 C 98.273438 -106.953125 93.25 -110.921875 87.4375 -113.890625 C 81.625 -116.859375 75.203125 -118.34375 68.171875 -118.34375 C 60.898438 -118.34375 54.296875 -116.796875 48.359375 -113.703125 C 42.421875 -110.609375 37.390625 -106.515625 33.265625 -101.421875 C 29.140625 -96.335938 25.957031 -90.582031 23.71875 -84.15625 C 21.476562 -77.738281 20.359375 -71.195312 20.359375 -64.53125 Z M 20.359375 -64.53125 "/></g></g></g><g fill="#000000" fill-opacity="0.502"><g transform="translate(2114.206895, 365.14333)"><g><path d="M 28.90625 -105.4375 L 28.90625 0 L 16.171875 0 L 16.171875 -129.0625 L 26 -129.0625 L 111.4375 -21.625 L 111.4375 -128.890625 L 124.15625 -128.890625 L 124.15625 0 L 113.0625 0 Z M 28.90625 -105.4375 "/></g></g></g><g fill="#cb6ce6" fill-opacity="1"><g transform="translate(1010.863098, 354.845228)"><g><path d="M 16.171875 0 L 16.171875 -129.0625 L 70.71875 -129.0625 C 76.289062 -129.0625 81.410156 -127.878906 86.078125 -125.515625 C 90.742188 -123.148438 94.769531 -120.054688 98.15625 -116.234375 C 101.550781 -112.421875 104.1875 -108.09375 106.0625 -103.25 C 107.945312 -98.40625 108.890625 -93.5 108.890625 -88.53125 C 108.890625 -83.800781 108.191406 -79.285156 106.796875 -74.984375 C 105.398438 -70.679688 103.457031 -66.800781 100.96875 -63.34375 C 98.488281 -59.894531 95.488281 -56.988281 91.96875 -54.625 C 88.457031 -52.257812 84.523438 -50.65625 80.171875 -49.8125 L 111.796875 0 L 97.4375 0 L 67.078125 -47.625 L 28.90625 -47.625 L 28.90625 0 Z M 28.90625 -58.890625 L 71.078125 -58.890625 C 74.835938 -58.890625 78.257812 -59.707031 81.34375 -61.34375 C 84.4375 -62.988281 87.070312 -65.203125 89.25 -67.984375 C 91.4375 -70.773438 93.132812 -73.925781 94.34375 -77.4375 C 95.550781 -80.945312 96.15625 -84.644531 96.15625 -88.53125 C 96.15625 -92.40625 95.457031 -96.128906 94.0625 -99.703125 C 92.675781 -103.273438 90.800781 -106.394531 88.4375 -109.0625 C 86.070312 -111.726562 83.28125 -113.847656 80.0625 -115.421875 C 76.851562 -117.003906 73.492188 -117.796875 69.984375 -117.796875 L 28.90625 -117.796875 Z M 28.90625 -58.890625 "/></g></g></g><g fill="#cb6ce6" fill-opacity="1"><g transform="translate(1129.550675, 354.845228)"><g><path d="M 102.890625 -11.265625 L 102.890625 0 L 16.171875 0 L 16.171875 -129.0625 L 101.25 -129.0625 L 101.25 -117.796875 L 28.90625 -117.796875 L 28.90625 -71.265625 L 91.984375 -71.265625 L 91.984375 -60.53125 L 28.90625 -60.53125 L 28.90625 -11.265625 Z M 102.890625 -11.265625 "/></g></g></g><g fill="#cb6ce6" fill-opacity="1"><g transform="translate(1240.240909, 354.845228)"><g><path d="M 7.640625 -65.4375 C 7.640625 -73.195312 9 -80.921875 11.71875 -88.609375 C 14.445312 -96.304688 18.414062 -103.1875 23.625 -109.25 C 28.84375 -115.3125 35.269531 -120.25 42.90625 -124.0625 C 50.539062 -127.882812 59.203125 -129.796875 68.890625 -129.796875 C 80.410156 -129.796875 90.257812 -127.1875 98.4375 -121.96875 C 106.613281 -116.757812 112.640625 -109.972656 116.515625 -101.609375 L 106.53125 -95.4375 C 104.46875 -99.675781 101.953125 -103.25 98.984375 -106.15625 C 96.015625 -109.0625 92.832031 -111.421875 89.4375 -113.234375 C 86.039062 -115.054688 82.523438 -116.363281 78.890625 -117.15625 C 75.253906 -117.945312 71.679688 -118.34375 68.171875 -118.34375 C 60.410156 -118.34375 53.5625 -116.765625 47.625 -113.609375 C 41.6875 -110.460938 36.6875 -106.34375 32.625 -101.25 C 28.570312 -96.164062 25.515625 -90.441406 23.453125 -84.078125 C 21.390625 -77.710938 20.359375 -71.257812 20.359375 -64.71875 C 20.359375 -57.5625 21.597656 -50.710938 24.078125 -44.171875 C 26.566406 -37.628906 29.960938 -31.84375 34.265625 -26.8125 C 38.566406 -21.78125 43.65625 -17.78125 49.53125 -14.8125 C 55.414062 -11.84375 61.8125 -10.359375 68.71875 -10.359375 C 72.351562 -10.359375 76.078125 -10.8125 79.890625 -11.71875 C 83.710938 -12.632812 87.410156 -14.09375 90.984375 -16.09375 C 94.554688 -18.09375 97.859375 -20.578125 100.890625 -23.546875 C 103.921875 -26.515625 106.460938 -30.117188 108.515625 -34.359375 L 119.0625 -28.90625 C 117 -24.050781 114.085938 -19.773438 110.328125 -16.078125 C 106.578125 -12.390625 102.398438 -9.269531 97.796875 -6.71875 C 93.191406 -4.175781 88.3125 -2.238281 83.15625 -0.90625 C 78.007812 0.425781 72.953125 1.09375 67.984375 1.09375 C 59.140625 1.09375 51.019531 -0.84375 43.625 -4.71875 C 36.226562 -8.601562 29.863281 -13.664062 24.53125 -19.90625 C 19.207031 -26.144531 15.0625 -33.234375 12.09375 -41.171875 C 9.125 -49.109375 7.640625 -57.195312 7.640625 -65.4375 Z M 7.640625 -65.4375 "/></g></g></g><g fill="#cb6ce6" fill-opacity="1"><g transform="translate(1364.926466, 354.845228)"><g><path d="M 68.171875 0.90625 C 59.203125 0.90625 50.988281 -0.941406 43.53125 -4.640625 C 36.082031 -8.335938 29.691406 -13.242188 24.359375 -19.359375 C 19.023438 -25.484375 14.90625 -32.484375 12 -40.359375 C 9.09375 -48.234375 7.640625 -56.289062 7.640625 -64.53125 C 7.640625 -73.132812 9.179688 -81.375 12.265625 -89.25 C 15.359375 -97.132812 19.628906 -104.101562 25.078125 -110.15625 C 30.535156 -116.21875 36.957031 -121.035156 44.34375 -124.609375 C 51.738281 -128.179688 59.738281 -129.96875 68.34375 -129.96875 C 77.3125 -129.96875 85.519531 -128.054688 92.96875 -124.234375 C 100.425781 -120.421875 106.789062 -115.425781 112.0625 -109.25 C 117.332031 -103.070312 121.421875 -96.070312 124.328125 -88.25 C 127.242188 -80.4375 128.703125 -72.46875 128.703125 -64.34375 C 128.703125 -55.738281 127.15625 -47.5 124.0625 -39.625 C 120.976562 -31.75 116.738281 -24.8125 111.34375 -18.8125 C 105.945312 -12.8125 99.550781 -8.023438 92.15625 -4.453125 C 84.769531 -0.878906 76.773438 0.90625 68.171875 0.90625 Z M 20.359375 -64.53125 C 20.359375 -57.5 21.507812 -50.738281 23.8125 -44.25 C 26.113281 -37.769531 29.382812 -32.015625 33.625 -26.984375 C 37.863281 -21.960938 42.890625 -17.96875 48.703125 -15 C 54.523438 -12.03125 61.015625 -10.546875 68.171875 -10.546875 C 75.441406 -10.546875 82.046875 -12.117188 87.984375 -15.265625 C 93.921875 -18.421875 98.945312 -22.539062 103.0625 -27.625 C 107.1875 -32.71875 110.367188 -38.472656 112.609375 -44.890625 C 114.847656 -51.316406 115.96875 -57.863281 115.96875 -64.53125 C 115.96875 -71.5625 114.785156 -78.316406 112.421875 -84.796875 C 110.066406 -91.285156 106.765625 -97.015625 102.515625 -101.984375 C 98.273438 -106.953125 93.25 -110.921875 87.4375 -113.890625 C 81.625 -116.859375 75.203125 -118.34375 68.171875 -118.34375 C 60.898438 -118.34375 54.296875 -116.796875 48.359375 -113.703125 C 42.421875 -110.609375 37.390625 -106.515625 33.265625 -101.421875 C 29.140625 -96.335938 25.957031 -90.582031 23.71875 -84.15625 C 21.476562 -77.738281 20.359375 -71.195312 20.359375 -64.53125 Z M 20.359375 -64.53125 "/></g></g></g><g fill="#cb6ce6" fill-opacity="1"><g transform="translate(1501.426265, 354.845228)"><g><path d="M 109.4375 -18.90625 C 97.4375 -5.695312 83.617188 0.90625 67.984375 0.90625 C 59.253906 0.90625 51.222656 -0.96875 43.890625 -4.71875 C 36.566406 -8.476562 30.207031 -13.445312 24.8125 -19.625 C 19.414062 -25.8125 15.203125 -32.8125 12.171875 -40.625 C 9.148438 -48.445312 7.640625 -56.476562 7.640625 -64.71875 C 7.640625 -73.320312 9.125 -81.5625 12.09375 -89.4375 C 15.0625 -97.3125 19.207031 -104.25 24.53125 -110.25 C 29.863281 -116.25 36.164062 -121.035156 43.4375 -124.609375 C 50.71875 -128.179688 58.660156 -129.96875 67.265625 -129.96875 C 73.566406 -129.96875 79.320312 -129.269531 84.53125 -127.875 C 89.738281 -126.488281 94.375 -124.550781 98.4375 -122.0625 C 102.5 -119.582031 106.015625 -116.613281 108.984375 -113.15625 C 111.953125 -109.707031 114.460938 -105.921875 116.515625 -101.796875 L 106.703125 -95.25 C 102.460938 -103.25 96.945312 -109.125 90.15625 -112.875 C 83.375 -116.632812 75.679688 -118.515625 67.078125 -118.515625 C 59.929688 -118.515625 53.476562 -117 47.71875 -113.96875 C 41.957031 -110.945312 37.046875 -106.921875 32.984375 -101.890625 C 28.929688 -96.859375 25.8125 -91.097656 23.625 -84.609375 C 21.445312 -78.128906 20.359375 -71.4375 20.359375 -64.53125 C 20.359375 -57.257812 21.597656 -50.351562 24.078125 -43.8125 C 26.566406 -37.269531 29.992188 -31.539062 34.359375 -26.625 C 38.722656 -21.71875 43.84375 -17.8125 49.71875 -14.90625 C 55.59375 -12 61.984375 -10.546875 68.890625 -10.546875 C 76.285156 -10.546875 83.34375 -12.269531 90.0625 -15.71875 C 96.789062 -19.175781 103.25 -24.660156 109.4375 -32.171875 L 109.4375 -53.625 L 80.703125 -53.625 L 80.703125 -63.4375 L 120.15625 -63.4375 L 120.15625 0 L 109.4375 0 Z M 109.4375 -18.90625 "/></g></g></g><g fill="#cb6ce6" fill-opacity="1"><g transform="translate(1631.564544, 354.845228)"><g><path d="M 28.90625 -105.4375 L 28.90625 0 L 16.171875 0 L 16.171875 -129.0625 L 26 -129.0625 L 111.4375 -21.625 L 111.4375 -128.890625 L 124.15625 -128.890625 L 124.15625 0 L 113.0625 0 Z M 28.90625 -105.4375 "/></g></g></g><g fill="#cb6ce6" fill-opacity="1"><g transform="translate(1771.881244, 354.845228)"><g><path d="M 16.171875 0 L 16.171875 -129.0625 L 28.90625 -129.0625 L 28.90625 0 Z M 16.171875 0 "/></g></g></g><g fill="#cb6ce6" fill-opacity="1"><g transform="translate(1816.957083, 354.845228)"><g><path d="M 107.796875 -117.796875 L 61.8125 -117.796875 L 61.8125 0 L 49.078125 0 L 49.078125 -117.796875 L 3.09375 -117.796875 L 3.09375 -129.0625 L 107.796875 -129.0625 Z M 107.796875 -117.796875 "/></g></g></g><g fill="#cb6ce6" fill-opacity="1"><g transform="translate(1927.829087, 354.845228)"><g><path d="M 16.171875 0 L 16.171875 -129.0625 L 28.90625 -129.0625 L 28.90625 0 Z M 16.171875 0 "/></g></g></g><g fill="#cb6ce6" fill-opacity="1"><g transform="translate(1972.904926, 354.845228)"><g><path d="M 68.171875 0.90625 C 59.203125 0.90625 50.988281 -0.941406 43.53125 -4.640625 C 36.082031 -8.335938 29.691406 -13.242188 24.359375 -19.359375 C 19.023438 -25.484375 14.90625 -32.484375 12 -40.359375 C 9.09375 -48.234375 7.640625 -56.289062 7.640625 -64.53125 C 7.640625 -73.132812 9.179688 -81.375 12.265625 -89.25 C 15.359375 -97.132812 19.628906 -104.101562 25.078125 -110.15625 C 30.535156 -116.21875 36.957031 -121.035156 44.34375 -124.609375 C 51.738281 -128.179688 59.738281 -129.96875 68.34375 -129.96875 C 77.3125 -129.96875 85.519531 -128.054688 92.96875 -124.234375 C 100.425781 -120.421875 106.789062 -115.425781 112.0625 -109.25 C 117.332031 -103.070312 121.421875 -96.070312 124.328125 -88.25 C 127.242188 -80.4375 128.703125 -72.46875 128.703125 -64.34375 C 128.703125 -55.738281 127.15625 -47.5 124.0625 -39.625 C 120.976562 -31.75 116.738281 -24.8125 111.34375 -18.8125 C 105.945312 -12.8125 99.550781 -8.023438 92.15625 -4.453125 C 84.769531 -0.878906 76.773438 0.90625 68.171875 0.90625 Z M 20.359375 -64.53125 C 20.359375 -57.5 21.507812 -50.738281 23.8125 -44.25 C 26.113281 -37.769531 29.382812 -32.015625 33.625 -26.984375 C 37.863281 -21.960938 42.890625 -17.96875 48.703125 -15 C 54.523438 -12.03125 61.015625 -10.546875 68.171875 -10.546875 C 75.441406 -10.546875 82.046875 -12.117188 87.984375 -15.265625 C 93.921875 -18.421875 98.945312 -22.539062 103.0625 -27.625 C 107.1875 -32.71875 110.367188 -38.472656 112.609375 -44.890625 C 114.847656 -51.316406 115.96875 -57.863281 115.96875 -64.53125 C 115.96875 -71.5625 114.785156 -78.316406 112.421875 -84.796875 C 110.066406 -91.285156 106.765625 -97.015625 102.515625 -101.984375 C 98.273438 -106.953125 93.25 -110.921875 87.4375 -113.890625 C 81.625 -116.859375 75.203125 -118.34375 68.171875 -118.34375 C 60.898438 -118.34375 54.296875 -116.796875 48.359375 -113.703125 C 42.421875 -110.609375 37.390625 -106.515625 33.265625 -101.421875 C 29.140625 -96.335938 25.957031 -90.582031 23.71875 -84.15625 C 21.476562 -77.738281 20.359375 -71.195312 20.359375 -64.53125 Z M 20.359375 -64.53125 "/></g></g></g><g fill="#cb6ce6" fill-opacity="1"><g transform="translate(2109.404783, 354.845228)"><g><path d="M 28.90625 -105.4375 L 28.90625 0 L 16.171875 0 L 16.171875 -129.0625 L 26 -129.0625 L 111.4375 -21.625 L 111.4375 -128.890625 L 124.15625 -128.890625 L 124.15625 0 L 113.0625 0 Z M 28.90625 -105.4375 "/></g></g></g><g clip-path="url(#3d3ca6a77d)"><path fill="#cb6ce6" d="M 826.980469 421.621094 L 1931.320312 421.621094 L 1931.320312 448.976562 L 826.980469 448.976562 Z M 826.980469 421.621094 " fill-opacity="1" fill-rule="nonzero"/></g><g clip-path="url(#5dc858bc66)"><path fill="#cb6ce6" d="M 825.371094 124.449219 L 1931.324219 124.449219 L 1931.324219 151.800781 L 825.371094 151.800781 Z M 825.371094 124.449219 " fill-opacity="1" fill-rule="nonzero"/></g><g fill="#000000" fill-opacity="1"><g transform="translate(1002.382447, 507.475897)"><g><path d="M 1.765625 -40.015625 L 12.8125 -40.015625 C 15.664062 -40.015625 17.804688 -39.222656 19.234375 -37.640625 C 20.660156 -36.054688 21.390625 -33.710938 21.421875 -30.609375 L 21.515625 -11.875 C 21.546875 -7.9375 20.863281 -4.972656 19.46875 -2.984375 C 18.070312 -0.992188 15.757812 0 12.53125 0 L 1.765625 0 Z M 11.21875 -7.078125 C 12.6875 -7.078125 13.421875 -7.789062 13.421875 -9.21875 L 13.421875 -29.859375 C 13.421875 -30.753906 13.347656 -31.425781 13.203125 -31.875 C 13.066406 -32.332031 12.8125 -32.640625 12.4375 -32.796875 C 12.0625 -32.953125 11.488281 -33.03125 10.71875 -33.03125 L 9.828125 -33.03125 L 9.828125 -7.078125 Z M 11.21875 -7.078125 "/></g></g></g><g fill="#000000" fill-opacity="1"><g transform="translate(1025.328743, 507.475897)"><g><path d="M 11.171875 0.375 C 7.671875 0.375 5.15625 -0.585938 3.625 -2.515625 C 2.101562 -4.441406 1.34375 -7.3125 1.34375 -11.125 L 1.34375 -24.828125 C 1.34375 -27.960938 2.242188 -30.351562 4.046875 -32 C 5.847656 -33.644531 8.363281 -34.46875 11.59375 -34.46875 C 18.144531 -34.46875 21.421875 -31.253906 21.421875 -24.828125 L 21.421875 -22.359375 C 21.421875 -19.867188 21.390625 -17.847656 21.328125 -16.296875 L 9.5 -16.296875 L 9.5 -9.6875 C 9.5 -8.507812 9.625 -7.585938 9.875 -6.921875 C 10.125 -6.253906 10.648438 -5.921875 11.453125 -5.921875 C 12.078125 -5.921875 12.519531 -6.101562 12.78125 -6.46875 C 13.050781 -6.84375 13.207031 -7.269531 13.25 -7.75 C 13.300781 -8.238281 13.328125 -8.945312 13.328125 -9.875 L 13.328125 -13.1875 L 21.421875 -13.1875 L 21.421875 -11.21875 C 21.421875 -7.25 20.648438 -4.320312 19.109375 -2.4375 C 17.578125 -0.5625 14.929688 0.375 11.171875 0.375 Z M 13.328125 -20.359375 L 13.328125 -24.734375 C 13.328125 -27.179688 12.71875 -28.40625 11.5 -28.40625 C 10.132812 -28.40625 9.453125 -27.179688 9.453125 -24.734375 L 9.453125 -20.359375 Z M 13.328125 -20.359375 "/></g></g></g><g fill="#000000" fill-opacity="1"><g transform="translate(1048.042334, 507.475897)"><g><path d="M 5.96875 0 L 0.515625 -34.09375 L 8.65625 -34.09375 L 10.34375 -16.859375 L 10.625 -11.3125 L 10.953125 -16.90625 L 12.8125 -34.09375 L 20.953125 -34.09375 L 15.421875 0 Z M 5.96875 0 "/></g></g></g><g fill="#000000" fill-opacity="1"><g transform="translate(1069.499193, 507.475897)"><g><path d="M 11.171875 0.375 C 7.671875 0.375 5.15625 -0.585938 3.625 -2.515625 C 2.101562 -4.441406 1.34375 -7.3125 1.34375 -11.125 L 1.34375 -24.828125 C 1.34375 -27.960938 2.242188 -30.351562 4.046875 -32 C 5.847656 -33.644531 8.363281 -34.46875 11.59375 -34.46875 C 18.144531 -34.46875 21.421875 -31.253906 21.421875 -24.828125 L 21.421875 -22.359375 C 21.421875 -19.867188 21.390625 -17.847656 21.328125 -16.296875 L 9.5 -16.296875 L 9.5 -9.6875 C 9.5 -8.507812 9.625 -7.585938 9.875 -6.921875 C 10.125 -6.253906 10.648438 -5.921875 11.453125 -5.921875 C 12.078125 -5.921875 12.519531 -6.101562 12.78125 -6.46875 C 13.050781 -6.84375 13.207031 -7.269531 13.25 -7.75 C 13.300781 -8.238281 13.328125 -8.945312 13.328125 -9.875 L 13.328125 -13.1875 L 21.421875 -13.1875 L 21.421875 -11.21875 C 21.421875 -7.25 20.648438 -4.320312 19.109375 -2.4375 C 17.578125 -0.5625 14.929688 0.375 11.171875 0.375 Z M 13.328125 -20.359375 L 13.328125 -24.734375 C 13.328125 -27.179688 12.71875 -28.40625 11.5 -28.40625 C 10.132812 -28.40625 9.453125 -27.179688 9.453125 -24.734375 L 9.453125 -20.359375 Z M 13.328125 -20.359375 "/></g></g></g><g fill="#000000" fill-opacity="1"><g transform="translate(1092.212783, 507.475897)"><g><path d="M 1.625 0 L 1.625 -40.25 L 9.921875 -40.25 L 9.921875 0 Z M 1.625 0 "/></g></g></g><g fill="#000000" fill-opacity="1"><g transform="translate(1103.755753, 507.475897)"><g><path d="M 11.546875 0.375 C 4.742188 0.375 1.34375 -3.148438 1.34375 -10.203125 L 1.34375 -23.890625 C 1.34375 -27.117188 2.25 -29.6875 4.0625 -31.59375 C 5.882812 -33.507812 8.378906 -34.46875 11.546875 -34.46875 C 14.710938 -34.46875 17.203125 -33.507812 19.015625 -31.59375 C 20.835938 -29.6875 21.75 -27.117188 21.75 -23.890625 L 21.75 -10.203125 C 21.75 -3.148438 18.347656 0.375 11.546875 0.375 Z M 11.546875 -5.921875 C 12.203125 -5.921875 12.6875 -6.148438 13 -6.609375 C 13.3125 -7.078125 13.46875 -7.71875 13.46875 -8.53125 L 13.46875 -25.203125 C 13.46875 -27.191406 12.828125 -28.1875 11.546875 -28.1875 C 10.273438 -28.1875 9.640625 -27.191406 9.640625 -25.203125 L 9.640625 -8.53125 C 9.640625 -7.71875 9.796875 -7.078125 10.109375 -6.609375 C 10.421875 -6.148438 10.898438 -5.921875 11.546875 -5.921875 Z M 11.546875 -5.921875 "/></g></g></g><g fill="#000000" fill-opacity="1"><g transform="translate(1126.888223, 507.475897)"><g><path d="M 1.625 -34.09375 L 9.921875 -34.09375 L 9.921875 -32.28125 C 11.097656 -33.738281 12.726562 -34.46875 14.8125 -34.46875 C 17.445312 -34.46875 19.285156 -33.582031 20.328125 -31.8125 C 21.367188 -30.039062 21.890625 -27.585938 21.890625 -24.453125 L 21.890625 -11.828125 C 21.890625 -9.160156 21.734375 -6.976562 21.421875 -5.28125 C 21.109375 -3.59375 20.425781 -2.226562 19.375 -1.1875 C 18.320312 -0.144531 16.722656 0.375 14.578125 0.375 C 12.523438 0.375 10.972656 -0.195312 9.921875 -1.34375 L 9.921875 6.796875 L 1.625 6.796875 Z M 11.875 -5.96875 C 12.625 -5.96875 13.101562 -6.304688 13.3125 -6.984375 C 13.53125 -7.671875 13.640625 -8.664062 13.640625 -9.96875 L 13.640625 -24.453125 C 13.640625 -25.628906 13.53125 -26.53125 13.3125 -27.15625 C 13.101562 -27.78125 12.609375 -28.09375 11.828125 -28.09375 C 10.554688 -28.09375 9.921875 -26.910156 9.921875 -24.546875 L 9.921875 -9.59375 C 9.921875 -8.445312 10.050781 -7.554688 10.3125 -6.921875 C 10.582031 -6.285156 11.101562 -5.96875 11.875 -5.96875 Z M 11.875 -5.96875 "/></g></g></g><g fill="#000000" fill-opacity="1"><g transform="translate(1150.160336, 507.475897)"><g><path d="M 11.171875 0.375 C 7.671875 0.375 5.15625 -0.585938 3.625 -2.515625 C 2.101562 -4.441406 1.34375 -7.3125 1.34375 -11.125 L 1.34375 -24.828125 C 1.34375 -27.960938 2.242188 -30.351562 4.046875 -32 C 5.847656 -33.644531 8.363281 -34.46875 11.59375 -34.46875 C 18.144531 -34.46875 21.421875 -31.253906 21.421875 -24.828125 L 21.421875 -22.359375 C 21.421875 -19.867188 21.390625 -17.847656 21.328125 -16.296875 L 9.5 -16.296875 L 9.5 -9.6875 C 9.5 -8.507812 9.625 -7.585938 9.875 -6.921875 C 10.125 -6.253906 10.648438 -5.921875 11.453125 -5.921875 C 12.078125 -5.921875 12.519531 -6.101562 12.78125 -6.46875 C 13.050781 -6.84375 13.207031 -7.269531 13.25 -7.75 C 13.300781 -8.238281 13.328125 -8.945312 13.328125 -9.875 L 13.328125 -13.1875 L 21.421875 -13.1875 L 21.421875 -11.21875 C 21.421875 -7.25 20.648438 -4.320312 19.109375 -2.4375 C 17.578125 -0.5625 14.929688 0.375 11.171875 0.375 Z M 13.328125 -20.359375 L 13.328125 -24.734375 C 13.328125 -27.179688 12.71875 -28.40625 11.5 -28.40625 C 10.132812 -28.40625 9.453125 -27.179688 9.453125 -24.734375 L 9.453125 -20.359375 Z M 13.328125 -20.359375 "/></g></g></g><g fill="#000000" fill-opacity="1"><g transform="translate(1172.873926, 507.475897)"><g><path d="M 8.34375 0.375 C 6.351562 0.375 4.851562 -0.0976562 3.84375 -1.046875 C 2.832031 -1.992188 2.160156 -3.25 1.828125 -4.8125 C 1.503906 -6.382812 1.34375 -8.398438 1.34375 -10.859375 L 1.4375 -26.21875 C 1.4375 -28.644531 2.050781 -30.625 3.28125 -32.15625 C 4.507812 -33.695312 6.242188 -34.46875 8.484375 -34.46875 C 10.679688 -34.46875 12.328125 -33.738281 13.421875 -32.28125 L 13.421875 -40.25 L 21.5625 -40.25 L 21.5625 0 L 13.421875 0 L 13.421875 -3.640625 C 12.953125 -2.296875 12.320312 -1.289062 11.53125 -0.625 C 10.738281 0.0390625 9.675781 0.375 8.34375 0.375 Z M 11.453125 -6.015625 C 12.265625 -6.015625 12.796875 -6.410156 13.046875 -7.203125 C 13.296875 -7.992188 13.421875 -9.054688 13.421875 -10.390625 L 13.421875 -24.640625 C 13.421875 -25.628906 13.28125 -26.46875 13 -27.15625 C 12.71875 -27.84375 12.21875 -28.1875 11.5 -28.1875 C 10.695312 -28.1875 10.160156 -27.863281 9.890625 -27.21875 C 9.628906 -26.582031 9.5 -25.722656 9.5 -24.640625 L 9.5 -10.296875 C 9.5 -7.441406 10.148438 -6.015625 11.453125 -6.015625 Z M 11.453125 -6.015625 "/></g></g></g><g fill="#000000" fill-opacity="1"><g transform="translate(1196.052929, 507.475897)"><g/></g></g><g fill="#000000" fill-opacity="1"><g transform="translate(1206.944266, 507.475897)"><g><path d="M 14.8125 0.375 C 12.570312 0.375 10.972656 -0.960938 10.015625 -3.640625 L 10.015625 0 L 1.625 0 L 1.625 -40.25 L 10.015625 -40.25 L 10.015625 -32.46875 C 11.316406 -33.800781 12.835938 -34.46875 14.578125 -34.46875 C 17.210938 -34.46875 19.101562 -33.679688 20.25 -32.109375 C 21.40625 -30.546875 21.984375 -28.289062 21.984375 -25.34375 L 21.984375 -8.890625 C 21.984375 -6.097656 21.390625 -3.851562 20.203125 -2.15625 C 19.023438 -0.46875 17.226562 0.375 14.8125 0.375 Z M 12.0625 -5.96875 C 12.625 -5.96875 13.019531 -6.144531 13.25 -6.5 C 13.476562 -6.851562 13.613281 -7.300781 13.65625 -7.84375 C 13.707031 -8.382812 13.734375 -9.234375 13.734375 -10.390625 L 13.734375 -24.59375 C 13.734375 -25.800781 13.625 -26.703125 13.40625 -27.296875 C 13.195312 -27.890625 12.734375 -28.1875 12.015625 -28.1875 C 11.242188 -28.1875 10.71875 -27.890625 10.4375 -27.296875 C 10.15625 -26.703125 10.015625 -25.832031 10.015625 -24.6875 L 10.015625 -10.390625 C 10.015625 -8.898438 10.140625 -7.789062 10.390625 -7.0625 C 10.640625 -6.332031 11.195312 -5.96875 12.0625 -5.96875 Z M 12.0625 -5.96875 "/></g></g></g><g fill="#000000" fill-opacity="1"><g transform="translate(1230.262911, 507.475897)"><g><path d="M 0.984375 0.515625 L 4.890625 0.515625 C 5.453125 0.515625 5.734375 0.28125 5.734375 -0.1875 C 5.734375 -0.40625 5.71875 -0.578125 5.6875 -0.703125 L 0.375 -34.09375 L 8.15625 -34.09375 L 9.6875 -17.46875 L 10.4375 -8.984375 L 11.3125 -17.46875 L 13.140625 -34.09375 L 20.953125 -34.09375 L 14.625 1.765625 C 14.40625 3.097656 13.960938 4.082031 13.296875 4.71875 C 12.628906 5.363281 11.582031 5.6875 10.15625 5.6875 L 0.984375 5.6875 Z M 0.984375 0.515625 "/></g></g></g><g fill="#000000" fill-opacity="1"><g transform="translate(1251.71977, 507.475897)"><g/></g></g><g fill="#000000" fill-opacity="1"><g transform="translate(1262.611108, 507.475897)"><g><path d="M 10.015625 0.375 C 7.128906 0.375 4.976562 -0.640625 3.5625 -2.671875 C 2.144531 -4.710938 1.4375 -7.796875 1.4375 -11.921875 L 1.4375 -29.15625 C 1.4375 -32.851562 2.257812 -35.648438 3.90625 -37.546875 C 5.550781 -39.441406 8.003906 -40.390625 11.265625 -40.390625 C 13.910156 -40.390625 15.960938 -39.859375 17.421875 -38.796875 C 18.878906 -37.742188 19.882812 -36.207031 20.4375 -34.1875 C 21 -32.164062 21.28125 -29.570312 21.28125 -26.40625 L 13.46875 -26.40625 L 13.46875 -30 C 13.46875 -30.957031 13.332031 -31.703125 13.0625 -32.234375 C 12.800781 -32.765625 12.328125 -33.03125 11.640625 -33.03125 C 10.117188 -33.03125 9.359375 -32.035156 9.359375 -30.046875 L 9.359375 -10.671875 C 9.359375 -9.453125 9.515625 -8.53125 9.828125 -7.90625 C 10.140625 -7.289062 10.679688 -6.984375 11.453125 -6.984375 C 12.234375 -6.984375 12.773438 -7.289062 13.078125 -7.90625 C 13.390625 -8.53125 13.546875 -9.453125 13.546875 -10.671875 L 13.546875 -16.390625 L 11.40625 -16.390625 L 11.40625 -23.296875 L 21.1875 -23.296875 L 21.1875 0 L 17.984375 0 L 16.625 -3.359375 C 15.195312 -0.867188 12.992188 0.375 10.015625 0.375 Z M 10.015625 0.375 "/></g></g></g><g fill="#000000" fill-opacity="1"><g transform="translate(1285.185056, 507.475897)"><g><path d="M 11.546875 0.375 C 4.742188 0.375 1.34375 -3.148438 1.34375 -10.203125 L 1.34375 -23.890625 C 1.34375 -27.117188 2.25 -29.6875 4.0625 -31.59375 C 5.882812 -33.507812 8.378906 -34.46875 11.546875 -34.46875 C 14.710938 -34.46875 17.203125 -33.507812 19.015625 -31.59375 C 20.835938 -29.6875 21.75 -27.117188 21.75 -23.890625 L 21.75 -10.203125 C 21.75 -3.148438 18.347656 0.375 11.546875 0.375 Z M 11.546875 -5.921875 C 12.203125 -5.921875 12.6875 -6.148438 13 -6.609375 C 13.3125 -7.078125 13.46875 -7.71875 13.46875 -8.53125 L 13.46875 -25.203125 C 13.46875 -27.191406 12.828125 -28.1875 11.546875 -28.1875 C 10.273438 -28.1875 9.640625 -27.191406 9.640625 -25.203125 L 9.640625 -8.53125 C 9.640625 -7.71875 9.796875 -7.078125 10.109375 -6.609375 C 10.421875 -6.148438 10.898438 -5.921875 11.546875 -5.921875 Z M 11.546875 -5.921875 "/></g></g></g><g fill="#000000" fill-opacity="1"><g transform="translate(1308.317527, 507.475897)"><g><path d="M 5.96875 0 L 0.515625 -34.09375 L 8.65625 -34.09375 L 10.34375 -16.859375 L 10.625 -11.3125 L 10.953125 -16.90625 L 12.8125 -34.09375 L 20.953125 -34.09375 L 15.421875 0 Z M 5.96875 0 "/></g></g></g><g fill="#000000" fill-opacity="1"><g transform="translate(1329.774387, 507.475897)"><g><path d="M 11.171875 0.375 C 7.671875 0.375 5.15625 -0.585938 3.625 -2.515625 C 2.101562 -4.441406 1.34375 -7.3125 1.34375 -11.125 L 1.34375 -24.828125 C 1.34375 -27.960938 2.242188 -30.351562 4.046875 -32 C 5.847656 -33.644531 8.363281 -34.46875 11.59375 -34.46875 C 18.144531 -34.46875 21.421875 -31.253906 21.421875 -24.828125 L 21.421875 -22.359375 C 21.421875 -19.867188 21.390625 -17.847656 21.328125 -16.296875 L 9.5 -16.296875 L 9.5 -9.6875 C 9.5 -8.507812 9.625 -7.585938 9.875 -6.921875 C 10.125 -6.253906 10.648438 -5.921875 11.453125 -5.921875 C 12.078125 -5.921875 12.519531 -6.101562 12.78125 -6.46875 C 13.050781 -6.84375 13.207031 -7.269531 13.25 -7.75 C 13.300781 -8.238281 13.328125 -8.945312 13.328125 -9.875 L 13.328125 -13.1875 L 21.421875 -13.1875 L 21.421875 -11.21875 C 21.421875 -7.25 20.648438 -4.320312 19.109375 -2.4375 C 17.578125 -0.5625 14.929688 0.375 11.171875 0.375 Z M 13.328125 -20.359375 L 13.328125 -24.734375 C 13.328125 -27.179688 12.71875 -28.40625 11.5 -28.40625 C 10.132812 -28.40625 9.453125 -27.179688 9.453125 -24.734375 L 9.453125 -20.359375 Z M 13.328125 -20.359375 "/></g></g></g><g fill="#000000" fill-opacity="1"><g transform="translate(1352.487977, 507.475897)"><g><path d="M 1.625 -34.09375 L 9.78125 -34.09375 L 9.78125 -30.328125 C 10.1875 -31.660156 10.894531 -32.691406 11.90625 -33.421875 C 12.914062 -34.148438 14.164062 -34.515625 15.65625 -34.515625 L 15.65625 -27.71875 C 14.5 -27.71875 13.226562 -27.550781 11.84375 -27.21875 C 10.46875 -26.894531 9.78125 -26.515625 9.78125 -26.078125 L 9.78125 0 L 1.625 0 Z M 1.625 -34.09375 "/></g></g></g><g fill="#000000" fill-opacity="1"><g transform="translate(1368.499167, 507.475897)"><g><path d="M 1.625 -34.09375 L 9.78125 -34.09375 L 9.78125 -29.765625 C 10.125 -31.160156 10.710938 -32.289062 11.546875 -33.15625 C 12.390625 -34.03125 13.507812 -34.46875 14.90625 -34.46875 C 17.207031 -34.46875 18.90625 -33.757812 20 -32.34375 C 21.101562 -30.9375 21.65625 -28.925781 21.65625 -26.3125 L 21.65625 0 L 13.640625 0 L 13.640625 -25.484375 C 13.640625 -26.222656 13.492188 -26.859375 13.203125 -27.390625 C 12.910156 -27.921875 12.453125 -28.1875 11.828125 -28.1875 C 10.992188 -28.1875 10.441406 -27.800781 10.171875 -27.03125 C 9.910156 -26.269531 9.78125 -25.253906 9.78125 -23.984375 L 9.78125 0 L 1.625 0 Z M 1.625 -34.09375 "/></g></g></g><g fill="#000000" fill-opacity="1"><g transform="translate(1391.724747, 507.475897)"><g><path d="M 1.625 -34.09375 L 9.59375 -34.09375 L 9.59375 -30.140625 C 9.96875 -31.597656 10.601562 -32.679688 11.5 -33.390625 C 12.40625 -34.109375 13.679688 -34.46875 15.328125 -34.46875 C 16.660156 -34.46875 17.816406 -34.164062 18.796875 -33.5625 C 19.773438 -32.957031 20.460938 -32.125 20.859375 -31.0625 C 21.546875 -32.25 22.304688 -33.113281 23.140625 -33.65625 C 23.984375 -34.195312 25.148438 -34.46875 26.640625 -34.46875 C 29.304688 -34.46875 31.160156 -33.648438 32.203125 -32.015625 C 33.242188 -30.390625 33.765625 -28.023438 33.765625 -24.921875 L 33.671875 0 L 25.484375 0 L 25.484375 -25.0625 C 25.484375 -27.257812 24.921875 -28.359375 23.796875 -28.359375 C 23.023438 -28.359375 22.46875 -27.976562 22.125 -27.21875 C 21.78125 -26.457031 21.609375 -25.550781 21.609375 -24.5 L 21.609375 0 L 13.46875 0 L 13.46875 -25.0625 C 13.46875 -26.019531 13.363281 -26.789062 13.15625 -27.375 C 12.957031 -27.96875 12.53125 -28.265625 11.875 -28.265625 C 11.039062 -28.265625 10.453125 -27.851562 10.109375 -27.03125 C 9.765625 -26.207031 9.59375 -25.222656 9.59375 -24.078125 L 9.59375 0 L 1.625 0 Z M 1.625 -34.09375 "/></g></g></g><g fill="#000000" fill-opacity="1"><g transform="translate(1427.005241, 507.475897)"><g><path d="M 11.171875 0.375 C 7.671875 0.375 5.15625 -0.585938 3.625 -2.515625 C 2.101562 -4.441406 1.34375 -7.3125 1.34375 -11.125 L 1.34375 -24.828125 C 1.34375 -27.960938 2.242188 -30.351562 4.046875 -32 C 5.847656 -33.644531 8.363281 -34.46875 11.59375 -34.46875 C 18.144531 -34.46875 21.421875 -31.253906 21.421875 -24.828125 L 21.421875 -22.359375 C 21.421875 -19.867188 21.390625 -17.847656 21.328125 -16.296875 L 9.5 -16.296875 L 9.5 -9.6875 C 9.5 -8.507812 9.625 -7.585938 9.875 -6.921875 C 10.125 -6.253906 10.648438 -5.921875 11.453125 -5.921875 C 12.078125 -5.921875 12.519531 -6.101562 12.78125 -6.46875 C 13.050781 -6.84375 13.207031 -7.269531 13.25 -7.75 C 13.300781 -8.238281 13.328125 -8.945312 13.328125 -9.875 L 13.328125 -13.1875 L 21.421875 -13.1875 L 21.421875 -11.21875 C 21.421875 -7.25 20.648438 -4.320312 19.109375 -2.4375 C 17.578125 -0.5625 14.929688 0.375 11.171875 0.375 Z M 13.328125 -20.359375 L 13.328125 -24.734375 C 13.328125 -27.179688 12.71875 -28.40625 11.5 -28.40625 C 10.132812 -28.40625 9.453125 -27.179688 9.453125 -24.734375 L 9.453125 -20.359375 Z M 13.328125 -20.359375 "/></g></g></g><g fill="#000000" fill-opacity="1"><g transform="translate(1449.718831, 507.475897)"><g><path d="M 1.625 -34.09375 L 9.78125 -34.09375 L 9.78125 -29.765625 C 10.125 -31.160156 10.710938 -32.289062 11.546875 -33.15625 C 12.390625 -34.03125 13.507812 -34.46875 14.90625 -34.46875 C 17.207031 -34.46875 18.90625 -33.757812 20 -32.34375 C 21.101562 -30.9375 21.65625 -28.925781 21.65625 -26.3125 L 21.65625 0 L 13.640625 0 L 13.640625 -25.484375 C 13.640625 -26.222656 13.492188 -26.859375 13.203125 -27.390625 C 12.910156 -27.921875 12.453125 -28.1875 11.828125 -28.1875 C 10.992188 -28.1875 10.441406 -27.800781 10.171875 -27.03125 C 9.910156 -26.269531 9.78125 -25.253906 9.78125 -23.984375 L 9.78125 0 L 1.625 0 Z M 1.625 -34.09375 "/></g></g></g><g fill="#000000" fill-opacity="1"><g transform="translate(1472.944411, 507.475897)"><g><path d="M 8.65625 0.375 C 6.519531 0.375 5.046875 -0.0703125 4.234375 -0.96875 C 3.429688 -1.875 3.03125 -3.320312 3.03125 -5.3125 L 3.03125 -26.59375 L 0.75 -26.59375 L 0.75 -32.796875 L 3.03125 -32.796875 L 3.03125 -40.015625 L 10.953125 -40.015625 L 10.953125 -32.796875 L 13.28125 -32.796875 L 13.28125 -26.59375 L 10.953125 -26.59375 L 10.953125 -7.453125 C 10.953125 -6.859375 10.992188 -6.421875 11.078125 -6.140625 C 11.171875 -5.867188 11.421875 -5.734375 11.828125 -5.734375 C 12.140625 -5.734375 12.4375 -5.75 12.71875 -5.78125 C 13 -5.8125 13.1875 -5.828125 13.28125 -5.828125 L 13.28125 -0.234375 C 12.8125 -0.109375 12.132812 0.0195312 11.25 0.15625 C 10.363281 0.300781 9.5 0.375 8.65625 0.375 Z M 8.65625 0.375 "/></g></g></g><g fill="#000000" fill-opacity="1"><g transform="translate(1487.140394, 507.475897)"><g/></g></g><g fill="#000000" fill-opacity="1"><g transform="translate(1498.031732, 507.475897)"><g><path d="M 1.578125 -36.375 L 1.578125 -42.0625 L 9.734375 -42.0625 L 9.734375 -36.375 Z M 1.578125 0 L 1.578125 -34.09375 L 9.734375 -34.09375 L 9.734375 0 Z M 1.578125 0 "/></g></g></g><g fill="#000000" fill-opacity="1"><g transform="translate(1509.341995, 507.475897)"><g><path d="M 1.625 -34.09375 L 9.78125 -34.09375 L 9.78125 -29.765625 C 10.125 -31.160156 10.710938 -32.289062 11.546875 -33.15625 C 12.390625 -34.03125 13.507812 -34.46875 14.90625 -34.46875 C 17.207031 -34.46875 18.90625 -33.757812 20 -32.34375 C 21.101562 -30.9375 21.65625 -28.925781 21.65625 -26.3125 L 21.65625 0 L 13.640625 0 L 13.640625 -25.484375 C 13.640625 -26.222656 13.492188 -26.859375 13.203125 -27.390625 C 12.910156 -27.921875 12.453125 -28.1875 11.828125 -28.1875 C 10.992188 -28.1875 10.441406 -27.800781 10.171875 -27.03125 C 9.910156 -26.269531 9.78125 -25.253906 9.78125 -23.984375 L 9.78125 0 L 1.625 0 Z M 1.625 -34.09375 "/></g></g></g><g fill="#000000" fill-opacity="1"><g transform="translate(1532.567575, 507.475897)"><g><path d="M 1.625 -34.09375 L 9.78125 -34.09375 L 9.78125 -29.765625 C 10.125 -31.160156 10.710938 -32.289062 11.546875 -33.15625 C 12.390625 -34.03125 13.507812 -34.46875 14.90625 -34.46875 C 17.207031 -34.46875 18.90625 -33.757812 20 -32.34375 C 21.101562 -30.9375 21.65625 -28.925781 21.65625 -26.3125 L 21.65625 0 L 13.640625 0 L 13.640625 -25.484375 C 13.640625 -26.222656 13.492188 -26.859375 13.203125 -27.390625 C 12.910156 -27.921875 12.453125 -28.1875 11.828125 -28.1875 C 10.992188 -28.1875 10.441406 -27.800781 10.171875 -27.03125 C 9.910156 -26.269531 9.78125 -25.253906 9.78125 -23.984375 L 9.78125 0 L 1.625 0 Z M 1.625 -34.09375 "/></g></g></g><g fill="#000000" fill-opacity="1"><g transform="translate(1555.793155, 507.475897)"><g><path d="M 11.546875 0.375 C 4.742188 0.375 1.34375 -3.148438 1.34375 -10.203125 L 1.34375 -23.890625 C 1.34375 -27.117188 2.25 -29.6875 4.0625 -31.59375 C 5.882812 -33.507812 8.378906 -34.46875 11.546875 -34.46875 C 14.710938 -34.46875 17.203125 -33.507812 19.015625 -31.59375 C 20.835938 -29.6875 21.75 -27.117188 21.75 -23.890625 L 21.75 -10.203125 C 21.75 -3.148438 18.347656 0.375 11.546875 0.375 Z M 11.546875 -5.921875 C 12.203125 -5.921875 12.6875 -6.148438 13 -6.609375 C 13.3125 -7.078125 13.46875 -7.71875 13.46875 -8.53125 L 13.46875 -25.203125 C 13.46875 -27.191406 12.828125 -28.1875 11.546875 -28.1875 C 10.273438 -28.1875 9.640625 -27.191406 9.640625 -25.203125 L 9.640625 -8.53125 C 9.640625 -7.71875 9.796875 -7.078125 10.109375 -6.609375 C 10.421875 -6.148438 10.898438 -5.921875 11.546875 -5.921875 Z M 11.546875 -5.921875 "/></g></g></g><g fill="#000000" fill-opacity="1"><g transform="translate(1578.925626, 507.475897)"><g><path d="M 5.96875 0 L 0.515625 -34.09375 L 8.65625 -34.09375 L 10.34375 -16.859375 L 10.625 -11.3125 L 10.953125 -16.90625 L 12.8125 -34.09375 L 20.953125 -34.09375 L 15.421875 0 Z M 5.96875 0 "/></g></g></g><g fill="#000000" fill-opacity="1"><g transform="translate(1600.382485, 507.475897)"><g><path d="M 7.828125 0.375 C 5.179688 0.375 3.367188 -0.5 2.390625 -2.25 C 1.421875 -4.007812 0.9375 -6.519531 0.9375 -9.78125 C 0.9375 -12.445312 1.285156 -14.492188 1.984375 -15.921875 C 2.679688 -17.359375 3.648438 -18.410156 4.890625 -19.078125 C 6.128906 -19.742188 8.023438 -20.476562 10.578125 -21.28125 L 12.8125 -22.03125 L 12.8125 -25.53125 C 12.8125 -26.425781 12.628906 -27.113281 12.265625 -27.59375 C 11.910156 -28.070312 11.488281 -28.3125 11 -28.3125 C 10.5625 -28.3125 10.175781 -28.109375 9.84375 -27.703125 C 9.519531 -27.304688 9.359375 -26.765625 9.359375 -26.078125 L 9.359375 -24.03125 L 1.4375 -24.03125 L 1.4375 -25.15625 C 1.4375 -28.507812 2.21875 -30.898438 3.78125 -32.328125 C 5.351562 -33.753906 7.910156 -34.46875 11.453125 -34.46875 C 14.285156 -34.46875 16.582031 -33.726562 18.34375 -32.25 C 20.113281 -30.78125 21 -28.691406 21 -25.984375 L 21 0 L 12.90625 0 L 12.90625 -4.046875 C 12.5 -2.648438 11.851562 -1.5625 10.96875 -0.78125 C 10.082031 -0.0078125 9.035156 0.375 7.828125 0.375 Z M 11.03125 -5.96875 C 11.65625 -5.96875 12.097656 -6.222656 12.359375 -6.734375 C 12.628906 -7.242188 12.765625 -7.867188 12.765625 -8.609375 L 12.765625 -18.125 C 11.554688 -17.65625 10.660156 -17.0625 10.078125 -16.34375 C 9.503906 -15.632812 9.21875 -14.644531 9.21875 -13.375 L 9.21875 -8.984375 C 9.21875 -6.972656 9.820312 -5.96875 11.03125 -5.96875 Z M 11.03125 -5.96875 "/></g></g></g><g fill="#000000" fill-opacity="1"><g transform="translate(1622.863324, 507.475897)"><g><path d="M 8.65625 0.375 C 6.519531 0.375 5.046875 -0.0703125 4.234375 -0.96875 C 3.429688 -1.875 3.03125 -3.320312 3.03125 -5.3125 L 3.03125 -26.59375 L 0.75 -26.59375 L 0.75 -32.796875 L 3.03125 -32.796875 L 3.03125 -40.015625 L 10.953125 -40.015625 L 10.953125 -32.796875 L 13.28125 -32.796875 L 13.28125 -26.59375 L 10.953125 -26.59375 L 10.953125 -7.453125 C 10.953125 -6.859375 10.992188 -6.421875 11.078125 -6.140625 C 11.171875 -5.867188 11.421875 -5.734375 11.828125 -5.734375 C 12.140625 -5.734375 12.4375 -5.75 12.71875 -5.78125 C 13 -5.8125 13.1875 -5.828125 13.28125 -5.828125 L 13.28125 -0.234375 C 12.8125 -0.109375 12.132812 0.0195312 11.25 0.15625 C 10.363281 0.300781 9.5 0.375 8.65625 0.375 Z M 8.65625 0.375 "/></g></g></g><g fill="#000000" fill-opacity="1"><g transform="translate(1637.059307, 507.475897)"><g><path d="M 1.578125 -36.375 L 1.578125 -42.0625 L 9.734375 -42.0625 L 9.734375 -36.375 Z M 1.578125 0 L 1.578125 -34.09375 L 9.734375 -34.09375 L 9.734375 0 Z M 1.578125 0 "/></g></g></g><g fill="#000000" fill-opacity="1"><g transform="translate(1648.36957, 507.475897)"><g><path d="M 11.546875 0.375 C 4.742188 0.375 1.34375 -3.148438 1.34375 -10.203125 L 1.34375 -23.890625 C 1.34375 -27.117188 2.25 -29.6875 4.0625 -31.59375 C 5.882812 -33.507812 8.378906 -34.46875 11.546875 -34.46875 C 14.710938 -34.46875 17.203125 -33.507812 19.015625 -31.59375 C 20.835938 -29.6875 21.75 -27.117188 21.75 -23.890625 L 21.75 -10.203125 C 21.75 -3.148438 18.347656 0.375 11.546875 0.375 Z M 11.546875 -5.921875 C 12.203125 -5.921875 12.6875 -6.148438 13 -6.609375 C 13.3125 -7.078125 13.46875 -7.71875 13.46875 -8.53125 L 13.46875 -25.203125 C 13.46875 -27.191406 12.828125 -28.1875 11.546875 -28.1875 C 10.273438 -28.1875 9.640625 -27.191406 9.640625 -25.203125 L 9.640625 -8.53125 C 9.640625 -7.71875 9.796875 -7.078125 10.109375 -6.609375 C 10.421875 -6.148438 10.898438 -5.921875 11.546875 -5.921875 Z M 11.546875 -5.921875 "/></g></g></g><g fill="#000000" fill-opacity="1"><g transform="translate(1671.50204, 507.475897)"><g><path d="M 1.625 -34.09375 L 9.78125 -34.09375 L 9.78125 -29.765625 C 10.125 -31.160156 10.710938 -32.289062 11.546875 -33.15625 C 12.390625 -34.03125 13.507812 -34.46875 14.90625 -34.46875 C 17.207031 -34.46875 18.90625 -33.757812 20 -32.34375 C 21.101562 -30.9375 21.65625 -28.925781 21.65625 -26.3125 L 21.65625 0 L 13.640625 0 L 13.640625 -25.484375 C 13.640625 -26.222656 13.492188 -26.859375 13.203125 -27.390625 C 12.910156 -27.921875 12.453125 -28.1875 11.828125 -28.1875 C 10.992188 -28.1875 10.441406 -27.800781 10.171875 -27.03125 C 9.910156 -26.269531 9.78125 -25.253906 9.78125 -23.984375 L 9.78125 0 L 1.625 0 Z M 1.625 -34.09375 "/></g></g></g><g fill="#000000" fill-opacity="1"><g transform="translate(1694.72762, 507.475897)"><g/></g></g><g fill="#000000" fill-opacity="1"><g transform="translate(1705.618958, 507.475897)"><g><path d="M 1.625 0 L 1.625 -40.25 L 9.921875 -40.25 L 9.921875 0 Z M 1.625 0 "/></g></g></g><g fill="#000000" fill-opacity="1"><g transform="translate(1717.161927, 507.475897)"><g><path d="M 7.828125 0.375 C 5.179688 0.375 3.367188 -0.5 2.390625 -2.25 C 1.421875 -4.007812 0.9375 -6.519531 0.9375 -9.78125 C 0.9375 -12.445312 1.285156 -14.492188 1.984375 -15.921875 C 2.679688 -17.359375 3.648438 -18.410156 4.890625 -19.078125 C 6.128906 -19.742188 8.023438 -20.476562 10.578125 -21.28125 L 12.8125 -22.03125 L 12.8125 -25.53125 C 12.8125 -26.425781 12.628906 -27.113281 12.265625 -27.59375 C 11.910156 -28.070312 11.488281 -28.3125 11 -28.3125 C 10.5625 -28.3125 10.175781 -28.109375 9.84375 -27.703125 C 9.519531 -27.304688 9.359375 -26.765625 9.359375 -26.078125 L 9.359375 -24.03125 L 1.4375 -24.03125 L 1.4375 -25.15625 C 1.4375 -28.507812 2.21875 -30.898438 3.78125 -32.328125 C 5.351562 -33.753906 7.910156 -34.46875 11.453125 -34.46875 C 14.285156 -34.46875 16.582031 -33.726562 18.34375 -32.25 C 20.113281 -30.78125 21 -28.691406 21 -25.984375 L 21 0 L 12.90625 0 L 12.90625 -4.046875 C 12.5 -2.648438 11.851562 -1.5625 10.96875 -0.78125 C 10.082031 -0.0078125 9.035156 0.375 7.828125 0.375 Z M 11.03125 -5.96875 C 11.65625 -5.96875 12.097656 -6.222656 12.359375 -6.734375 C 12.628906 -7.242188 12.765625 -7.867188 12.765625 -8.609375 L 12.765625 -18.125 C 11.554688 -17.65625 10.660156 -17.0625 10.078125 -16.34375 C 9.503906 -15.632812 9.21875 -14.644531 9.21875 -13.375 L 9.21875 -8.984375 C 9.21875 -6.972656 9.820312 -5.96875 11.03125 -5.96875 Z M 11.03125 -5.96875 "/></g></g></g><g fill="#000000" fill-opacity="1"><g transform="translate(1739.642766, 507.475897)"><g><path d="M 14.8125 0.375 C 12.570312 0.375 10.972656 -0.960938 10.015625 -3.640625 L 10.015625 0 L 1.625 0 L 1.625 -40.25 L 10.015625 -40.25 L 10.015625 -32.46875 C 11.316406 -33.800781 12.835938 -34.46875 14.578125 -34.46875 C 17.210938 -34.46875 19.101562 -33.679688 20.25 -32.109375 C 21.40625 -30.546875 21.984375 -28.289062 21.984375 -25.34375 L 21.984375 -8.890625 C 21.984375 -6.097656 21.390625 -3.851562 20.203125 -2.15625 C 19.023438 -0.46875 17.226562 0.375 14.8125 0.375 Z M 12.0625 -5.96875 C 12.625 -5.96875 13.019531 -6.144531 13.25 -6.5 C 13.476562 -6.851562 13.613281 -7.300781 13.65625 -7.84375 C 13.707031 -8.382812 13.734375 -9.234375 13.734375 -10.390625 L 13.734375 -24.59375 C 13.734375 -25.800781 13.625 -26.703125 13.40625 -27.296875 C 13.195312 -27.890625 12.734375 -28.1875 12.015625 -28.1875 C 11.242188 -28.1875 10.71875 -27.890625 10.4375 -27.296875 C 10.15625 -26.703125 10.015625 -25.832031 10.015625 -24.6875 L 10.015625 -10.390625 C 10.015625 -8.898438 10.140625 -7.789062 10.390625 -7.0625 C 10.640625 -6.332031 11.195312 -5.96875 12.0625 -5.96875 Z M 12.0625 -5.96875 "/></g></g></g><g fill="#000000" fill-opacity="1"><g transform="translate(1762.971616, 507.475897)"><g/></g></g><g clip-path="url(#cf99118ae8)"><path fill="#000000" d="M 843.023438 484.082031 L 965.355469 484.082031 L 965.355469 501.375 L 843.023438 501.375 Z M 843.023438 484.082031 " fill-opacity="1" fill-rule="nonzero"/></g><g clip-path="url(#6f98c2ad19)"><path fill="#000000" d="M 1790.394531 486.714844 L 1912.726562 486.714844 L 1912.726562 504.007812 L 1790.394531 504.007812 Z M 1790.394531 486.714844 " fill-opacity="1" fill-rule="nonzero"/></g><path fill="#cb6ce6" d="M 229.386719 416.921875 L 225.339844 416.921875 C 184.550781 416.921875 151.230469 383.605469 151.230469 342.816406 L 151.230469 298.289062 C 151.230469 279.917969 166.800781 261.855469 185.484375 265.28125 C 253.363281 276.804688 260.835938 241.304688 269.867188 253.761719 C 286.371094 276.179688 303.183594 269.640625 303.183594 279.917969 L 303.183594 343.125 C 303.183594 383.605469 270.179688 416.921875 229.386719 416.921875 Z M 181.125 277.113281 C 171.160156 277.113281 163.6875 288.636719 163.6875 298.289062 L 163.6875 342.816406 C 163.6875 376.753906 191.398438 404.46875 225.339844 404.46875 L 229.386719 404.46875 C 263.328125 404.46875 290.730469 376.753906 290.730469 342.816406 L 290.730469 284.277344 C 279.832031 280.226562 270.800781 274 263.640625 265.90625 C 236.238281 283.34375 207.589844 281.785156 183.304688 277.425781 C 182.679688 277.425781 181.746094 277.113281 181.125 277.113281 Z M 181.125 277.113281 " fill-opacity="1" fill-rule="evenodd"/><path fill="#cb6ce6" d="M 318.753906 312.613281 C 315.328125 312.613281 312.527344 309.808594 312.527344 306.382812 L 312.527344 258.742188 C 311.902344 234.765625 293.222656 227.917969 276.40625 216.394531 C 259.59375 204.875 247.136719 196.15625 227.832031 196.15625 C 180.5 196.15625 142.203125 234.457031 142.203125 281.785156 L 142.203125 306.382812 C 142.203125 314.480469 129.746094 314.480469 129.746094 306.382812 L 129.746094 281.785156 C 129.746094 227.292969 173.339844 183.699219 229.699219 183.699219 C 258.347656 183.699219 277.964844 203.941406 300.070312 217.019531 C 315.015625 225.425781 323.734375 240.371094 324.980469 258.429688 L 324.980469 306.382812 C 324.980469 309.808594 322.179688 312.613281 318.753906 312.613281 Z M 318.753906 312.613281 " fill-opacity="1" fill-rule="evenodd"/><path fill="#cb6ce6" d="M 309.722656 348.421875 C 286.371094 348.421875 290.730469 353.402344 290.730469 302.335938 C 290.730469 294.238281 301.316406 296.109375 309.722656 296.109375 C 320 296.109375 328.40625 304.515625 328.40625 315.101562 L 328.40625 329.425781 C 328.40625 340.011719 320 348.421875 309.722656 348.421875 Z M 303.183594 335.964844 C 317.820312 335.964844 315.953125 335.34375 315.953125 315.101562 C 315.953125 307.628906 307.855469 308.5625 303.183594 308.5625 Z M 303.183594 335.964844 " fill-opacity="1" fill-rule="evenodd"/><path fill="#cb6ce6" d="M 157.460938 348.421875 L 145.003906 348.421875 C 134.730469 348.421875 126.320312 340.011719 126.320312 329.738281 L 126.320312 315.101562 C 126.320312 304.515625 134.730469 296.109375 145.003906 296.109375 C 168.359375 296.109375 163.6875 291.125 163.6875 342.191406 C 163.6875 345.617188 160.886719 348.421875 157.460938 348.421875 Z M 145.003906 308.5625 C 136.597656 308.5625 138.777344 320.085938 138.777344 329.425781 C 138.777344 336.898438 146.871094 335.964844 151.230469 335.964844 L 151.230469 308.5625 Z M 145.003906 308.5625 " fill-opacity="1" fill-rule="evenodd"/><g clip-path="url(#98bc24839b)"><path fill="#cb6ce6" d="M 380.71875 516.253906 L 310.96875 516.253906 C 302.875 516.253906 302.875 503.796875 310.96875 503.796875 L 380.71875 503.796875 C 408.429688 503.796875 430.851562 481.378906 430.851562 453.667969 L 430.851562 383.917969 C 430.851562 375.820312 443.304688 375.820312 443.304688 383.917969 L 443.304688 453.667969 C 443.304688 488.230469 415.28125 516.253906 380.71875 516.253906 Z M 143.449219 516.253906 L 74.011719 516.253906 C 39.445312 516.253906 11.421875 488.230469 11.421875 453.667969 L 11.421875 383.917969 C 11.421875 375.820312 23.878906 375.820312 23.878906 383.917969 L 23.878906 453.667969 C 23.878906 481.378906 46.296875 503.796875 74.011719 503.796875 L 143.449219 503.796875 C 151.855469 503.796875 151.855469 516.253906 143.449219 516.253906 Z M 437.078125 222.621094 C 433.652344 222.621094 430.851562 220.132812 430.851562 216.394531 L 430.851562 146.957031 C 430.851562 119.246094 408.429688 96.824219 380.71875 96.824219 L 310.96875 96.824219 C 302.875 96.824219 302.875 84.371094 310.96875 84.371094 L 380.71875 84.371094 C 415.28125 84.371094 443.304688 112.394531 443.304688 146.957031 L 443.304688 216.394531 C 443.304688 220.132812 440.503906 222.621094 437.078125 222.621094 Z M 17.652344 222.621094 C 14.226562 222.621094 11.421875 220.132812 11.421875 216.394531 L 11.421875 146.957031 C 11.421875 112.394531 39.445312 84.371094 74.011719 84.371094 L 143.449219 84.371094 C 151.855469 84.371094 151.855469 96.824219 143.449219 96.824219 L 74.011719 96.824219 C 46.296875 96.824219 23.878906 119.246094 23.878906 146.957031 L 23.878906 216.394531 C 23.878906 220.132812 21.074219 222.621094 17.652344 222.621094 Z M 17.652344 222.621094 " fill-opacity="1" fill-rule="evenodd"/></g><path fill="#cb6ce6" d="M 370.441406 455.222656 L 84.285156 455.222656 C 80.859375 455.222656 78.058594 452.421875 78.058594 448.996094 L 78.058594 151.316406 C 78.058594 147.890625 80.859375 145.089844 84.285156 145.089844 L 370.441406 145.089844 C 373.867188 145.089844 376.671875 147.890625 376.671875 151.316406 L 376.671875 448.996094 C 376.671875 452.421875 373.867188 455.222656 370.441406 455.222656 Z M 90.511719 442.769531 L 364.214844 442.769531 L 364.214844 157.542969 L 90.511719 157.542969 Z M 90.511719 442.769531 " fill-opacity="1" fill-rule="evenodd"/><path fill="#cb6ce6" d="M 486.585938 306.382812 L -32.171875 306.382812 C -40.265625 306.382812 -40.265625 293.929688 -32.171875 293.929688 L 486.585938 293.929688 C 494.996094 293.929688 494.996094 306.382812 486.585938 306.382812 Z M 486.585938 306.382812 " fill-opacity="1" fill-rule="evenodd"/></svg>